;TYPE=PLATED
;Layer: PTH_Through_Via
;EasyEDA Pro v1.9.26, 2023-01-09 17:51:21
;Gerber Generator version 0.3
M48
METRIC,LZ,000.000
;Hole size 1 = 0.300 METRIC
T01C0.300
;Hole size 2 = 0.304 METRIC
T02C0.304
;Hole size 3 = 0.305 METRIC
T03C0.305
;Hole size 4 = 0.350 METRIC
T04C0.350
%
G05
G90
T01
X120172Y015289
X121262Y010913
X121223Y012498
X121183Y014400
X123325Y011108
X123720Y020366
X121097Y018189
X123701Y023498
X122483Y-015948
X119129Y-015137
X117859Y-015264
X124717Y-007185
X117784Y-013610
X119383Y-012773
X111128Y-006886
X113414Y-005228
X113287Y-007058
X111128Y-007744
X113414Y-011122
X118119Y005259
X114620Y012503
X116916Y005404
X115199Y008659
X114587Y009271
X116847Y020539
X116720Y018380
X113351Y016030
X113351Y012400
X114965Y010913
X111251Y009838
X112022Y009067
X113023Y007915
X118126Y004648
X123880Y003991
X121494Y003953
X121494Y008563
X118236Y006019
X119134Y006917
X120494Y008563
X117864Y-010990
X117859Y-009392
X116843Y-005034
X116843Y-006541
X120441Y-004153
X123447Y001175
X117847Y020539
X117474Y018380
X117162Y013453
T02
X109625Y-010547
X109625Y004693
X109625Y007233
X109625Y012313
X127405Y-018167
X127405Y-015627
X109625Y014853
X124865Y025013
X119785Y025013
X107085Y025013
X109625Y025013
X114705Y025013
X109625Y017393
X109625Y019933
X109625Y022473
X109625Y-020707
X109625Y-015627
X109625Y-013087
X127405Y022473
X127405Y-013087
X127405Y-010547
X127405Y-008007
X127405Y-005467
X127405Y007233
X127405Y009773
X127405Y012313
X127405Y014853
X127405Y017393
X127405Y019933
X127405Y-020707
X112165Y017393
X112165Y014853
T03
X117851Y-001080
X116851Y-001080
X117851Y-000080
X116851Y-000080
T04
X122554Y010337
X120297Y019650
X117097Y009325
X113351Y014940
X113351Y013490
X123015Y005642
X113910Y019638
X117162Y014403
M30