;TYPE=PLATED
;Layer: PTH_Through
;EasyEDA Pro v1.9.26, 2023-01-09 17:51:21
;Gerber Generator version 0.3
M48
METRIC,LZ,000.000
;Hole size 1 = 0.600 METRIC
T01C0.600
;Hole size 2 = 1.100 METRIC
T02C1.100
%
G05
G90
T01
X121422Y019750G85X121422Y020650
X112772Y019750G85X112772Y020650
X121422Y024100G85X121422Y024700
X112772Y024100G85X112772Y024700
T02
X112017Y-020139
X112017Y-017599
X114557Y-020139
X114557Y-017599
X117097Y-020139
X117097Y-017599
X119637Y-020139
X119637Y-017599
X122177Y-020139
X122177Y-017599
X108207Y022279
X108207Y019739
X108207Y017199
X108207Y014659
X108207Y012119
X108207Y009579
X108207Y007039
X108207Y004499
X108207Y001959
X108207Y-000581
X108207Y-003121
X108207Y-005661
X108207Y-008201
X108207Y-010741
X108207Y-013281
X108207Y-015821
X108207Y-018361
X108207Y-020901
X125987Y022279
X125987Y019739
X125987Y017199
X125987Y014659
X125987Y012119
X125987Y009579
X125987Y007039
X125987Y004499
X125987Y001959
X125987Y-000581
X125987Y-003121
X125987Y-005661
X125987Y-008201
X125987Y-010741
X125987Y-013281
X125987Y-015821
X125987Y-018361
X125987Y-020901
M30