G04 Layer: BottomPasteMaskLayer*
G04 EasyEDA Pro v1.9.26, 2023-01-09 17:51:20*
G04 Gerber Generator version 0.3*
G04 Scale: 100 percent, Rotated: No, Reflected: No*
G04 Dimensions in millimeters*
G04 Leading zeros omitted, absolute positions, 3 integers and 3 decimals*
%FSLAX33Y33*%
%MOMM*%
%AMOval*1,1,$1,$2,$3*1,1,$1,$4,$5*20,1,$1,$2,$3,$4,$5,0*%
%ADD10C,0.0254*%
%ADD11R,1.39954X1.30048*%
%ADD12R,0.799998X0.899998*%
%ADD13R,1.099998X0.799998*%
%ADD14Oval,0.28001X0.0X-0.670001X0.0X0.670001*%
%ADD15Oval,0.559994X0.0X-0.592506X0.0X0.592506*%
%ADD16R,0.599999X1.499997*%
%ADD17R,2.799994X2.399995*%
%ADD18Oval,0.3556X0.0X-0.729602X0.0X0.729602*%
%ADD19R,0.899998X0.799998*%
G75*


G04 PolygonModel Start*
G36*
G01X114708Y-3621D02*
G01X115168Y-3621D01*
G01X115208Y-3581D01*
G01Y-3080D01*
G01X115168Y-3040D01*
G01X114708D01*
G01X114668Y-3080D01*
G01Y-3581D01*
G01X114708Y-3621D01*
G37*
G54D10*
G01X114708Y-3621D02*
G01X115168Y-3621D01*
G01X115208Y-3581D01*
G01Y-3080D01*
G01X115168Y-3040D01*
G01X114708D01*
G01X114668Y-3080D01*
G01Y-3581D01*
G01X114708Y-3621D01*
G36*
G01X114708Y-3891D02*
G01X115168Y-3891D01*
G01X115208Y-3931D01*
G01Y-4431D01*
G01X115168Y-4471D01*
G01X114708D01*
G01X114668Y-4431D01*
G01Y-3931D01*
G01X114708Y-3891D01*
G37*
G01X114708Y-3891D02*
G01X115168Y-3891D01*
G01X115208Y-3931D01*
G01Y-4431D01*
G01X115168Y-4471D01*
G01X114708D01*
G01X114668Y-4431D01*
G01Y-3931D01*
G01X114708Y-3891D01*
G36*
G01X115261Y-5101D02*
G01X115261Y-5901D01*
G01X115211Y-5951D01*
G01X114983D01*
G01Y-5581D01*
G01X114653D01*
G01Y-5951D01*
G01X114411D01*
G01X114361Y-5901D01*
G01Y-5101D01*
G01X114411Y-5051D01*
G01X115211D01*
G01X115261Y-5101D01*
G37*
G01X115261Y-5101D02*
G01X115261Y-5901D01*
G01X115211Y-5951D01*
G01X114983D01*
G01Y-5581D01*
G01X114653D01*
G01Y-5951D01*
G01X114411D01*
G01X114361Y-5901D01*
G01Y-5101D01*
G01X114411Y-5051D01*
G01X115211D01*
G01X115261Y-5101D01*
G36*
G01X115211Y-6651D02*
G01X114983Y-6651D01*
G01Y-7031D01*
G01X114653D01*
G01Y-6651D01*
G01X114411D01*
G01X114361Y-6701D01*
G01Y-7491D01*
G01X114411Y-7541D01*
G01X115211D01*
G01X115261Y-7491D01*
G01Y-6701D01*
G01X115211Y-6651D01*
G37*
G01X115211Y-6651D02*
G01X114983Y-6651D01*
G01Y-7031D01*
G01X114653D01*
G01Y-6651D01*
G01X114411D01*
G01X114361Y-6701D01*
G01Y-7491D01*
G01X114411Y-7541D01*
G01X115211D01*
G01X115261Y-7491D01*
G01Y-6701D01*
G01X115211Y-6651D01*
G04 PolygonModel End*

G04 Pad Start*
G54D11*
G01X111128Y-6550D03*
G01X111128Y-4449D03*
G54D12*
G01X122301Y14532D03*
G01X123701Y14532D03*
G54D13*
G01X123712Y17393D03*
G01X123712Y16243D03*
G01X121912Y16244D03*
G01X121912Y17394D03*
G54D14*
G01X123177Y-3834D03*
G01X122677Y-3834D03*
G01X122177Y-3834D03*
G01X121677Y-3834D03*
G01X121177Y-3834D03*
G01X123177Y386D03*
G01X122677Y386D03*
G01X122177Y386D03*
G01X121677Y386D03*
G01X121177Y386D03*
G54D15*
G01X120399Y-15137D03*
G01X119129Y-15137D03*
G01X117859Y-15137D03*
G01X116589Y-15137D03*
G01X115319Y-15137D03*
G01X114049Y-15137D03*
G01X112779Y-15137D03*
G01X111509Y-15137D03*
G01X120399Y-9392D03*
G01X119129Y-9392D03*
G01X117859Y-9392D03*
G01X116589Y-9392D03*
G01X115319Y-9392D03*
G01X114049Y-9392D03*
G01X112779Y-9392D03*
G01X111509Y-9392D03*
G54D16*
G01X118494Y8944D03*
G01X119494Y8944D03*
G01X120494Y8944D03*
G01X121494Y8944D03*
G01X122494Y8944D03*
G01X122494Y3445D03*
G01X121494Y3445D03*
G01X120494Y3445D03*
G01X119494Y3445D03*
G01X118494Y3445D03*
G54D17*
G01X120494Y6195D03*
G54D18*
G01X116145Y16933D03*
G01X116780Y16933D03*
G01X117415Y16933D03*
G01X118050Y16933D03*
G01X118685Y16933D03*
G01X119320Y16933D03*
G01X119955Y16933D03*
G01X120590Y16933D03*
G01X116145Y11624D03*
G01X116780Y11624D03*
G01X117415Y11624D03*
G01X118050Y11624D03*
G01X118685Y11624D03*
G01X119320Y11624D03*
G01X119955Y11624D03*
G01X120590Y11624D03*
G54D19*
G01X123320Y20566D03*
G01X123320Y19166D03*
G04 Pad End*

M02*
