G04 Layer: TopSilkscreenLayer*
G04 EasyEDA Pro v1.9.26, 2023-01-09 17:51:20*
G04 Gerber Generator version 0.3*
G04 Scale: 100 percent, Rotated: No, Reflected: No*
G04 Dimensions in millimeters*
G04 Leading zeros omitted, absolute positions, 3 integers and 3 decimals*
%FSLAX33Y33*%
%MOMM*%
%ADD10C,0.2032*%
%ADD11C,0.12*%
%ADD12C,0.1524*%
%ADD13C,0.254*%
%ADD14C,0.151994*%
%ADD15C,0.1504*%
%ADD16C,0.150012*%
G75*


G04 Text Start*
G04 //text: +5V*
G54D10*
G01X127673Y13580D02*
G01X128402Y13580D01*
G01X128039Y13214D02*
G01X128039Y13943D01*
G01X127551Y14827D02*
G01X127551Y14423D01*
G01X127917Y14383D01*
G01X127876Y14423D01*
G01X127835Y14545D01*
G01Y14665D01*
G01X127876Y14787D01*
G01X127957Y14868D01*
G01X128079Y14908D01*
G01X128160D01*
G01X128280Y14868D01*
G01X128361Y14787D01*
G01X128402Y14665D01*
G01Y14545D01*
G01X128361Y14423D01*
G01X128321Y14383D01*
G01X128239Y14342D01*
G01X127551Y15307D02*
G01X128402Y15630D01*
G01X127551Y15955D02*
G01X128402Y15630D01*
G04 //text: 1V2*
G01X127746Y21432D02*
G01X127706Y21513D01*
G01X127584Y21635D01*
G01X128435D01*
G01X127584Y22031D02*
G01X128435Y22356D01*
G01X127584Y22682D02*
G01X128435Y22356D01*
G01X127787Y23118D02*
G01X127746Y23118D01*
G01X127665Y23159D01*
G01X127624Y23200D01*
G01X127584Y23281D01*
G01Y23444D01*
G01X127624Y23525D01*
G01X127665Y23565D01*
G01X127746Y23606D01*
G01X127828D01*
G01X127909Y23565D01*
G01X128031Y23484D01*
G01X128435Y23078D01*
G01Y23647D01*
G04 //text: G*
G01X127881Y17504D02*
G01X127800Y17464D01*
G01X127719Y17382D01*
G01X127678Y17304D01*
G01Y17141D01*
G01X127719Y17060D01*
G01X127800Y16979D01*
G01X127881Y16938D01*
G01X128003Y16897D01*
G01X128206D01*
G01X128328Y16938D01*
G01X128407Y16979D01*
G01X128488Y17060D01*
G01X128529Y17141D01*
G01Y17304D01*
G01X128488Y17382D01*
G01X128407Y17464D01*
G01X128328Y17504D01*
G01X128206D01*
G01X128206Y17304D02*
G01X128206Y17504D01*
G04 //text: 23*
G01X106314Y-15062D02*
G01X106355Y-15062D01*
G01X106436Y-15103D01*
G01X106477Y-15143D01*
G01X106518Y-15224D01*
G01Y-15387D01*
G01X106477Y-15468D01*
G01X106436Y-15506D01*
G01X106355Y-15547D01*
G01X106274D01*
G01X106193Y-15506D01*
G01X106071Y-15428D01*
G01X105667Y-15021D01*
G01Y-15588D01*
G01X106518Y-16068D02*
G01X106518Y-16512D01*
G01X106193Y-16271D01*
G01Y-16390D01*
G01X106152Y-16472D01*
G01X106111Y-16512D01*
G01X105989Y-16553D01*
G01X105908D01*
G01X105789Y-16512D01*
G01X105707Y-16431D01*
G01X105667Y-16312D01*
G01Y-16190D01*
G01X105707Y-16068D01*
G01X105748Y-16027D01*
G01X105829Y-15986D01*
G04 //text: 9*
G01X106233Y21664D02*
G01X106111Y21705D01*
G01X106030Y21783D01*
G01X105989Y21905D01*
G01Y21946D01*
G01X106030Y22068D01*
G01X106111Y22149D01*
G01X106233Y22190D01*
G01X106274D01*
G01X106396Y22149D01*
G01X106477Y22068D01*
G01X106518Y21946D01*
G01Y21905D01*
G01X106477Y21783D01*
G01X106396Y21705D01*
G01X106233Y21664D01*
G01X106030D01*
G01X105829Y21705D01*
G01X105707Y21783D01*
G01X105667Y21905D01*
G01Y21987D01*
G01X105707Y22108D01*
G01X105789Y22149D01*
G04 //text: V2*
G01X106645Y-7528D02*
G01X105794Y-7853D01*
G01X106645Y-8176D02*
G01X105794Y-7853D01*
G01X106441Y-8615D02*
G01X106482Y-8615D01*
G01X106563Y-8656D01*
G01X106604Y-8697D01*
G01X106645Y-8778D01*
G01Y-8938D01*
G01X106604Y-9019D01*
G01X106563Y-9060D01*
G01X106482Y-9101D01*
G01X106401D01*
G01X106320Y-9060D01*
G01X106198Y-8979D01*
G01X105794Y-8575D01*
G01Y-9141D01*
G04 //text: 1V2*
G01X106355Y-9814D02*
G01X106396Y-9896D01*
G01X106518Y-10017D01*
G01X105667D01*
G01X106518Y-10414D02*
G01X105667Y-10739D01*
G01X106518Y-11064D02*
G01X105667Y-10739D01*
G01X106314Y-11501D02*
G01X106355Y-11501D01*
G01X106436Y-11541D01*
G01X106477Y-11582D01*
G01X106518Y-11663D01*
G01Y-11826D01*
G01X106477Y-11907D01*
G01X106436Y-11948D01*
G01X106355Y-11989D01*
G01X106274D01*
G01X106193Y-11948D01*
G01X106071Y-11867D01*
G01X105667Y-11460D01*
G01Y-12029D01*
G04 //text: 22*
G01X106314Y-12776D02*
G01X106355Y-12776D01*
G01X106436Y-12817D01*
G01X106477Y-12857D01*
G01X106518Y-12938D01*
G01Y-13101D01*
G01X106477Y-13182D01*
G01X106436Y-13220D01*
G01X106355Y-13261D01*
G01X106274D01*
G01X106193Y-13220D01*
G01X106071Y-13142D01*
G01X105667Y-12735D01*
G01Y-13302D01*
G01X106314Y-13741D02*
G01X106355Y-13741D01*
G01X106436Y-13782D01*
G01X106477Y-13822D01*
G01X106518Y-13904D01*
G01Y-14066D01*
G01X106477Y-14145D01*
G01X106436Y-14186D01*
G01X106355Y-14226D01*
G01X106274D01*
G01X106193Y-14186D01*
G01X106071Y-14104D01*
G01X105667Y-13700D01*
G01Y-14267D01*
G04 //text: 11*
G01X106355Y20158D02*
G01X106396Y20076D01*
G01X106518Y19955D01*
G01X105667D01*
G01X106355Y19558D02*
G01X106396Y19477D01*
G01X106518Y19355D01*
G01X105667D01*
G04 //text: 12*
G01X106355Y17745D02*
G01X106396Y17663D01*
G01X106518Y17542D01*
G01X105667D01*
G01X106314Y17105D02*
G01X106355Y17105D01*
G01X106436Y17064D01*
G01X106477Y17023D01*
G01X106518Y16942D01*
G01Y16780D01*
G01X106477Y16698D01*
G01X106436Y16658D01*
G01X106355Y16617D01*
G01X106274D01*
G01X106193Y16658D01*
G01X106071Y16739D01*
G01X105667Y17145D01*
G01Y16576D01*
G04 //text: 13*
G01X106355Y15205D02*
G01X106396Y15123D01*
G01X106518Y15002D01*
G01X105667D01*
G01X106518Y14524D02*
G01X106518Y14077D01*
G01X106193Y14321D01*
G01Y14199D01*
G01X106152Y14118D01*
G01X106111Y14077D01*
G01X105989Y14036D01*
G01X105908D01*
G01X105789Y14077D01*
G01X105707Y14158D01*
G01X105667Y14280D01*
G01Y14402D01*
G01X105707Y14524D01*
G01X105748Y14565D01*
G01X105829Y14605D01*
G04 //text: 14*
G01X106355Y12792D02*
G01X106396Y12710D01*
G01X106518Y12589D01*
G01X105667D01*
G01X106518Y11786D02*
G01X105949Y12192D01*
G01Y11583D01*
G01X106518Y11786D02*
G01X105667Y11786D01*
G04 //text: 15*
G01X106355Y10125D02*
G01X106396Y10043D01*
G01X106518Y9922D01*
G01X105667D01*
G01X106518Y9038D02*
G01X106518Y9444D01*
G01X106152Y9485D01*
G01X106193Y9444D01*
G01X106233Y9322D01*
G01Y9200D01*
G01X106193Y9078D01*
G01X106111Y8997D01*
G01X105989Y8956D01*
G01X105908D01*
G01X105789Y8997D01*
G01X105707Y9078D01*
G01X105667Y9200D01*
G01Y9322D01*
G01X105707Y9444D01*
G01X105748Y9485D01*
G01X105829Y9525D01*
G04 //text: 16*
G01X106355Y7585D02*
G01X106396Y7503D01*
G01X106518Y7382D01*
G01X105667D01*
G01X106396Y6498D02*
G01X106477Y6538D01*
G01X106518Y6660D01*
G01Y6741D01*
G01X106477Y6863D01*
G01X106355Y6945D01*
G01X106152Y6985D01*
G01X105949D01*
G01X105789Y6945D01*
G01X105707Y6863D01*
G01X105667Y6741D01*
G01Y6701D01*
G01X105707Y6579D01*
G01X105789Y6498D01*
G01X105908Y6457D01*
G01X105949D01*
G01X106071Y6498D01*
G01X106152Y6579D01*
G01X106193Y6701D01*
G01Y6741D01*
G01X106152Y6863D01*
G01X106071Y6945D01*
G01X105949Y6985D01*
G04 //text: 17*
G01X106355Y5045D02*
G01X106396Y4963D01*
G01X106518Y4842D01*
G01X105667D01*
G01X106518Y3876D02*
G01X105667Y4283D01*
G01X106518Y4445D02*
G01X106518Y3876D01*
G04 //text: 18*
G01X106355Y2505D02*
G01X106396Y2423D01*
G01X106518Y2302D01*
G01X105667D01*
G01X106518Y1702D02*
G01X106477Y1824D01*
G01X106396Y1865D01*
G01X106314D01*
G01X106233Y1824D01*
G01X106193Y1743D01*
G01X106152Y1580D01*
G01X106111Y1458D01*
G01X106030Y1377D01*
G01X105949Y1336D01*
G01X105829D01*
G01X105748Y1377D01*
G01X105707Y1418D01*
G01X105667Y1540D01*
G01Y1702D01*
G01X105707Y1824D01*
G01X105748Y1865D01*
G01X105829Y1905D01*
G01X105949D01*
G01X106030Y1865D01*
G01X106111Y1783D01*
G01X106152Y1661D01*
G01X106193Y1499D01*
G01X106233Y1418D01*
G01X106314Y1377D01*
G01X106396D01*
G01X106477Y1418D01*
G01X106518Y1540D01*
G01Y1702D01*
G04 //text: 19*
G01X106355Y-35D02*
G01X106396Y-117D01*
G01X106518Y-238D01*
G01X105667D01*
G01X106233Y-1163D02*
G01X106111Y-1122D01*
G01X106030Y-1041D01*
G01X105989Y-919D01*
G01Y-879D01*
G01X106030Y-757D01*
G01X106111Y-675D01*
G01X106233Y-635D01*
G01X106274D01*
G01X106396Y-675D01*
G01X106477Y-757D01*
G01X106518Y-879D01*
G01Y-919D01*
G01X106477Y-1041D01*
G01X106396Y-1122D01*
G01X106233Y-1163D01*
G01X106030D01*
G01X105829Y-1122D01*
G01X105707Y-1041D01*
G01X105667Y-919D01*
G01Y-838D01*
G01X105707Y-716D01*
G01X105789Y-675D01*
G04 //text: 20*
G01X106314Y-2235D02*
G01X106355Y-2235D01*
G01X106436Y-2276D01*
G01X106477Y-2316D01*
G01X106518Y-2397D01*
G01Y-2560D01*
G01X106477Y-2641D01*
G01X106436Y-2679D01*
G01X106355Y-2720D01*
G01X106274D01*
G01X106193Y-2679D01*
G01X106071Y-2601D01*
G01X105667Y-2194D01*
G01Y-2761D01*
G01X106518Y-3403D02*
G01X106477Y-3281D01*
G01X106355Y-3200D01*
G01X106152Y-3159D01*
G01X106030D01*
G01X105829Y-3200D01*
G01X105707Y-3281D01*
G01X105667Y-3403D01*
G01Y-3485D01*
G01X105707Y-3604D01*
G01X105829Y-3685D01*
G01X106030Y-3726D01*
G01X106152D01*
G01X106355Y-3685D01*
G01X106477Y-3604D01*
G01X106518Y-3485D01*
G01Y-3403D01*
G04 //text: 3V3*
G01X106518Y-4308D02*
G01X106518Y-4752D01*
G01X106193Y-4511D01*
G01Y-4633D01*
G01X106152Y-4711D01*
G01X106111Y-4752D01*
G01X105989Y-4793D01*
G01X105908D01*
G01X105789Y-4752D01*
G01X105707Y-4673D01*
G01X105667Y-4551D01*
G01Y-4429D01*
G01X105707Y-4308D01*
G01X105748Y-4267D01*
G01X105829Y-4226D01*
G01X106518Y-5191D02*
G01X105667Y-5517D01*
G01X106518Y-5839D02*
G01X105667Y-5517D01*
G01X106518Y-6319D02*
G01X106518Y-6764D01*
G01X106193Y-6520D01*
G01Y-6642D01*
G01X106152Y-6723D01*
G01X106111Y-6764D01*
G01X105989Y-6804D01*
G01X105908D01*
G01X105789Y-6764D01*
G01X105707Y-6682D01*
G01X105667Y-6561D01*
G01Y-6441D01*
G01X105707Y-6319D01*
G01X105748Y-6279D01*
G01X105829Y-6238D01*
G04 //text: 3V3*
G01X127575Y18370D02*
G01X127575Y18815D01*
G01X127901Y18574D01*
G01Y18695D01*
G01X127941Y18774D01*
G01X127982Y18815D01*
G01X128104Y18855D01*
G01X128185D01*
G01X128304Y18815D01*
G01X128386Y18736D01*
G01X128426Y18614D01*
G01Y18492D01*
G01X128386Y18370D01*
G01X128345Y18330D01*
G01X128264Y18289D01*
G01X127575Y19254D02*
G01X128426Y19579D01*
G01X127575Y19902D02*
G01X128426Y19579D01*
G01X127575Y20382D02*
G01X127575Y20827D01*
G01X127901Y20583D01*
G01Y20705D01*
G01X127941Y20786D01*
G01X127982Y20827D01*
G01X128104Y20867D01*
G01X128185D01*
G01X128304Y20827D01*
G01X128386Y20745D01*
G01X128426Y20623D01*
G01Y20504D01*
G01X128386Y20382D01*
G01X128345Y20341D01*
G01X128264Y20301D01*
G04 //text: 25*
G01X106441Y-19761D02*
G01X106482Y-19761D01*
G01X106563Y-19802D01*
G01X106604Y-19842D01*
G01X106645Y-19923D01*
G01Y-20086D01*
G01X106604Y-20167D01*
G01X106563Y-20205D01*
G01X106482Y-20246D01*
G01X106401D01*
G01X106320Y-20205D01*
G01X106198Y-20127D01*
G01X105794Y-19720D01*
G01Y-20287D01*
G01X106645Y-21171D02*
G01X106645Y-20767D01*
G01X106279Y-20726D01*
G01X106320Y-20767D01*
G01X106360Y-20889D01*
G01Y-21011D01*
G01X106320Y-21130D01*
G01X106238Y-21211D01*
G01X106116Y-21252D01*
G01X106035D01*
G01X105916Y-21211D01*
G01X105834Y-21130D01*
G01X105794Y-21011D01*
G01Y-20889D01*
G01X105834Y-20767D01*
G01X105875Y-20726D01*
G01X105956Y-20685D01*
G04 //text: 41*
G01X127554Y-21024D02*
G01X128123Y-21430D01*
G01Y-20823D01*
G01X127554Y-21024D02*
G01X128405Y-21024D01*
G01X127717Y-20424D02*
G01X127676Y-20343D01*
G01X127554Y-20221D01*
G01X128405D01*
G04 //text: CDONE*
G54D11*
G01X106337Y-17330D02*
G01X106380Y-17310D01*
G01X106424Y-17267D01*
G01X106444Y-17223D01*
G01Y-17140D01*
G01X106424Y-17096D01*
G01X106380Y-17053D01*
G01X106337Y-17033D01*
G01X106274Y-17013D01*
G01X106167D01*
G01X106104Y-17033D01*
G01X106060Y-17053D01*
G01X106020Y-17096D01*
G01X105997Y-17140D01*
G01Y-17223D01*
G01X106020Y-17267D01*
G01X106060Y-17310D01*
G01X106104Y-17330D01*
G01X106444Y-17554D02*
G01X105997Y-17554D01*
G01X106444Y-17554D02*
G01X106444Y-17701D01*
G01X106424Y-17764D01*
G01X106380Y-17808D01*
G01X106337Y-17828D01*
G01X106274Y-17851D01*
G01X106167D01*
G01X106104Y-17828D01*
G01X106060Y-17808D01*
G01X106020Y-17764D01*
G01X105997Y-17701D01*
G01Y-17554D01*
G01X106444Y-18199D02*
G01X106424Y-18158D01*
G01X106380Y-18115D01*
G01X106337Y-18092D01*
G01X106274Y-18072D01*
G01X106167D01*
G01X106104Y-18092D01*
G01X106060Y-18115D01*
G01X106020Y-18158D01*
G01X105997Y-18199D01*
G01Y-18285D01*
G01X106020Y-18326D01*
G01X106060Y-18369D01*
G01X106104Y-18392D01*
G01X106167Y-18412D01*
G01X106274D01*
G01X106337Y-18392D01*
G01X106380Y-18369D01*
G01X106424Y-18326D01*
G01X106444Y-18285D01*
G01Y-18199D01*
G01X106444Y-18633D02*
G01X105997Y-18633D01*
G01X106444Y-18633D02*
G01X105997Y-18930D01*
G01X106444Y-18930D02*
G01X105997Y-18930D01*
G01X106444Y-19154D02*
G01X105997Y-19154D01*
G01X106444Y-19154D02*
G01X106444Y-19431D01*
G01X106231Y-19154D02*
G01X106231Y-19324D01*
G01X105997Y-19154D02*
G01X105997Y-19431D01*
G04 //text: 42*
G54D10*
G01X127678Y-18637D02*
G01X128247Y-19044D01*
G01Y-18437D01*
G01X127678Y-18637D02*
G01X128529Y-18637D01*
G01X127881Y-17997D02*
G01X127840Y-17997D01*
G01X127759Y-17957D01*
G01X127719Y-17916D01*
G01X127678Y-17835D01*
G01Y-17675D01*
G01X127719Y-17593D01*
G01X127759Y-17553D01*
G01X127840Y-17512D01*
G01X127922D01*
G01X128003Y-17553D01*
G01X128125Y-17634D01*
G01X128529Y-18038D01*
G01Y-17471D01*
G04 //text: 43*
G01X127678Y-16224D02*
G01X128247Y-16631D01*
G01Y-16024D01*
G01X127678Y-16224D02*
G01X128529Y-16224D01*
G01X127678Y-15544D02*
G01X127678Y-15099D01*
G01X128003Y-15340D01*
G01Y-15221D01*
G01X128044Y-15140D01*
G01X128084Y-15099D01*
G01X128206Y-15058D01*
G01X128287D01*
G01X128407Y-15099D01*
G01X128488Y-15180D01*
G01X128529Y-15300D01*
G01Y-15422D01*
G01X128488Y-15544D01*
G01X128448Y-15584D01*
G01X128366Y-15625D01*
G04 //text: 6*
G01X127759Y12330D02*
G01X127678Y12292D01*
G01X127637Y12170D01*
G01Y12089D01*
G01X127678Y11967D01*
G01X127800Y11886D01*
G01X128003Y11845D01*
G01X128206D01*
G01X128366Y11886D01*
G01X128447Y11967D01*
G01X128488Y12089D01*
G01Y12130D01*
G01X128447Y12252D01*
G01X128366Y12330D01*
G01X128247Y12371D01*
G01X128206D01*
G01X128084Y12330D01*
G01X128003Y12252D01*
G01X127962Y12130D01*
G01Y12089D01*
G01X128003Y11967D01*
G01X128084Y11886D01*
G01X128206Y11845D01*
G04 //text: 5*
G01X127665Y9714D02*
G01X127665Y9310D01*
G01X128031Y9270D01*
G01X127990Y9310D01*
G01X127950Y9432D01*
G01Y9554D01*
G01X127990Y9676D01*
G01X128072Y9755D01*
G01X128193Y9796D01*
G01X128275D01*
G01X128394Y9755D01*
G01X128475Y9676D01*
G01X128516Y9554D01*
G01Y9432D01*
G01X128475Y9310D01*
G01X128435Y9270D01*
G01X128354Y9229D01*
G04 //text: 4*
G01X127678Y7144D02*
G01X128247Y6737D01*
G01Y7344D01*
G01X127678Y7144D02*
G01X128529Y7144D01*
G04 //text: 44*
G01X127678Y-13811D02*
G01X128247Y-14218D01*
G01Y-13611D01*
G01X127678Y-13811D02*
G01X128529Y-13811D01*
G01X127678Y-12808D02*
G01X128247Y-13212D01*
G01Y-12605D01*
G01X127678Y-12808D02*
G01X128529Y-12808D01*
G04 //text: 45*
G01X127678Y-11144D02*
G01X128247Y-11551D01*
G01Y-10944D01*
G01X127678Y-11144D02*
G01X128529Y-11144D01*
G01X127678Y-10060D02*
G01X127678Y-10464D01*
G01X128044Y-10504D01*
G01X128003Y-10464D01*
G01X127962Y-10342D01*
G01Y-10220D01*
G01X128003Y-10100D01*
G01X128084Y-10019D01*
G01X128206Y-9978D01*
G01X128287D01*
G01X128407Y-10019D01*
G01X128488Y-10100D01*
G01X128529Y-10220D01*
G01Y-10342D01*
G01X128488Y-10464D01*
G01X128448Y-10504D01*
G01X128366Y-10545D01*
G04 //text: 46*
G01X127678Y-8731D02*
G01X128247Y-9138D01*
G01Y-8531D01*
G01X127678Y-8731D02*
G01X128529Y-8731D01*
G01X127800Y-7647D02*
G01X127719Y-7687D01*
G01X127678Y-7807D01*
G01Y-7888D01*
G01X127719Y-8010D01*
G01X127840Y-8091D01*
G01X128044Y-8132D01*
G01X128247D01*
G01X128407Y-8091D01*
G01X128488Y-8010D01*
G01X128529Y-7888D01*
G01Y-7847D01*
G01X128488Y-7728D01*
G01X128407Y-7647D01*
G01X128287Y-7606D01*
G01X128247D01*
G01X128125Y-7647D01*
G01X128044Y-7728D01*
G01X128003Y-7847D01*
G01Y-7888D01*
G01X128044Y-8010D01*
G01X128125Y-8091D01*
G01X128247Y-8132D01*
G04 //text: 48*
G01X127678Y-3397D02*
G01X128247Y-3804D01*
G01Y-3197D01*
G01X127678Y-3397D02*
G01X128529Y-3397D01*
G01X127678Y-2595D02*
G01X127719Y-2717D01*
G01X127800Y-2757D01*
G01X127881D01*
G01X127962Y-2717D01*
G01X128003Y-2635D01*
G01X128044Y-2473D01*
G01X128084Y-2353D01*
G01X128166Y-2272D01*
G01X128247Y-2231D01*
G01X128366D01*
G01X128448Y-2272D01*
G01X128488Y-2313D01*
G01X128529Y-2435D01*
G01Y-2595D01*
G01X128488Y-2717D01*
G01X128448Y-2757D01*
G01X128366Y-2798D01*
G01X128247D01*
G01X128166Y-2757D01*
G01X128084Y-2676D01*
G01X128044Y-2554D01*
G01X128003Y-2394D01*
G01X127962Y-2313D01*
G01X127881Y-2272D01*
G01X127800D01*
G01X127719Y-2313D01*
G01X127678Y-2435D01*
G01Y-2595D01*
G04 //text: 1*
G01X127840Y-629D02*
G01X127800Y-547D01*
G01X127678Y-425D01*
G01X128529D01*
G04 //text: 2*
G01X127881Y1825D02*
G01X127840Y1825D01*
G01X127759Y1866D01*
G01X127719Y1906D01*
G01X127678Y1988D01*
G01Y2150D01*
G01X127719Y2231D01*
G01X127759Y2269D01*
G01X127840Y2310D01*
G01X127922D01*
G01X128003Y2269D01*
G01X128125Y2191D01*
G01X128529Y1784D01*
G01Y2351D01*
G04 //text: 3*
G01X127665Y4406D02*
G01X127665Y4850D01*
G01X127990Y4609D01*
G01Y4731D01*
G01X128031Y4809D01*
G01X128072Y4850D01*
G01X128193Y4891D01*
G01X128275D01*
G01X128394Y4850D01*
G01X128475Y4771D01*
G01X128516Y4649D01*
G01Y4528D01*
G01X128475Y4406D01*
G01X128435Y4365D01*
G01X128354Y4324D01*
G04 //text: V0*
G01X127805Y-6471D02*
G01X128656Y-6146D01*
G01X127805Y-5823D02*
G01X128656Y-6146D01*
G01X127805Y-5180D02*
G01X127846Y-5302D01*
G01X127967Y-5384D01*
G01X128171Y-5424D01*
G01X128293D01*
G01X128493Y-5384D01*
G01X128615Y-5302D01*
G01X128656Y-5180D01*
G01Y-5102D01*
G01X128615Y-4980D01*
G01X128493Y-4898D01*
G01X128293Y-4858D01*
G01X128171D01*
G01X127967Y-4898D01*
G01X127846Y-4980D01*
G01X127805Y-5102D01*
G01Y-5180D01*
G04 //text: P2*
G54D12*
G01X106810Y-15578D02*
G01X106810Y-16229D01*
G01X106810Y-15578D02*
G01X107090Y-15578D01*
G01X107181Y-15609D01*
G01X107212Y-15639D01*
G01X107245Y-15703D01*
G01Y-15794D01*
G01X107212Y-15855D01*
G01X107181Y-15888D01*
G01X107090Y-15919D01*
G01X106810D01*
G01X107575Y-15733D02*
G01X107575Y-15703D01*
G01X107608Y-15639D01*
G01X107638Y-15609D01*
G01X107699Y-15578D01*
G01X107824D01*
G01X107885Y-15609D01*
G01X107915Y-15639D01*
G01X107948Y-15703D01*
G01Y-15764D01*
G01X107915Y-15825D01*
G01X107854Y-15919D01*
G01X107544Y-16229D01*
G01X107979D01*
G04 //text: VDDIO0*
G01X120603Y7093D02*
G01X120852Y6443D01*
G01X121098Y7093D02*
G01X120852Y6443D01*
G01X121400Y7093D02*
G01X121400Y6443D01*
G01X121400Y7093D02*
G01X121616Y7093D01*
G01X121708Y7062D01*
G01X121771Y7001D01*
G01X121801Y6938D01*
G01X121832Y6846D01*
G01Y6691D01*
G01X121801Y6597D01*
G01X121771Y6537D01*
G01X121708Y6473D01*
G01X121616Y6443D01*
G01X121400D01*
G01X122134Y7093D02*
G01X122134Y6443D01*
G01X122134Y7093D02*
G01X122350Y7093D01*
G01X122444Y7062D01*
G01X122505Y7001D01*
G01X122536Y6938D01*
G01X122566Y6846D01*
G01Y6691D01*
G01X122536Y6597D01*
G01X122505Y6537D01*
G01X122444Y6473D01*
G01X122350Y6443D01*
G01X122134D01*
G01X122868Y7093D02*
G01X122868Y6443D01*
G01X123353Y7093D02*
G01X123292Y7062D01*
G01X123232Y7001D01*
G01X123198Y6938D01*
G01X123168Y6846D01*
G01Y6691D01*
G01X123198Y6597D01*
G01X123232Y6537D01*
G01X123292Y6473D01*
G01X123353Y6443D01*
G01X123478D01*
G01X123541Y6473D01*
G01X123602Y6537D01*
G01X123633Y6597D01*
G01X123663Y6691D01*
G01Y6846D01*
G01X123633Y6938D01*
G01X123602Y7001D01*
G01X123541Y7062D01*
G01X123478Y7093D01*
G01X123353D01*
G01X124151Y7093D02*
G01X124057Y7062D01*
G01X123996Y6968D01*
G01X123966Y6816D01*
G01Y6722D01*
G01X123996Y6567D01*
G01X124057Y6473D01*
G01X124151Y6443D01*
G01X124212D01*
G01X124306Y6473D01*
G01X124367Y6567D01*
G01X124397Y6722D01*
G01Y6816D01*
G01X124367Y6968D01*
G01X124306Y7062D01*
G01X124212Y7093D01*
G01X124151D01*
G04 //text: VDDIO2*
G01X110643Y-4051D02*
G01X111279Y-4335D01*
G01X110993Y-3701D02*
G01X111279Y-4335D01*
G01X111207Y-3487D02*
G01X111667Y-3947D01*
G01X111207Y-3487D02*
G01X111360Y-3335D01*
G01X111446Y-3292D01*
G01X111534Y-3290D01*
G01X111600Y-3313D01*
G01X111686Y-3356D01*
G01X111796Y-3466D01*
G01X111841Y-3554D01*
G01X111862Y-3618D01*
G01Y-3708D01*
G01X111819Y-3794D01*
G01X111667Y-3947D01*
G01X111726Y-2968D02*
G01X112186Y-3428D01*
G01X111726Y-2968D02*
G01X111879Y-2816D01*
G01X111967Y-2771D01*
G01X112053D01*
G01X112119Y-2794D01*
G01X112206Y-2837D01*
G01X112315Y-2947D01*
G01X112360Y-3035D01*
G01X112382Y-3099D01*
G01X112383Y-3187D01*
G01X112338Y-3275D01*
G01X112186Y-3428D01*
G01X112245Y-2449D02*
G01X112705Y-2909D01*
G01X112588Y-2106D02*
G01X112567Y-2171D01*
G01Y-2257D01*
G01X112588Y-2325D01*
G01X112631Y-2412D01*
G01X112741Y-2521D01*
G01X112829Y-2566D01*
G01X112895Y-2586D01*
G01X112983Y-2588D01*
G01X113048Y-2566D01*
G01X113136Y-2478D01*
G01X113159Y-2412D01*
G01X113157Y-2324D01*
G01X113136Y-2259D01*
G01X113091Y-2171D01*
G01X112981Y-2061D01*
G01X112895Y-2018D01*
G01X112829Y-1995D01*
G01X112743D01*
G01X112676Y-2018D01*
G01X112588Y-2106D01*
G01X113152Y-1761D02*
G01X113130Y-1740D01*
G01X113107Y-1673D01*
G01Y-1630D01*
G01X113130Y-1564D01*
G01X113217Y-1478D01*
G01X113283Y-1454D01*
G01X113326D01*
G01X113393Y-1478D01*
G01X113436Y-1521D01*
G01X113457Y-1585D01*
G01X113481Y-1695D01*
G01Y-2133D01*
G01X113786Y-1828D01*
G04 //text: VDDSPI*
G01X118802Y-6372D02*
G01X118152Y-6621D01*
G01X118802Y-6867D02*
G01X118152Y-6621D01*
G01X118802Y-7169D02*
G01X118152Y-7169D01*
G01X118802Y-7169D02*
G01X118802Y-7385D01*
G01X118771Y-7477D01*
G01X118710Y-7540D01*
G01X118647Y-7571D01*
G01X118555Y-7601D01*
G01X118400D01*
G01X118306Y-7571D01*
G01X118245Y-7540D01*
G01X118182Y-7477D01*
G01X118152Y-7385D01*
G01Y-7169D01*
G01X118802Y-7903D02*
G01X118152Y-7903D01*
G01X118802Y-7903D02*
G01X118802Y-8119D01*
G01X118771Y-8213D01*
G01X118710Y-8274D01*
G01X118647Y-8305D01*
G01X118555Y-8335D01*
G01X118400D01*
G01X118306Y-8305D01*
G01X118245Y-8274D01*
G01X118182Y-8213D01*
G01X118152Y-8119D01*
G01Y-7903D01*
G01X118710Y-9069D02*
G01X118771Y-9008D01*
G01X118802Y-8914D01*
G01Y-8792D01*
G01X118771Y-8698D01*
G01X118710Y-8637D01*
G01X118647D01*
G01X118586Y-8668D01*
G01X118555Y-8698D01*
G01X118525Y-8762D01*
G01X118461Y-8947D01*
G01X118431Y-9008D01*
G01X118400Y-9039D01*
G01X118337Y-9069D01*
G01X118245D01*
G01X118182Y-9008D01*
G01X118152Y-8914D01*
G01Y-8792D01*
G01X118182Y-8698D01*
G01X118245Y-8637D01*
G01X118802Y-9371D02*
G01X118152Y-9371D01*
G01X118802Y-9371D02*
G01X118802Y-9651D01*
G01X118771Y-9742D01*
G01X118741Y-9773D01*
G01X118677Y-9806D01*
G01X118586D01*
G01X118525Y-9773D01*
G01X118492Y-9742D01*
G01X118461Y-9651D01*
G01Y-9371D01*
G01X118802Y-10106D02*
G01X118152Y-10106D01*
G04 //text: VDDC12*
G01X111622Y12816D02*
G01X111338Y12180D01*
G01X111972Y12466D02*
G01X111338Y12180D01*
G01X112186Y12252D02*
G01X111726Y11792D01*
G01X112186Y12252D02*
G01X112339Y12099D01*
G01X112382Y12013D01*
G01X112384Y11925D01*
G01X112360Y11859D01*
G01X112317Y11773D01*
G01X112208Y11663D01*
G01X112119Y11618D01*
G01X112055Y11597D01*
G01X111965D01*
G01X111879Y11640D01*
G01X111726Y11792D01*
G01X112705Y11733D02*
G01X112245Y11273D01*
G01X112705Y11733D02*
G01X112858Y11580D01*
G01X112903Y11492D01*
G01Y11406D01*
G01X112879Y11340D01*
G01X112836Y11253D01*
G01X112727Y11144D01*
G01X112639Y11099D01*
G01X112574Y11077D01*
G01X112486Y11076D01*
G01X112398Y11121D01*
G01X112245Y11273D01*
G01X113443Y10776D02*
G01X113465Y10844D01*
G01Y10930D01*
G01X113443Y10995D01*
G01X113355Y11083D01*
G01X113291Y11104D01*
G01X113203Y11106D01*
G01X113136Y11083D01*
G01X113050Y11040D01*
G01X112940Y10930D01*
G01X112895Y10842D01*
G01X112874Y10778D01*
G01Y10688D01*
G01X112895Y10623D01*
G01X112983Y10535D01*
G01X113048Y10513D01*
G01X113136Y10515D01*
G01X113203Y10535D01*
G01X113677Y10585D02*
G01X113743Y10566D01*
G01X113874Y10564D01*
G01X113414Y10104D01*
G01X114000Y10219D02*
G01X114022Y10240D01*
G01X114088Y10264D01*
G01X114131D01*
G01X114196Y10242D01*
G01X114284Y10154D01*
G01X114307Y10088D01*
G01Y10045D01*
G01X114284Y9978D01*
G01X114241Y9935D01*
G01X114176Y9914D01*
G01X114065Y9892D01*
G01X113628Y9890D01*
G01X113934Y9585D01*
G04 //text: U1*
G01X120417Y13929D02*
G01X119952Y13929D01*
G01X119861Y13898D01*
G01X119797Y13835D01*
G01X119767Y13743D01*
G01Y13680D01*
G01X119797Y13588D01*
G01X119861Y13527D01*
G01X119952Y13494D01*
G01X120417D01*
G01X120293Y13195D02*
G01X120326Y13131D01*
G01X120417Y13040D01*
G01X119767D01*
G04 //text: VDD33*
G01X116897Y-7388D02*
G01X116247Y-7637D01*
G01X116897Y-7883D02*
G01X116247Y-7637D01*
G01X116897Y-8185D02*
G01X116247Y-8185D01*
G01X116897Y-8185D02*
G01X116897Y-8401D01*
G01X116866Y-8493D01*
G01X116805Y-8556D01*
G01X116742Y-8587D01*
G01X116650Y-8617D01*
G01X116495D01*
G01X116401Y-8587D01*
G01X116340Y-8556D01*
G01X116277Y-8493D01*
G01X116247Y-8401D01*
G01Y-8185D01*
G01X116897Y-8919D02*
G01X116247Y-8919D01*
G01X116897Y-8919D02*
G01X116897Y-9135D01*
G01X116866Y-9229D01*
G01X116805Y-9290D01*
G01X116742Y-9321D01*
G01X116650Y-9351D01*
G01X116495D01*
G01X116401Y-9321D01*
G01X116340Y-9290D01*
G01X116277Y-9229D01*
G01X116247Y-9135D01*
G01Y-8919D01*
G01X116897Y-9714D02*
G01X116897Y-10055D01*
G01X116650Y-9869D01*
G01Y-9963D01*
G01X116620Y-10024D01*
G01X116587Y-10055D01*
G01X116495Y-10085D01*
G01X116432D01*
G01X116340Y-10055D01*
G01X116277Y-9994D01*
G01X116247Y-9900D01*
G01Y-9808D01*
G01X116277Y-9714D01*
G01X116310Y-9684D01*
G01X116371Y-9653D01*
G01X116897Y-10448D02*
G01X116897Y-10789D01*
G01X116650Y-10603D01*
G01Y-10697D01*
G01X116620Y-10758D01*
G01X116587Y-10789D01*
G01X116495Y-10822D01*
G01X116432D01*
G01X116340Y-10789D01*
G01X116277Y-10728D01*
G01X116247Y-10634D01*
G01Y-10542D01*
G01X116277Y-10448D01*
G01X116310Y-10418D01*
G01X116371Y-10387D01*
G04 //text: U5*
G01X116246Y13968D02*
G01X115781Y13968D01*
G01X115690Y13937D01*
G01X115626Y13874D01*
G01X115596Y13782D01*
G01Y13719D01*
G01X115626Y13627D01*
G01X115690Y13566D01*
G01X115781Y13533D01*
G01X116246D01*
G01X116246Y12863D02*
G01X116246Y13170D01*
G01X115969Y13203D01*
G01X116000Y13170D01*
G01X116030Y13079D01*
G01Y12985D01*
G01X116000Y12893D01*
G01X115936Y12830D01*
G01X115845Y12799D01*
G01X115781D01*
G01X115690Y12830D01*
G01X115626Y12893D01*
G01X115596Y12985D01*
G01Y13079D01*
G01X115626Y13170D01*
G01X115659Y13203D01*
G01X115720Y13234D01*
G04 Text End*

G04 PolygonModel Start*
G54D13*
G01X112525Y23422D02*
G01X112525Y21428D01*
G01X112525Y26851D02*
G01X112525Y25378D01*
G01X121597Y23419D02*
G01X121597Y21432D01*
G01X121597Y27000D02*
G01X121597Y25382D01*
G01X112597Y27000D02*
G01X121597Y27000D01*
G01X106861Y-22310D02*
G01X127361Y-22310D01*
G01X127359Y-22310D02*
G01X127359Y-31110D01*
G01X106861Y-22299D02*
G01X106861Y-31099D01*
G01X106861Y-31124D02*
G01X127361Y-31124D01*
G01X124184Y-22259D02*
G01X124819Y-21624D01*
G01X124819Y-21624D02*
G01X125505Y-22310D01*
G01X125505Y-22310D02*
G01X125505Y-22336D01*
G01X107407Y-22183D02*
G01X107407Y-21523D01*
G01X107407Y-21523D02*
G01X107992Y-21523D01*
G01X107992Y-21523D02*
G01X107992Y-22183D01*
G01X126254Y-22158D02*
G01X126254Y-21726D01*
G01X126254Y-21726D02*
G01X126838Y-21726D01*
G01X126838Y-21726D02*
G01X126838Y-22132D01*
G01X114557Y-29206D02*
G01X119637Y-29206D01*
G01X119637Y-29206D02*
G01X119637Y-31035D01*
G01X119637Y-31035D02*
G01X119663Y-31061D01*
G01X114507Y-29206D02*
G01X114507Y-31010D01*
G01X114507Y-31010D02*
G01X114481Y-31035D01*
G54D12*
G01X112002Y8381D02*
G01X111444Y8940D01*
G01X111829Y9965D02*
G01X111270Y10524D01*
G01X110565Y9819D02*
G01X111124Y9260D01*
G01X111055Y10524D02*
G01X110565Y10034D01*
G01X112149Y9645D02*
G01X112708Y9086D01*
G01X112708Y8871D02*
G01X112218Y8381D01*
G01X111270Y10524D02*
G03X111055Y10524I-108J-108D01*
G01X110565Y10034D02*
G03X110565Y9819I108J-108D01*
G01X112708Y9086D02*
G02X112708Y8871I-108J-108D01*
G01X112218Y8381D02*
G02X112002Y8381I-108J108D01*
G01X114494Y11412D02*
G01X115284Y11412D01*
G01X115736Y10414D02*
G01X116526Y10414D01*
G01X116526Y11412D02*
G01X115736Y11412D01*
G01X116679Y10567D02*
G01X116679Y11259D01*
G01X115284Y10414D02*
G01X114494Y10414D01*
G01X114341Y10567D02*
G01X114341Y11259D01*
G01X116526Y10414D02*
G03X116679Y10567I0J152D01*
G01X116679Y11259D02*
G03X116526Y11412I-152J0D01*
G01X114494Y10414D02*
G02X114341Y10567I0J152D01*
G01X114341Y11259D02*
G02X114494Y11412I152J0D01*
G01X117034Y10414D02*
G01X117824Y10414D01*
G01X117824Y11412D02*
G01X117034Y11412D01*
G01X116881Y11259D02*
G01X116881Y10567D01*
G01X119066Y10414D02*
G01X118276Y10414D01*
G01X118276Y11412D02*
G01X119066Y11412D01*
G01X119219Y11259D02*
G01X119219Y10567D01*
G01X117034Y11412D02*
G03X116881Y11259I0J-152D01*
G01X116881Y10567D02*
G03X117034Y10414I152J0D01*
G01X119066Y11412D02*
G02X119219Y11259I0J-152D01*
G01X119219Y10567D02*
G02X119066Y10414I-152J0D01*
G01X113913Y-5887D02*
G01X113913Y-6605D01*
G01X113913Y-6605D02*
G01X112916Y-6605D01*
G01X112916Y-6605D02*
G01X112916Y-5887D01*
G01X113913Y-5434D02*
G01X113913Y-4716D01*
G01X113913Y-4716D02*
G01X112916Y-4716D01*
G01X112916Y-4716D02*
G01X112916Y-5434D01*
G01X117112Y-12447D02*
G01X117671Y-11888D01*
G01X116966Y-11183D02*
G01X116407Y-11742D01*
G01X116407Y-11957D02*
G01X116897Y-12447D01*
G01X118550Y-11009D02*
G01X117991Y-11568D01*
G01X117286Y-10863D02*
G01X117844Y-10304D01*
G01X118060Y-10304D02*
G01X118550Y-10794D01*
G01X116407Y-11742D02*
G03X116407Y-11957I108J-108D01*
G01X116897Y-12447D02*
G03X117112Y-12447I108J108D01*
G01X117844Y-10304D02*
G02X118060Y-10304I108J-108D01*
G01X118550Y-10794D02*
G02X118550Y-11009I-108J-108D01*
G54D14*
G01X112158Y7859D02*
G01X112697Y7320D01*
G01X113947Y6070D02*
G01X113408Y6609D01*
G01X114881Y7004D02*
G01X114342Y7543D01*
G54D12*
G01X114881Y7004D02*
G01X114881Y6789D01*
G01X114881Y6789D02*
G01X114162Y6070D01*
G01X114162Y6070D02*
G01X113947Y6070D01*
G54D14*
G01X113092Y8793D02*
G01X113631Y8255D01*
G54D12*
G01X112158Y7859D02*
G01X112158Y8075D01*
G01X112158Y8075D02*
G01X112876Y8793D01*
G01X112876Y8793D02*
G01X113092Y8793D01*
G54D14*
G01X114541Y4794D02*
G01X114541Y4205D01*
G01X113686Y5749D02*
G01X113397Y5749D01*
G01X112541Y4205D02*
G01X112541Y4794D01*
G01X113686Y3249D02*
G01X113397Y3249D01*
G54D12*
G01X121733Y15240D02*
G01X120943Y15240D01*
G01X120491Y16238D02*
G01X119701Y16238D01*
G01X119701Y15240D02*
G01X120491Y15240D01*
G01X119548Y16085D02*
G01X119548Y15393D01*
G01X120943Y16238D02*
G01X121733Y16238D01*
G01X121886Y16085D02*
G01X121886Y15393D01*
G01X119701Y16238D02*
G03X119548Y16085I0J-152D01*
G01X119548Y15393D02*
G03X119701Y15240I152J0D01*
G01X121733Y16238D02*
G02X121886Y16085I0J-152D01*
G01X121886Y15393D02*
G02X121733Y15240I-152J0D01*
G01X121606Y10414D02*
G01X120816Y10414D01*
G01X120364Y11412D02*
G01X119574Y11412D01*
G01X119574Y10414D02*
G01X120364Y10414D01*
G01X119421Y11259D02*
G01X119421Y10567D01*
G01X120816Y11412D02*
G01X121606Y11412D01*
G01X121759Y11259D02*
G01X121759Y10567D01*
G01X119574Y11412D02*
G03X119421Y11259I0J-152D01*
G01X119421Y10567D02*
G03X119574Y10414I152J0D01*
G01X121606Y11412D02*
G02X121759Y11259I0J-152D01*
G01X121759Y10567D02*
G02X121606Y10414I-152J0D01*
G01X117671Y-14428D02*
G01X117163Y-14936D01*
G01X117163Y-14936D02*
G01X116458Y-14231D01*
G01X116458Y-14231D02*
G01X116966Y-13723D01*
G01X117991Y-14108D02*
G01X118499Y-13600D01*
G01X118499Y-13600D02*
G01X117794Y-12895D01*
G01X117794Y-12895D02*
G01X117286Y-13403D01*
G01X113480Y-15571D02*
G01X112972Y-16079D01*
G01X112972Y-16079D02*
G01X112267Y-15374D01*
G01X112267Y-15374D02*
G01X112775Y-14866D01*
G01X113800Y-15251D02*
G01X114308Y-14743D01*
G01X114308Y-14743D02*
G01X113603Y-14038D01*
G01X113603Y-14038D02*
G01X113095Y-14546D01*
G01X123674Y6141D02*
G01X124392Y6141D01*
G01X124392Y6141D02*
G01X124392Y5144D01*
G01X124392Y5144D02*
G01X123674Y5144D01*
G01X123221Y6141D02*
G01X122503Y6141D01*
G01X122503Y6141D02*
G01X122503Y5144D01*
G01X122503Y5144D02*
G01X123221Y5144D01*
G01X111133Y-4706D02*
G01X111641Y-5214D01*
G01X111641Y-5214D02*
G01X110936Y-5919D01*
G01X110936Y-5919D02*
G01X110428Y-5411D01*
G01X110813Y-4386D02*
G01X110305Y-3878D01*
G01X110305Y-3878D02*
G01X109600Y-4583D01*
G01X109600Y-4583D02*
G01X110108Y-5091D01*
G01X122277Y-15449D02*
G01X122995Y-15449D01*
G01X122995Y-15449D02*
G01X122995Y-16446D01*
G01X122995Y-16446D02*
G01X122277Y-16446D01*
G01X121824Y-15449D02*
G01X121106Y-15449D01*
G01X121106Y-15449D02*
G01X121106Y-16446D01*
G01X121106Y-16446D02*
G01X121824Y-16446D01*
G01X117869Y-5053D02*
G01X117869Y-4335D01*
G01X117869Y-4335D02*
G01X118866Y-4335D01*
G01X118866Y-4335D02*
G01X118866Y-5053D01*
G01X117869Y-5506D02*
G01X117869Y-6224D01*
G01X117869Y-6224D02*
G01X118866Y-6224D01*
G01X118866Y-6224D02*
G01X118866Y-5506D01*
G01X115406Y9158D02*
G01X115914Y8650D01*
G01X115914Y8650D02*
G01X115208Y7945D01*
G01X115208Y7945D02*
G01X114701Y8453D01*
G01X115086Y9478D02*
G01X114578Y9986D01*
G01X114578Y9986D02*
G01X113873Y9280D01*
G01X113873Y9280D02*
G01X114381Y8773D01*
G01X124200Y20581D02*
G01X124200Y19863D01*
G01X124200Y19863D02*
G01X123203Y19863D01*
G01X123203Y19863D02*
G01X123203Y20581D01*
G01X124200Y21033D02*
G01X124200Y21752D01*
G01X124200Y21752D02*
G01X123203Y21752D01*
G01X123203Y21752D02*
G01X123203Y21033D01*
G54D13*
G01X119182Y11903D02*
G01X120982Y11903D01*
G01X119182Y13053D02*
G01X119182Y13853D01*
G01X119182Y15003D02*
G01X120982Y15003D01*
G54D12*
G01X117161Y16238D02*
G01X117951Y16238D01*
G01X118403Y15240D02*
G01X119193Y15240D01*
G01X119193Y16238D02*
G01X118403Y16238D01*
G01X119346Y15393D02*
G01X119346Y16085D01*
G01X117951Y15240D02*
G01X117161Y15240D01*
G01X117008Y15393D02*
G01X117008Y16085D01*
G01X119193Y15240D02*
G03X119346Y15393I0J152D01*
G01X119346Y16085D02*
G03X119193Y16238I-152J0D01*
G01X117161Y15240D02*
G02X117008Y15393I0J152D01*
G01X117008Y16085D02*
G02X117161Y16238I152J0D01*
G01X114240Y16238D02*
G01X115030Y16238D01*
G01X115482Y15240D02*
G01X116272Y15240D01*
G01X116272Y16238D02*
G01X115482Y16238D01*
G01X116425Y15393D02*
G01X116425Y16085D01*
G01X115030Y15240D02*
G01X114240Y15240D01*
G01X114087Y15393D02*
G01X114087Y16085D01*
G01X116272Y15240D02*
G03X116425Y15393I0J152D01*
G01X116425Y16085D02*
G03X116272Y16238I-152J0D01*
G01X114240Y15240D02*
G02X114087Y15393I0J152D01*
G01X114087Y16085D02*
G02X114240Y16238I152J0D01*
G01X112852Y11929D02*
G01X112852Y12719D01*
G01X113850Y13171D02*
G01X113850Y13961D01*
G01X112852Y13961D02*
G01X112852Y13171D01*
G01X113697Y14114D02*
G01X113005Y14114D01*
G01X113850Y12719D02*
G01X113850Y11929D01*
G01X113697Y11776D02*
G01X113005Y11776D01*
G01X113850Y13961D02*
G03X113697Y14114I-152J0D01*
G01X113005Y14114D02*
G03X112852Y13961I0J-152D01*
G01X113850Y11929D02*
G02X113697Y11776I-152J0D01*
G01X113005Y11776D02*
G02X112852Y11929I0J152D01*
G01X113850Y14469D02*
G01X113850Y15259D01*
G01X112852Y15259D02*
G01X112852Y14469D01*
G01X113005Y14316D02*
G01X113697Y14316D01*
G01X113850Y16501D02*
G01X113850Y15711D01*
G01X112852Y15711D02*
G01X112852Y16501D01*
G01X113005Y16654D02*
G01X113697Y16654D01*
G01X112852Y14469D02*
G03X113005Y14316I152J0D01*
G01X113697Y14316D02*
G03X113850Y14469I0J152D01*
G01X112852Y16501D02*
G02X113005Y16654I152J0D01*
G01X113697Y16654D02*
G02X113850Y16501I0J-152D01*
G01X116183Y-6214D02*
G01X116183Y-7173D01*
G01X116183Y-7173D02*
G01X117504Y-7173D01*
G01X117504Y-7173D02*
G01X117504Y-6214D01*
G01X116183Y-5361D02*
G01X116183Y-4402D01*
G01X116183Y-4402D02*
G01X117504Y-4402D01*
G01X117504Y-4402D02*
G01X117504Y-5361D01*
G01X120428Y-3083D02*
G01X120428Y-3657D01*
G01X120428Y-3657D02*
G01X119854Y-3657D01*
G01X114275Y-3083D02*
G01X114275Y-3657D01*
G01X114275Y-3657D02*
G01X114849Y-3657D01*
G01X120428Y1922D02*
G01X120428Y2496D01*
G01X120428Y2496D02*
G01X119854Y2496D01*
G01X114275Y1922D02*
G01X114275Y2496D01*
G01X114275Y2496D02*
G01X114849Y2496D01*
G01X111627Y-7538D02*
G01X111627Y-8256D01*
G01X111627Y-8256D02*
G01X110630Y-8256D01*
G01X110630Y-8256D02*
G01X110630Y-7538D01*
G01X111627Y-7085D02*
G01X111627Y-6367D01*
G01X111627Y-6367D02*
G01X110630Y-6367D01*
G01X110630Y-6367D02*
G01X110630Y-7085D01*
G01X111119Y21672D02*
G01X111119Y20954D01*
G01X111119Y20954D02*
G01X110122Y20954D01*
G01X110122Y20954D02*
G01X110122Y21672D01*
G01X111119Y22125D02*
G01X111119Y22843D01*
G01X111119Y22843D02*
G01X110122Y22843D01*
G01X110122Y22843D02*
G01X110122Y22125D01*
G01X123305Y11794D02*
G01X122747Y11235D01*
G01X123452Y10530D02*
G01X124011Y11089D01*
G01X124011Y11304D02*
G01X123521Y11794D01*
G01X121868Y10356D02*
G01X122427Y10915D01*
G01X123132Y10210D02*
G01X122573Y9651D01*
G01X122358Y9651D02*
G01X121868Y10141D01*
G01X124011Y11089D02*
G03X124011Y11304I-108J108D01*
G01X123521Y11794D02*
G03X123305Y11794I-108J-108D01*
G01X122573Y9651D02*
G02X122358Y9651I-108J108D01*
G01X121868Y10141D02*
G02X121868Y10356I108J108D01*
G54D14*
G01X117872Y18510D02*
G01X117872Y16986D01*
G01X122190Y18510D02*
G01X122190Y16986D01*
G54D12*
G01X121809Y18764D02*
G01X120539Y18764D01*
G01X118253Y18764D02*
G01X119486Y18764D01*
G01X119523Y16732D02*
G01X118253Y16732D01*
G01X120539Y16732D02*
G01X121809Y16732D01*
G54D14*
G01X120031Y17748D02*
G02X120031Y17367I0J-190D01*
G01X120031Y17748D02*
G02X120031Y18129I0J191D01*
G54D12*
G01X117677Y6165D02*
G01X118236Y6724D01*
G01X119261Y6339D02*
G01X119820Y6898D01*
G01X119114Y7603D02*
G01X118556Y7044D01*
G01X119820Y7113D02*
G01X119330Y7603D01*
G01X118941Y6019D02*
G01X118382Y5460D01*
G01X118167Y5460D02*
G01X117677Y5950D01*
G01X119820Y6898D02*
G03X119820Y7113I-108J108D01*
G01X119330Y7603D02*
G03X119114Y7603I-108J-108D01*
G01X118382Y5460D02*
G02X118167Y5460I-108J108D01*
G01X117677Y5950D02*
G02X117677Y6165I108J108D01*
G54D13*
G01X115002Y13072D02*
G01X115002Y13872D01*
G01X115002Y11802D02*
G01X116802Y11802D01*
G01X114921Y14975D02*
G01X116721Y14975D01*
G54D12*
G01X123674Y4490D02*
G01X124392Y4490D01*
G01X124392Y4490D02*
G01X124392Y3493D01*
G01X124392Y3493D02*
G01X123674Y3493D01*
G01X123221Y4490D02*
G01X122503Y4490D01*
G01X122503Y4490D02*
G01X122503Y3493D01*
G01X122503Y3493D02*
G01X123221Y3493D01*
G01X123203Y24157D02*
G01X123203Y24875D01*
G01X123203Y24875D02*
G01X124200Y24875D01*
G01X124200Y24875D02*
G01X124200Y24157D01*
G01X123203Y23704D02*
G01X123203Y22986D01*
G01X123203Y22986D02*
G01X124200Y22986D01*
G01X124200Y22986D02*
G01X124200Y23704D01*
G01X123946Y14913D02*
G01X123946Y15703D01*
G01X122949Y15703D02*
G01X122949Y14913D01*
G01X123101Y14761D02*
G01X123794Y14761D01*
G01X123946Y16946D02*
G01X123946Y16156D01*
G01X122949Y16156D02*
G01X122949Y16946D01*
G01X123101Y17098D02*
G01X123794Y17098D01*
G01X122949Y14913D02*
G03X123101Y14761I152J0D01*
G01X123794Y14761D02*
G03X123946Y14913I0J152D01*
G01X122949Y16946D02*
G02X123101Y17098I152J0D01*
G01X123794Y17098D02*
G02X123946Y16946I0J-152D01*
G54D13*
G01X112972Y-9479D02*
G01X112962Y-7999D01*
G01X114862Y-9339D02*
G01X114862Y-7999D01*
G01X112962Y-7999D02*
G01X114862Y-7999D01*
G01X114872Y-11729D02*
G01X114872Y-11729D01*
G01X114872Y-11729D02*
G01X114522Y-12079D01*
G01X112972Y-11729D02*
G01X112972Y-11729D01*
G01X112972Y-11729D02*
G01X113322Y-12079D01*
G01X112972Y-10479D02*
G01X112972Y-11729D01*
G01X114872Y-10479D02*
G01X114872Y-11729D01*
G01X113322Y-12079D02*
G01X114522Y-12079D01*
G01X113422Y-9679D02*
G01X114422Y-9679D01*
G01X113927Y-9679D02*
G01X113927Y-10179D01*
G54D12*
G01X119854Y4490D02*
G01X120644Y4490D01*
G01X121097Y3493D02*
G01X121887Y3493D01*
G01X121887Y4490D02*
G01X121097Y4490D01*
G01X122039Y3645D02*
G01X122039Y4338D01*
G01X120644Y3493D02*
G01X119854Y3493D01*
G01X119702Y3645D02*
G01X119702Y4338D01*
G01X121887Y3493D02*
G03X122039Y3645I0J152D01*
G01X122039Y4338D02*
G03X121887Y4490I-152J0D01*
G01X119854Y3493D02*
G02X119702Y3645I0J152D01*
G01X119702Y4338D02*
G02X119854Y4490I152J0D01*
G04 PolygonModel End*

G04 Circle Start*
G54D16*
G01X112091Y5624D02*
G03X112241Y5624I75J0D01*
G03X112091I-75J0D01*
G54D13*
G01X121479Y11802D02*
G03X121733Y11802I127J0D01*
G03X121479I-127J0D01*
G54D16*
G01X119476Y2959D02*
G03X119626Y2959I75J0D01*
G03X119476I-75J0D01*
G54D13*
G01X117161Y11802D02*
G03X117415Y11802I127J0D01*
G03X117161I-127J0D01*
G04 Circle End*

M02*
