G04 Layer: InnerLayer3*
G04 EasyEDA Pro v1.9.26, 2023-01-09 17:51:20*
G04 Gerber Generator version 0.3*
G04 Scale: 100 percent, Rotated: No, Reflected: No*
G04 Dimensions in millimeters*
G04 Leading zeros omitted, absolute positions, 3 integers and 3 decimals*
%FSLAX33Y33*%
%MOMM*%
%AMOval*1,1,$1,$2,$3*1,1,$1,$4,$5*20,1,$1,$2,$3,$4,$5,0*%
%ADD999C,0.2032*%
%ADD10C,0.254*%
%ADD11C,0.762*%
%ADD12C,0.00508*%
%ADD13Oval,1.199998X0.0X-0.399999X0.0X0.399999*%
%ADD14Oval,1.2034X0.0X-0.299999X0.0X0.299999*%
%ADD15Oval,1.199998X0.0X-0.299999X0.0X0.299999*%
%ADD16C,1.799996*%
%ADD17R,1.799996X1.799996*%
%ADD18R,1.599997X1.650009*%
%ADD19C,1.650009*%
%ADD20C,0.610001*%
%ADD21C,0.450002*%
%ADD22C,0.499999*%
%ADD23C,0.599999*%
%ADD24C,0.6096*%
G75*


G04 Copper Start*
G36*
G01X128996Y-19143D02*
G02X127267Y-22988I-5140J0D01*
G01X107003D01*
G02X105274Y-19143I3411J3845D01*
G01Y21483D01*
G02X110415Y26623I5140J0D01*
G01X123855D01*
G02X128996Y21483I0J-5140D01*
G01Y-19143D01*
G37*
%LPC*%
G36*
G01X116843Y-5617D02*
G03X117427Y-5034I0J583D01*
G03X116958Y-4462I-583J0D01*
G01X115805Y-3309D01*
G01Y5619D01*
G03X115662Y5962I-485J0D01*
G01X113594Y8030D01*
G03X113023Y8499I-572J-114D01*
G03X112439Y7915I0J-583D01*
G03X112908Y7344I583J0D01*
G01X113941Y6311D01*
G01X112687D01*
G03X111982Y5606I0J-705D01*
G01Y3377D01*
G03X112687Y2672I705J0D01*
G01X114306D01*
G03X114834Y2909I0J705D01*
G01Y-3510D01*
G03X114976Y-3853I485J0D01*
G01X116272Y-5148D01*
G03X116843Y-5617I572J114D01*
G37*
G36*
G01X120464Y19800D02*
G03X121422Y18842I958J0D01*
G03X122381Y19800I0J958D01*
G01Y20600D01*
G03X122162Y21210I-958J0D01*
G01Y23491D01*
G03X122381Y24100I-739J610D01*
G01Y24700D01*
G03X121422Y25659I-958J0D01*
G03X120464Y24700I0J-958D01*
G01Y24100D01*
G03X120683Y23491I958J0D01*
G01Y21210D01*
G03X120595Y21084I739J-610D01*
G03X119987Y21429I-608J-363D01*
G03X119279Y20721I0J-708D01*
G03X119987Y20012I708J0D01*
G03X120464Y20197I0J708D01*
G01Y19800D01*
G37*
G36*
G01X112772Y18842D02*
G03X113731Y19800I0J958D01*
G01Y20197D01*
G03X114207Y20012I477J524D01*
G03X114915Y20721I0J708D01*
G03X114207Y21429I-708J0D01*
G03X113600Y21084I0J-708D01*
G03X113512Y21210I-827J-484D01*
G01Y23491D01*
G03X113731Y24100I-739J610D01*
G01Y24700D01*
G03X112772Y25659I-958J0D01*
G03X111814Y24700I0J-958D01*
G01Y24100D01*
G03X112033Y23491I958J0D01*
G01Y21210D01*
G03X111814Y20600I739J-610D01*
G01Y19800D01*
G03X112772Y18842I958J0D01*
G37*
G36*
G01X121006Y16107D02*
G03X121669Y15444I663J0D01*
G01X124032D01*
G03X124695Y16107I0J663D01*
G01Y17530D01*
G03X124032Y18193I-663J0D01*
G01X121680D01*
G03X121097Y18773I-583J-3D01*
G03X120514Y18189I0J-583D01*
G03X121012Y17613I583J0D01*
G03X121006Y17530I658J-83D01*
G01Y16107D01*
G37*
G36*
G01X124804Y-8201D02*
G03X125987Y-9384I1183J0D01*
G03X127171Y-8201I0J1183D01*
G03X125987Y-7017I-1183J0D01*
G03X125298Y-7239I0J-1183D01*
G03X125301Y-7185I-581J54D01*
G03X124717Y-6601I-583J0D01*
G03X124134Y-7185I0J-583D01*
G03X124717Y-7768I583J0D01*
G03X124898Y-7739I0J583D01*
G03X124804Y-8201I1089J-462D01*
G37*
G36*
G01X115839Y-20139D02*
G03X117097Y-21397I1258J0D01*
G03X118356Y-20139I0J1258D01*
G03X117097Y-18880I-1258J0D01*
G03X115839Y-20139I0J-1258D01*
G37*
G36*
G01X117097Y-18857D02*
G03X118356Y-17599I0J1258D01*
G03X117097Y-16340I-1258J0D01*
G03X115839Y-17599I0J-1258D01*
G03X117097Y-18857I1258J0D01*
G37*
G36*
G01X113299Y-20139D02*
G03X114557Y-21397I1258J0D01*
G03X115816Y-20139I0J1258D01*
G03X114557Y-18880I-1258J0D01*
G03X113299Y-20139I0J-1258D01*
G37*
G36*
G01X120919Y-18499D02*
G03X121277Y-18857I358J0D01*
G01X123077D01*
G03X123436Y-18499I0J358D01*
G01Y-16699D01*
G03X123077Y-16340I-358J0D01*
G01X121277D01*
G03X120919Y-16699I0J-358D01*
G01Y-18499D01*
G37*
G36*
G01X110759Y-17599D02*
G03X112017Y-18857I1258J0D01*
G03X113276Y-17599I0J1258D01*
G03X112017Y-16340I-1258J0D01*
G03X110759Y-17599I0J-1258D01*
G37*
G36*
G01X119637Y-18857D02*
G03X120896Y-17599I0J1258D01*
G03X119637Y-16340I-1258J0D01*
G03X118379Y-17599I0J-1258D01*
G03X119637Y-18857I1258J0D01*
G37*
G36*
G01X114557Y-18857D02*
G03X115816Y-17599I0J1258D01*
G03X114557Y-16340I-1258J0D01*
G03X113299Y-17599I0J-1258D01*
G03X114557Y-18857I1258J0D01*
G37*
G36*
G01X119637Y-21397D02*
G03X120896Y-20139I0J1258D01*
G03X119637Y-18880I-1258J0D01*
G03X118379Y-20139I0J-1258D01*
G03X119637Y-21397I1258J0D01*
G37*
G36*
G01X110759Y-20139D02*
G03X112017Y-21397I1258J0D01*
G03X113276Y-20139I0J1258D01*
G03X112017Y-18880I-1258J0D01*
G03X110759Y-20139I0J-1258D01*
G37*
G36*
G01X120919Y-20139D02*
G03X122177Y-21397I1258J0D01*
G03X123436Y-20139I0J1258D01*
G03X122177Y-18880I-1258J0D01*
G03X120919Y-20139I0J-1258D01*
G37*
G36*
G01X124804Y-18361D02*
G03X125987Y-19544I1183J0D01*
G03X127171Y-18361I0J1183D01*
G03X125987Y-17177I-1183J0D01*
G03X124804Y-18361I0J-1183D01*
G37*
G36*
G01X125987Y16016D02*
G03X127171Y17199I0J1183D01*
G03X125987Y18383I-1183J0D01*
G03X124804Y17199I0J-1183D01*
G03X125987Y16016I1183J0D01*
G37*
G36*
G01X107024Y-15821D02*
G03X108207Y-17004I1183J0D01*
G03X109391Y-15821I0J1183D01*
G03X108207Y-14637I-1183J0D01*
G03X107024Y-15821I0J-1183D01*
G37*
G36*
G01X107024Y19739D02*
G03X108207Y18556I1183J0D01*
G03X109391Y19739I0J1183D01*
G03X108207Y20923I-1183J0D01*
G03X107024Y19739I0J-1183D01*
G37*
G36*
G01X125987Y-17004D02*
G03X127171Y-15821I0J1183D01*
G03X125987Y-14637I-1183J0D01*
G03X124804Y-15821I0J-1183D01*
G03X125987Y-17004I1183J0D01*
G37*
G36*
G01X124804Y19739D02*
G03X125987Y18556I1183J0D01*
G03X127171Y19739I0J1183D01*
G03X125987Y20923I-1183J0D01*
G03X124804Y19739I0J-1183D01*
G37*
G36*
G01X108207Y-14464D02*
G03X109391Y-13281I0J1183D01*
G03X108207Y-12097I-1183J0D01*
G03X107024Y-13281I0J-1183D01*
G03X108207Y-14464I1183J0D01*
G37*
G36*
G01X108207Y16016D02*
G03X109391Y17199I0J1183D01*
G03X108207Y18383I-1183J0D01*
G03X107024Y17199I0J-1183D01*
G03X108207Y16016I1183J0D01*
G37*
G36*
G01X124804Y-13281D02*
G03X125987Y-14464I1183J0D01*
G03X127171Y-13281I0J1183D01*
G03X125987Y-12097I-1183J0D01*
G03X124804Y-13281I0J-1183D01*
G37*
G36*
G01X107024Y-10741D02*
G03X108207Y-11924I1183J0D01*
G03X109391Y-10741I0J1183D01*
G03X108207Y-9557I-1183J0D01*
G03X107024Y-10741I0J-1183D01*
G37*
G36*
G01X125987Y-11924D02*
G03X127171Y-10741I0J1183D01*
G03X125987Y-9557I-1183J0D01*
G03X124804Y-10741I0J-1183D01*
G03X125987Y-11924I1183J0D01*
G37*
G36*
G01X124804Y-20901D02*
G03X125987Y-22084I1183J0D01*
G03X127171Y-20901I0J1183D01*
G03X125987Y-19717I-1183J0D01*
G03X124804Y-20901I0J-1183D01*
G37*
G36*
G01X108207Y-19544D02*
G03X109391Y-18361I0J1183D01*
G03X108207Y-17177I-1183J0D01*
G03X107024Y-18361I0J-1183D01*
G03X108207Y-19544I1183J0D01*
G37*
G36*
G01X107024Y-20901D02*
G03X108207Y-22084I1183J0D01*
G03X109391Y-20901I0J1183D01*
G03X108207Y-19717I-1183J0D01*
G03X107024Y-20901I0J-1183D01*
G37*
G36*
G01X124804Y9579D02*
G03X125987Y8396I1183J0D01*
G03X127171Y9579I0J1183D01*
G03X125987Y10763I-1183J0D01*
G03X124804Y9579I0J-1183D01*
G37*
G36*
G01X107024Y9579D02*
G03X108207Y8396I1183J0D01*
G03X109391Y9579I0J1183D01*
G03X108207Y10763I-1183J0D01*
G03X107024Y9579I0J-1183D01*
G37*
G36*
G01X125987Y13476D02*
G03X127171Y14659I0J1183D01*
G03X125987Y15843I-1183J0D01*
G03X124804Y14659I0J-1183D01*
G03X125987Y13476I1183J0D01*
G37*
G36*
G01X107024Y12119D02*
G03X108207Y10936I1183J0D01*
G03X109391Y12119I0J1183D01*
G03X108207Y13303I-1183J0D01*
G03X107024Y12119I0J-1183D01*
G37*
G36*
G01X124804Y12119D02*
G03X125987Y10936I1183J0D01*
G03X127171Y12119I0J1183D01*
G03X125987Y13303I-1183J0D01*
G03X124804Y12119I0J-1183D01*
G37*
G36*
G01X107024Y14659D02*
G03X108207Y13476I1183J0D01*
G03X109391Y14659I0J1183D01*
G03X108207Y15843I-1183J0D01*
G03X107024Y14659I0J-1183D01*
G37*
G36*
G01X107024Y-8201D02*
G03X108207Y-9384I1183J0D01*
G03X109391Y-8201I0J1183D01*
G03X108207Y-7017I-1183J0D01*
G03X107024Y-8201I0J-1183D01*
G37*
G36*
G01X125987Y5856D02*
G03X127171Y7039I0J1183D01*
G03X125987Y8223I-1183J0D01*
G03X124804Y7039I0J-1183D01*
G03X125987Y5856I1183J0D01*
G37*
G36*
G01X107024Y7039D02*
G03X108207Y5856I1183J0D01*
G03X109391Y7039I0J1183D01*
G03X108207Y8223I-1183J0D01*
G03X107024Y7039I0J-1183D01*
G37*
G36*
G01X125987Y-1764D02*
G03X127171Y-581I0J1183D01*
G03X125987Y603I-1183J0D01*
G03X124804Y-581I0J-1183D01*
G03X125987Y-1764I1183J0D01*
G37*
G36*
G01X108207Y-1764D02*
G03X109391Y-581I0J1183D01*
G03X108207Y603I-1183J0D01*
G03X107024Y-581I0J-1183D01*
G03X108207Y-1764I1183J0D01*
G37*
G36*
G01X124804Y4499D02*
G03X125987Y3316I1183J0D01*
G03X127171Y4499I0J1183D01*
G03X125987Y5683I-1183J0D01*
G03X124804Y4499I0J-1183D01*
G37*
G36*
G01X107024Y4499D02*
G03X108207Y3316I1183J0D01*
G03X109391Y4499I0J1183D01*
G03X108207Y5683I-1183J0D01*
G03X107024Y4499I0J-1183D01*
G37*
G36*
G01X124804Y1959D02*
G03X125987Y776I1183J0D01*
G03X127171Y1959I0J1183D01*
G03X125987Y3143I-1183J0D01*
G03X124804Y1959I0J-1183D01*
G37*
G36*
G01X107024Y1959D02*
G03X108207Y776I1183J0D01*
G03X109391Y1959I0J1183D01*
G03X108207Y3143I-1183J0D01*
G03X107024Y1959I0J-1183D01*
G37*
G36*
G01X125987Y-4304D02*
G03X127171Y-3121I0J1183D01*
G03X125987Y-1937I-1183J0D01*
G03X124804Y-3121I0J-1183D01*
G03X125987Y-4304I1183J0D01*
G37*
G36*
G01X108207Y-4304D02*
G03X109391Y-3121I0J1183D01*
G03X108207Y-1937I-1183J0D01*
G03X107024Y-3121I0J-1183D01*
G03X108207Y-4304I1183J0D01*
G37*
G36*
G01X125987Y-6844D02*
G03X127171Y-5661I0J1183D01*
G03X125987Y-4477I-1183J0D01*
G03X124804Y-5661I0J-1183D01*
G03X125987Y-6844I1183J0D01*
G37*
G36*
G01X107024Y-5661D02*
G03X108207Y-6844I1183J0D01*
G03X109391Y-5661I0J1183D01*
G03X108207Y-4477I-1183J0D01*
G03X107024Y-5661I0J-1183D01*
G37*
G36*
G01X126787Y21096D02*
G03X127146Y21454I0J358D01*
G01Y23104D01*
G03X126787Y23463I-358J0D01*
G01X125187D01*
G03X124829Y23104I0J-358D01*
G01Y21454D01*
G03X125187Y21096I358J0D01*
G01X126787D01*
G37*
G36*
G01X107049Y21454D02*
G03X107407Y21096I358J0D01*
G01X109007D01*
G03X109366Y21454I0J358D01*
G01Y23104D01*
G03X109007Y23463I-358J0D01*
G01X107407D01*
G03X107049Y23104I0J-358D01*
G01Y21454D01*
G37*
G36*
G01X117543Y4648D02*
G03X118126Y4065I583J0D01*
G03X118710Y4648I0J583D01*
G03X118619Y4960I-583J0D01*
G03X118702Y5259I-501J299D01*
G03X118611Y5572I-583J0D01*
G03X118819Y6019I-375J447D01*
G03X118236Y6602I-583J0D01*
G03X117653Y6019I0J-583D01*
G03X117744Y5706I583J0D01*
G03X117536Y5259I375J-447D01*
G03X117626Y4947I583J0D01*
G03X117543Y4648I501J-299D01*
G37*
G36*
G01X115199Y8076D02*
G03X115783Y8659I0J583D01*
G03X115199Y9242I-583J0D01*
G03X115170I0J-583D01*
G03Y9271I-582J30D01*
G03X114587Y9854I-583J0D01*
G03X114004Y9271I0J-583D01*
G03X114587Y8688I583J0D01*
G03X114617Y8689I0J583D01*
G03X114616Y8659I582J-30D01*
G03X115199Y8076I583J0D01*
G37*
G36*
G01X117847Y19956D02*
G03X118430Y20539I0J583D01*
G03X117847Y21123I-583J0D01*
G03X117347Y20840I0J-583D01*
G03X116847Y21123I-500J-300D01*
G03X116264Y20539I0J-583D01*
G03X116847Y19956I583J0D01*
G03X117347Y20239I0J583D01*
G03X117847Y19956I500J300D01*
G37*
G36*
G01X116112Y18380D02*
G03X116720Y17772I608J0D01*
G03X117097Y17903I0J608D01*
G03X117474Y17772I377J477D01*
G03X118083Y18380I0J608D01*
G03X117474Y18989I-608J0D01*
G03X117097Y18858I0J-608D01*
G03X116720Y18989I-377J-477D01*
G03X116112Y18380I0J-608D01*
G37*
G36*
G01X110545Y-7744D02*
G03X111128Y-8328I583J0D01*
G03X111712Y-7744I0J583D01*
G03X111523Y-7315I-583J0D01*
G03X111712Y-6886I-395J429D01*
G03X111128Y-6303I-583J0D01*
G03X110545Y-6886I0J-583D01*
G03X110734Y-7315I583J0D01*
G03X110545Y-7744I395J-429D01*
G37*
G36*
G01X117162Y13745D02*
G03X117821Y14403I0J658D01*
G03X117162Y15061I-658J0D01*
G03X116504Y14403I0J-658D01*
G03X117162Y13745I658J0D01*
G37*
G36*
G01X122406Y5642D02*
G03X123015Y5034I608J0D01*
G03X123623Y5642I0J608D01*
G03X123015Y6251I-608J0D01*
G03X122406Y5642I0J-608D01*
G37*
G36*
G01X112743Y13490D02*
G03X113351Y12882I608J0D01*
G03X113959Y13490I0J608D01*
G03X113351Y14098I-608J0D01*
G03X112743Y13490I0J-608D01*
G37*
G36*
G01X113351Y14332D02*
G03X113959Y14940I0J608D01*
G03X113351Y15548I-608J0D01*
G03X112743Y14940I0J-608D01*
G03X113351Y14332I608J0D01*
G37*
G36*
G01X117097Y8717D02*
G03X117706Y9325I0J608D01*
G03X117097Y9934I-608J0D01*
G03X116489Y9325I0J-608D01*
G03X117097Y8717I608J0D01*
G37*
G36*
G01X122742Y11108D02*
G03X123325Y10525I583J0D01*
G03X123908Y11108I0J583D01*
G03X123325Y11691I-583J0D01*
G03X122742Y11108I0J-583D01*
G37*
G36*
G01X120640Y12498D02*
G03X121223Y11915I583J0D01*
G03X121806Y12498I0J583D01*
G03X121223Y13081I-583J0D01*
G03X120640Y12498I0J-583D01*
G37*
G36*
G01X114620Y11920D02*
G03X115203Y12503I0J583D01*
G03X114620Y13086I-583J0D01*
G03X114037Y12503I0J-583D01*
G03X114620Y11920I583J0D01*
G37*
G36*
G01X111439Y9067D02*
G03X112022Y8484I583J0D01*
G03X112605Y9067I0J583D01*
G03X112022Y9650I-583J0D01*
G03X111439Y9067I0J-583D01*
G37*
G36*
G01X117864Y-11573D02*
G03X118447Y-10990I0J583D01*
G03X117864Y-10407I-583J0D01*
G03X117281Y-10990I0J-583D01*
G03X117864Y-11573I583J0D01*
G37*
G36*
G01X117784Y-14193D02*
G03X118368Y-13610I0J583D01*
G03X117784Y-13026I-583J0D01*
G03X117201Y-13610I0J-583D01*
G03X117784Y-14193I583J0D01*
G37*
G36*
G01X121183Y13817D02*
G03X121766Y14400I0J583D01*
G03X121183Y14983I-583J0D01*
G03X120600Y14400I0J-583D01*
G03X121183Y13817I583J0D01*
G37*
G36*
G01X117276Y-15264D02*
G03X117859Y-15847I583J0D01*
G03X118443Y-15264I0J583D01*
G03X117859Y-14681I-583J0D01*
G03X117276Y-15264I0J-583D01*
G37*
G36*
G01X118546Y-15137D02*
G03X119129Y-15720I583J0D01*
G03X119713Y-15137I0J583D01*
G03X119129Y-14554I-583J0D01*
G03X118546Y-15137I0J-583D01*
G37*
G36*
G01X123447Y592D02*
G03X124031Y1175I0J583D01*
G03X123447Y1758I-583J0D01*
G03X122864Y1175I0J-583D01*
G03X123447Y592I583J0D01*
G37*
G36*
G01X121494Y7980D02*
G03X122078Y8563I0J583D01*
G03X121494Y9147I-583J0D01*
G03X120911Y8563I0J-583D01*
G03X121494Y7980I583J0D01*
G37*
G36*
G01X123880Y3408D02*
G03X124463Y3991I0J583D01*
G03X123880Y4575I-583J0D01*
G03X123297Y3991I0J-583D01*
G03X123880Y3408I583J0D01*
G37*
G36*
G01X121494Y3369D02*
G03X122078Y3953I0J583D01*
G03X121494Y4536I-583J0D01*
G03X120911Y3953I0J-583D01*
G03X121494Y3369I583J0D01*
G37*
G36*
G01X116260Y-6541D02*
G03X116843Y-7124I583J0D01*
G03X117427Y-6541I0J583D01*
G03X116843Y-5958I-583J0D01*
G03X116260Y-6541I0J-583D01*
G37*
G36*
G01X113414Y-5811D02*
G03X113998Y-5228I0J583D01*
G03X113414Y-4645I-583J0D01*
G03X112831Y-5228I0J-583D01*
G03X113414Y-5811I583J0D01*
G37*
G36*
G01X123701Y22914D02*
G03X124285Y23498I0J583D01*
G03X123701Y24081I-583J0D01*
G03X123118Y23498I0J-583D01*
G03X123701Y22914I583J0D01*
G37*
%LPD*%
G54D999*
G01X128996Y-19143D02*
G02X127267Y-22988I-5140J0D01*
G01X107003D01*
G02X105274Y-19143I3411J3845D01*
G01Y21483D01*
G02X110415Y26623I5140J0D01*
G01X123855D01*
G02X128996Y21483I0J-5140D01*
G01Y-19143D01*
G01X116843Y-5617D02*
G03X117427Y-5034I0J583D01*
G03X116958Y-4462I-583J0D01*
G01X115805Y-3309D01*
G01Y5619D01*
G03X115662Y5962I-485J0D01*
G01X113594Y8030D01*
G03X113023Y8499I-572J-114D01*
G03X112439Y7915I0J-583D01*
G03X112908Y7344I583J0D01*
G01X113941Y6311D01*
G01X112687D01*
G03X111982Y5606I0J-705D01*
G01Y3377D01*
G03X112687Y2672I705J0D01*
G01X114306D01*
G03X114834Y2909I0J705D01*
G01Y-3510D01*
G03X114976Y-3853I485J0D01*
G01X116272Y-5148D01*
G03X116843Y-5617I572J114D01*
G01X120464Y19800D02*
G03X121422Y18842I958J0D01*
G03X122381Y19800I0J958D01*
G01Y20600D01*
G03X122162Y21210I-958J0D01*
G01Y23491D01*
G03X122381Y24100I-739J610D01*
G01Y24700D01*
G03X121422Y25659I-958J0D01*
G03X120464Y24700I0J-958D01*
G01Y24100D01*
G03X120683Y23491I958J0D01*
G01Y21210D01*
G03X120595Y21084I739J-610D01*
G03X119987Y21429I-608J-363D01*
G03X119279Y20721I0J-708D01*
G03X119987Y20012I708J0D01*
G03X120464Y20197I0J708D01*
G01Y19800D01*
G01X112772Y18842D02*
G03X113731Y19800I0J958D01*
G01Y20197D01*
G03X114207Y20012I477J524D01*
G03X114915Y20721I0J708D01*
G03X114207Y21429I-708J0D01*
G03X113600Y21084I0J-708D01*
G03X113512Y21210I-827J-484D01*
G01Y23491D01*
G03X113731Y24100I-739J610D01*
G01Y24700D01*
G03X112772Y25659I-958J0D01*
G03X111814Y24700I0J-958D01*
G01Y24100D01*
G03X112033Y23491I958J0D01*
G01Y21210D01*
G03X111814Y20600I739J-610D01*
G01Y19800D01*
G03X112772Y18842I958J0D01*
G01X121006Y16107D02*
G03X121669Y15444I663J0D01*
G01X124032D01*
G03X124695Y16107I0J663D01*
G01Y17530D01*
G03X124032Y18193I-663J0D01*
G01X121680D01*
G03X121097Y18773I-583J-3D01*
G03X120514Y18189I0J-583D01*
G03X121012Y17613I583J0D01*
G03X121006Y17530I658J-83D01*
G01Y16107D01*
G01X124804Y-8201D02*
G03X125987Y-9384I1183J0D01*
G03X127171Y-8201I0J1183D01*
G03X125987Y-7017I-1183J0D01*
G03X125298Y-7239I0J-1183D01*
G03X125301Y-7185I-581J54D01*
G03X124717Y-6601I-583J0D01*
G03X124134Y-7185I0J-583D01*
G03X124717Y-7768I583J0D01*
G03X124898Y-7739I0J583D01*
G03X124804Y-8201I1089J-462D01*
G01X115839Y-20139D02*
G03X117097Y-21397I1258J0D01*
G03X118356Y-20139I0J1258D01*
G03X117097Y-18880I-1258J0D01*
G03X115839Y-20139I0J-1258D01*
G01X117097Y-18857D02*
G03X118356Y-17599I0J1258D01*
G03X117097Y-16340I-1258J0D01*
G03X115839Y-17599I0J-1258D01*
G03X117097Y-18857I1258J0D01*
G01X113299Y-20139D02*
G03X114557Y-21397I1258J0D01*
G03X115816Y-20139I0J1258D01*
G03X114557Y-18880I-1258J0D01*
G03X113299Y-20139I0J-1258D01*
G01X120919Y-18499D02*
G03X121277Y-18857I358J0D01*
G01X123077D01*
G03X123436Y-18499I0J358D01*
G01Y-16699D01*
G03X123077Y-16340I-358J0D01*
G01X121277D01*
G03X120919Y-16699I0J-358D01*
G01Y-18499D01*
G01X110759Y-17599D02*
G03X112017Y-18857I1258J0D01*
G03X113276Y-17599I0J1258D01*
G03X112017Y-16340I-1258J0D01*
G03X110759Y-17599I0J-1258D01*
G01X119637Y-18857D02*
G03X120896Y-17599I0J1258D01*
G03X119637Y-16340I-1258J0D01*
G03X118379Y-17599I0J-1258D01*
G03X119637Y-18857I1258J0D01*
G01X114557Y-18857D02*
G03X115816Y-17599I0J1258D01*
G03X114557Y-16340I-1258J0D01*
G03X113299Y-17599I0J-1258D01*
G03X114557Y-18857I1258J0D01*
G01X119637Y-21397D02*
G03X120896Y-20139I0J1258D01*
G03X119637Y-18880I-1258J0D01*
G03X118379Y-20139I0J-1258D01*
G03X119637Y-21397I1258J0D01*
G01X110759Y-20139D02*
G03X112017Y-21397I1258J0D01*
G03X113276Y-20139I0J1258D01*
G03X112017Y-18880I-1258J0D01*
G03X110759Y-20139I0J-1258D01*
G01X120919Y-20139D02*
G03X122177Y-21397I1258J0D01*
G03X123436Y-20139I0J1258D01*
G03X122177Y-18880I-1258J0D01*
G03X120919Y-20139I0J-1258D01*
G01X124804Y-18361D02*
G03X125987Y-19544I1183J0D01*
G03X127171Y-18361I0J1183D01*
G03X125987Y-17177I-1183J0D01*
G03X124804Y-18361I0J-1183D01*
G01X125987Y16016D02*
G03X127171Y17199I0J1183D01*
G03X125987Y18383I-1183J0D01*
G03X124804Y17199I0J-1183D01*
G03X125987Y16016I1183J0D01*
G01X107024Y-15821D02*
G03X108207Y-17004I1183J0D01*
G03X109391Y-15821I0J1183D01*
G03X108207Y-14637I-1183J0D01*
G03X107024Y-15821I0J-1183D01*
G01X107024Y19739D02*
G03X108207Y18556I1183J0D01*
G03X109391Y19739I0J1183D01*
G03X108207Y20923I-1183J0D01*
G03X107024Y19739I0J-1183D01*
G01X125987Y-17004D02*
G03X127171Y-15821I0J1183D01*
G03X125987Y-14637I-1183J0D01*
G03X124804Y-15821I0J-1183D01*
G03X125987Y-17004I1183J0D01*
G01X124804Y19739D02*
G03X125987Y18556I1183J0D01*
G03X127171Y19739I0J1183D01*
G03X125987Y20923I-1183J0D01*
G03X124804Y19739I0J-1183D01*
G01X108207Y-14464D02*
G03X109391Y-13281I0J1183D01*
G03X108207Y-12097I-1183J0D01*
G03X107024Y-13281I0J-1183D01*
G03X108207Y-14464I1183J0D01*
G01X108207Y16016D02*
G03X109391Y17199I0J1183D01*
G03X108207Y18383I-1183J0D01*
G03X107024Y17199I0J-1183D01*
G03X108207Y16016I1183J0D01*
G01X124804Y-13281D02*
G03X125987Y-14464I1183J0D01*
G03X127171Y-13281I0J1183D01*
G03X125987Y-12097I-1183J0D01*
G03X124804Y-13281I0J-1183D01*
G01X107024Y-10741D02*
G03X108207Y-11924I1183J0D01*
G03X109391Y-10741I0J1183D01*
G03X108207Y-9557I-1183J0D01*
G03X107024Y-10741I0J-1183D01*
G01X125987Y-11924D02*
G03X127171Y-10741I0J1183D01*
G03X125987Y-9557I-1183J0D01*
G03X124804Y-10741I0J-1183D01*
G03X125987Y-11924I1183J0D01*
G01X124804Y-20901D02*
G03X125987Y-22084I1183J0D01*
G03X127171Y-20901I0J1183D01*
G03X125987Y-19717I-1183J0D01*
G03X124804Y-20901I0J-1183D01*
G01X108207Y-19544D02*
G03X109391Y-18361I0J1183D01*
G03X108207Y-17177I-1183J0D01*
G03X107024Y-18361I0J-1183D01*
G03X108207Y-19544I1183J0D01*
G01X107024Y-20901D02*
G03X108207Y-22084I1183J0D01*
G03X109391Y-20901I0J1183D01*
G03X108207Y-19717I-1183J0D01*
G03X107024Y-20901I0J-1183D01*
G01X124804Y9579D02*
G03X125987Y8396I1183J0D01*
G03X127171Y9579I0J1183D01*
G03X125987Y10763I-1183J0D01*
G03X124804Y9579I0J-1183D01*
G01X107024Y9579D02*
G03X108207Y8396I1183J0D01*
G03X109391Y9579I0J1183D01*
G03X108207Y10763I-1183J0D01*
G03X107024Y9579I0J-1183D01*
G01X125987Y13476D02*
G03X127171Y14659I0J1183D01*
G03X125987Y15843I-1183J0D01*
G03X124804Y14659I0J-1183D01*
G03X125987Y13476I1183J0D01*
G01X107024Y12119D02*
G03X108207Y10936I1183J0D01*
G03X109391Y12119I0J1183D01*
G03X108207Y13303I-1183J0D01*
G03X107024Y12119I0J-1183D01*
G01X124804Y12119D02*
G03X125987Y10936I1183J0D01*
G03X127171Y12119I0J1183D01*
G03X125987Y13303I-1183J0D01*
G03X124804Y12119I0J-1183D01*
G01X107024Y14659D02*
G03X108207Y13476I1183J0D01*
G03X109391Y14659I0J1183D01*
G03X108207Y15843I-1183J0D01*
G03X107024Y14659I0J-1183D01*
G01X107024Y-8201D02*
G03X108207Y-9384I1183J0D01*
G03X109391Y-8201I0J1183D01*
G03X108207Y-7017I-1183J0D01*
G03X107024Y-8201I0J-1183D01*
G01X125987Y5856D02*
G03X127171Y7039I0J1183D01*
G03X125987Y8223I-1183J0D01*
G03X124804Y7039I0J-1183D01*
G03X125987Y5856I1183J0D01*
G01X107024Y7039D02*
G03X108207Y5856I1183J0D01*
G03X109391Y7039I0J1183D01*
G03X108207Y8223I-1183J0D01*
G03X107024Y7039I0J-1183D01*
G01X125987Y-1764D02*
G03X127171Y-581I0J1183D01*
G03X125987Y603I-1183J0D01*
G03X124804Y-581I0J-1183D01*
G03X125987Y-1764I1183J0D01*
G01X108207Y-1764D02*
G03X109391Y-581I0J1183D01*
G03X108207Y603I-1183J0D01*
G03X107024Y-581I0J-1183D01*
G03X108207Y-1764I1183J0D01*
G01X124804Y4499D02*
G03X125987Y3316I1183J0D01*
G03X127171Y4499I0J1183D01*
G03X125987Y5683I-1183J0D01*
G03X124804Y4499I0J-1183D01*
G01X107024Y4499D02*
G03X108207Y3316I1183J0D01*
G03X109391Y4499I0J1183D01*
G03X108207Y5683I-1183J0D01*
G03X107024Y4499I0J-1183D01*
G01X124804Y1959D02*
G03X125987Y776I1183J0D01*
G03X127171Y1959I0J1183D01*
G03X125987Y3143I-1183J0D01*
G03X124804Y1959I0J-1183D01*
G01X107024Y1959D02*
G03X108207Y776I1183J0D01*
G03X109391Y1959I0J1183D01*
G03X108207Y3143I-1183J0D01*
G03X107024Y1959I0J-1183D01*
G01X125987Y-4304D02*
G03X127171Y-3121I0J1183D01*
G03X125987Y-1937I-1183J0D01*
G03X124804Y-3121I0J-1183D01*
G03X125987Y-4304I1183J0D01*
G01X108207Y-4304D02*
G03X109391Y-3121I0J1183D01*
G03X108207Y-1937I-1183J0D01*
G03X107024Y-3121I0J-1183D01*
G03X108207Y-4304I1183J0D01*
G01X125987Y-6844D02*
G03X127171Y-5661I0J1183D01*
G03X125987Y-4477I-1183J0D01*
G03X124804Y-5661I0J-1183D01*
G03X125987Y-6844I1183J0D01*
G01X107024Y-5661D02*
G03X108207Y-6844I1183J0D01*
G03X109391Y-5661I0J1183D01*
G03X108207Y-4477I-1183J0D01*
G03X107024Y-5661I0J-1183D01*
G01X126787Y21096D02*
G03X127146Y21454I0J358D01*
G01Y23104D01*
G03X126787Y23463I-358J0D01*
G01X125187D01*
G03X124829Y23104I0J-358D01*
G01Y21454D01*
G03X125187Y21096I358J0D01*
G01X126787D01*
G01X107049Y21454D02*
G03X107407Y21096I358J0D01*
G01X109007D01*
G03X109366Y21454I0J358D01*
G01Y23104D01*
G03X109007Y23463I-358J0D01*
G01X107407D01*
G03X107049Y23104I0J-358D01*
G01Y21454D01*
G01X117543Y4648D02*
G03X118126Y4065I583J0D01*
G03X118710Y4648I0J583D01*
G03X118619Y4960I-583J0D01*
G03X118702Y5259I-501J299D01*
G03X118611Y5572I-583J0D01*
G03X118819Y6019I-375J447D01*
G03X118236Y6602I-583J0D01*
G03X117653Y6019I0J-583D01*
G03X117744Y5706I583J0D01*
G03X117536Y5259I375J-447D01*
G03X117626Y4947I583J0D01*
G03X117543Y4648I501J-299D01*
G01X115199Y8076D02*
G03X115783Y8659I0J583D01*
G03X115199Y9242I-583J0D01*
G03X115170I0J-583D01*
G03Y9271I-582J30D01*
G03X114587Y9854I-583J0D01*
G03X114004Y9271I0J-583D01*
G03X114587Y8688I583J0D01*
G03X114617Y8689I0J583D01*
G03X114616Y8659I582J-30D01*
G03X115199Y8076I583J0D01*
G01X117847Y19956D02*
G03X118430Y20539I0J583D01*
G03X117847Y21123I-583J0D01*
G03X117347Y20840I0J-583D01*
G03X116847Y21123I-500J-300D01*
G03X116264Y20539I0J-583D01*
G03X116847Y19956I583J0D01*
G03X117347Y20239I0J583D01*
G03X117847Y19956I500J300D01*
G01X116112Y18380D02*
G03X116720Y17772I608J0D01*
G03X117097Y17903I0J608D01*
G03X117474Y17772I377J477D01*
G03X118083Y18380I0J608D01*
G03X117474Y18989I-608J0D01*
G03X117097Y18858I0J-608D01*
G03X116720Y18989I-377J-477D01*
G03X116112Y18380I0J-608D01*
G01X110545Y-7744D02*
G03X111128Y-8328I583J0D01*
G03X111712Y-7744I0J583D01*
G03X111523Y-7315I-583J0D01*
G03X111712Y-6886I-395J429D01*
G03X111128Y-6303I-583J0D01*
G03X110545Y-6886I0J-583D01*
G03X110734Y-7315I583J0D01*
G03X110545Y-7744I395J-429D01*
G01X117162Y13745D02*
G03X117821Y14403I0J658D01*
G03X117162Y15061I-658J0D01*
G03X116504Y14403I0J-658D01*
G03X117162Y13745I658J0D01*
G01X122406Y5642D02*
G03X123015Y5034I608J0D01*
G03X123623Y5642I0J608D01*
G03X123015Y6251I-608J0D01*
G03X122406Y5642I0J-608D01*
G01X112743Y13490D02*
G03X113351Y12882I608J0D01*
G03X113959Y13490I0J608D01*
G03X113351Y14098I-608J0D01*
G03X112743Y13490I0J-608D01*
G01X113351Y14332D02*
G03X113959Y14940I0J608D01*
G03X113351Y15548I-608J0D01*
G03X112743Y14940I0J-608D01*
G03X113351Y14332I608J0D01*
G01X117097Y8717D02*
G03X117706Y9325I0J608D01*
G03X117097Y9934I-608J0D01*
G03X116489Y9325I0J-608D01*
G03X117097Y8717I608J0D01*
G01X122742Y11108D02*
G03X123325Y10525I583J0D01*
G03X123908Y11108I0J583D01*
G03X123325Y11691I-583J0D01*
G03X122742Y11108I0J-583D01*
G01X120640Y12498D02*
G03X121223Y11915I583J0D01*
G03X121806Y12498I0J583D01*
G03X121223Y13081I-583J0D01*
G03X120640Y12498I0J-583D01*
G01X114620Y11920D02*
G03X115203Y12503I0J583D01*
G03X114620Y13086I-583J0D01*
G03X114037Y12503I0J-583D01*
G03X114620Y11920I583J0D01*
G01X111439Y9067D02*
G03X112022Y8484I583J0D01*
G03X112605Y9067I0J583D01*
G03X112022Y9650I-583J0D01*
G03X111439Y9067I0J-583D01*
G01X117864Y-11573D02*
G03X118447Y-10990I0J583D01*
G03X117864Y-10407I-583J0D01*
G03X117281Y-10990I0J-583D01*
G03X117864Y-11573I583J0D01*
G01X117784Y-14193D02*
G03X118368Y-13610I0J583D01*
G03X117784Y-13026I-583J0D01*
G03X117201Y-13610I0J-583D01*
G03X117784Y-14193I583J0D01*
G01X121183Y13817D02*
G03X121766Y14400I0J583D01*
G03X121183Y14983I-583J0D01*
G03X120600Y14400I0J-583D01*
G03X121183Y13817I583J0D01*
G01X117276Y-15264D02*
G03X117859Y-15847I583J0D01*
G03X118443Y-15264I0J583D01*
G03X117859Y-14681I-583J0D01*
G03X117276Y-15264I0J-583D01*
G01X118546Y-15137D02*
G03X119129Y-15720I583J0D01*
G03X119713Y-15137I0J583D01*
G03X119129Y-14554I-583J0D01*
G03X118546Y-15137I0J-583D01*
G01X123447Y592D02*
G03X124031Y1175I0J583D01*
G03X123447Y1758I-583J0D01*
G03X122864Y1175I0J-583D01*
G03X123447Y592I583J0D01*
G01X121494Y7980D02*
G03X122078Y8563I0J583D01*
G03X121494Y9147I-583J0D01*
G03X120911Y8563I0J-583D01*
G03X121494Y7980I583J0D01*
G01X123880Y3408D02*
G03X124463Y3991I0J583D01*
G03X123880Y4575I-583J0D01*
G03X123297Y3991I0J-583D01*
G03X123880Y3408I583J0D01*
G01X121494Y3369D02*
G03X122078Y3953I0J583D01*
G03X121494Y4536I-583J0D01*
G03X120911Y3953I0J-583D01*
G03X121494Y3369I583J0D01*
G01X116260Y-6541D02*
G03X116843Y-7124I583J0D01*
G03X117427Y-6541I0J583D01*
G03X116843Y-5958I-583J0D01*
G03X116260Y-6541I0J-583D01*
G01X113414Y-5811D02*
G03X113998Y-5228I0J583D01*
G03X113414Y-4645I-583J0D01*
G03X112831Y-5228I0J-583D01*
G03X113414Y-5811I583J0D01*
G01X123701Y22914D02*
G03X124285Y23498I0J583D01*
G03X123701Y24081I-583J0D01*
G03X123118Y23498I0J-583D01*
G03X123701Y22914I583J0D01*
G54D10*
G01X122177Y-20139D02*
G01X121018Y-20139D01*
G01X122177Y-20139D02*
G01X123336Y-20139D01*
G01X122177Y-20139D02*
G01X122177Y-18979D01*
G01X122177Y-20139D02*
G01X122177Y-21298D01*
G01X112017Y-20139D02*
G01X110858Y-20139D01*
G01X112017Y-20139D02*
G01X113176Y-20139D01*
G01X112017Y-20139D02*
G01X112017Y-18979D01*
G01X112017Y-20139D02*
G01X112017Y-21298D01*
G01X125987Y17199D02*
G01X125987Y18284D01*
G01X125987Y17199D02*
G01X125987Y16115D01*
G01X125987Y17199D02*
G01X127071Y17199D01*
G01X125987Y17199D02*
G01X124903Y17199D01*
G04 Copper End*

G04 PolygonModel Start*
G54D11*
G01X121422Y24400D02*
G01X121422Y20200D01*
G01X112772Y24400D02*
G01X112772Y20200D01*
G04 PolygonModel End*

G04 Rect Start*
G36*
G01X121365Y17530D02*
G01X121365Y16107D01*
G03X121669Y15802I305J0D01*
G01X124032D01*
G03X124336Y16107I0J305D01*
G01Y17530D01*
G03X124032Y17834I-305J0D01*
G01X121669D01*
G03X121365Y17530I0J-305D01*
G37*
G54D12*
G01X121365Y17530D02*
G01X121365Y16107D01*
G03X121669Y15802I305J0D01*
G01X124032D01*
G03X124336Y16107I0J305D01*
G01Y17530D01*
G03X124032Y17834I-305J0D01*
G01X121669D01*
G03X121365Y17530I0J-305D01*
G36*
G01X112340Y5606D02*
G01X112340Y3377D01*
G03X112687Y3030I347J0D01*
G01X114306D01*
G03X114653Y3377I0J347D01*
G01Y5606D01*
G03X114306Y5953I-347J0D01*
G01X112687D01*
G03X112340Y5606I0J-347D01*
G37*
G01X112340Y5606D02*
G01X112340Y3377D01*
G03X112687Y3030I347J0D01*
G01X114306D01*
G03X114653Y3377I0J347D01*
G01Y5606D01*
G03X114306Y5953I-347J0D01*
G01X112687D01*
G03X112340Y5606I0J-347D01*
G04 Rect End*

G04 Pad Start*
G54D13*
G01X121422Y20200D03*
G01X112772Y20200D03*
G54D15*
G01X121422Y24400D03*
G01X112772Y24400D03*
G54D16*
G01X112017Y-20139D03*
G01X112017Y-17599D03*
G01X114557Y-20139D03*
G01X114557Y-17599D03*
G01X117097Y-20139D03*
G01X117097Y-17599D03*
G01X119637Y-20139D03*
G01X119637Y-17599D03*
G01X122177Y-20139D03*
G54D17*
G01X122177Y-17599D03*
G54D18*
G01X108207Y22279D03*
G54D19*
G01X108207Y19739D03*
G01X108207Y17199D03*
G01X108207Y14659D03*
G01X108207Y12119D03*
G01X108207Y9579D03*
G01X108207Y7039D03*
G01X108207Y4499D03*
G01X108207Y1959D03*
G01X108207Y-581D03*
G01X108207Y-3121D03*
G01X108207Y-5661D03*
G01X108207Y-8201D03*
G01X108207Y-10741D03*
G01X108207Y-13281D03*
G01X108207Y-15821D03*
G01X108207Y-18361D03*
G01X108207Y-20901D03*
G54D18*
G01X125987Y22279D03*
G54D19*
G01X125987Y19739D03*
G01X125987Y17199D03*
G01X125987Y14659D03*
G01X125987Y12119D03*
G01X125987Y9579D03*
G01X125987Y7039D03*
G01X125987Y4499D03*
G01X125987Y1959D03*
G01X125987Y-581D03*
G01X125987Y-3121D03*
G01X125987Y-5661D03*
G01X125987Y-8201D03*
G01X125987Y-10741D03*
G01X125987Y-13281D03*
G01X125987Y-15821D03*
G01X125987Y-18361D03*
G01X125987Y-20901D03*
G04 Pad End*

G04 Via Start*
G54D20*
G01X109625Y-10547D03*
G01X109625Y4693D03*
G01X109625Y7233D03*
G01X109625Y12313D03*
G01X127405Y-18167D03*
G01X127405Y-15627D03*
G54D21*
G01X120172Y15289D03*
G54D20*
G01X109625Y14853D03*
G54D21*
G01X121262Y10913D03*
G01X121223Y12498D03*
G01X121183Y14400D03*
G01X123325Y11108D03*
G54D22*
G01X122554Y10337D03*
G54D20*
G01X124865Y25013D03*
G54D21*
G01X123720Y20366D03*
G54D23*
G01X120297Y19650D03*
G54D21*
G01X121097Y18189D03*
G01X123701Y23498D03*
G01X122483Y-15948D03*
G01X119129Y-15137D03*
G01X117859Y-15264D03*
G01X124717Y-7185D03*
G01X117784Y-13610D03*
G01X119383Y-12773D03*
G54D20*
G01X119785Y25013D03*
G01X107085Y25013D03*
G01X109625Y25013D03*
G01X114705Y25013D03*
G01X109625Y17393D03*
G01X109625Y19933D03*
G01X109625Y22473D03*
G01X109625Y-20707D03*
G01X109625Y-15627D03*
G01X109625Y-13087D03*
G54D21*
G01X111128Y-6886D03*
G01X113414Y-5228D03*
G01X113287Y-7058D03*
G01X111128Y-7744D03*
G01X113414Y-11122D03*
G54D20*
G01X127405Y22473D03*
G01X127405Y-13087D03*
G01X127405Y-10547D03*
G01X127405Y-8007D03*
G01X127405Y-5467D03*
G01X127405Y7233D03*
G01X127405Y9773D03*
G01X127405Y12313D03*
G01X127405Y14853D03*
G01X127405Y17393D03*
G01X127405Y19933D03*
G01X127405Y-20707D03*
G54D21*
G01X118119Y5259D03*
G01X114620Y12503D03*
G01X116916Y5404D03*
G01X115199Y8659D03*
G01X114587Y9271D03*
G54D22*
G01X117097Y9325D03*
G54D21*
G01X116847Y20539D03*
G54D20*
G01X112165Y17393D03*
G54D22*
G01X116720Y18380D03*
G01X113351Y14940D03*
G54D21*
G01X113351Y16030D03*
G54D20*
G01X112165Y14853D03*
G54D21*
G01X113351Y12400D03*
G01X114965Y10913D03*
G01X111251Y9838D03*
G01X112022Y9067D03*
G01X113023Y7915D03*
G54D22*
G01X113351Y13490D03*
G54D21*
G01X118126Y4648D03*
G01X123880Y3991D03*
G01X121494Y3953D03*
G01X121494Y8563D03*
G01X118236Y6019D03*
G01X119134Y6917D03*
G54D22*
G01X123015Y5642D03*
G54D21*
G01X120494Y8563D03*
G01X117864Y-10990D03*
G01X117859Y-9392D03*
G01X116843Y-5034D03*
G01X116843Y-6541D03*
G01X120441Y-4153D03*
G01X123447Y1175D03*
G54D23*
G01X113910Y19638D03*
G54D21*
G01X117847Y20539D03*
G54D22*
G01X117474Y18380D03*
G54D21*
G01X117162Y13453D03*
G54D23*
G01X117162Y14403D03*
G54D24*
G01X117851Y-1080D03*
G01X116851Y-1080D03*
G01X117851Y-80D03*
G01X116851Y-80D03*
G04 Via End*

G04 Track Start*
G54D10*
G01X113023Y7915D02*
G01X115319Y5619D01*
G01Y-3510D01*
G01X116843Y-5034D01*
G04 Track End*

M02*
