G04 Layer: TopPasteMaskLayer*
G04 EasyEDA Pro v1.9.26, 2023-01-09 17:51:20*
G04 Gerber Generator version 0.3*
G04 Scale: 100 percent, Rotated: No, Reflected: No*
G04 Dimensions in millimeters*
G04 Leading zeros omitted, absolute positions, 3 integers and 3 decimals*
%FSLAX33Y33*%
%MOMM*%
%ADD10C,0.0254*%
%ADD11R,0.799998X0.899998*%
%ADD12R,0.799998X0.899998*%
%ADD13R,0.999998X0.599999*%
%ADD14R,0.999998X0.550012*%
%ADD15R,1.2501X0.999998*%
%ADD16R,1.25001X0.999998*%
G75*


G04 PolygonModel Start*
G36*
G01X115697Y20200D02*
G01X115697Y19100D01*
G01X115997D01*
G01Y20200D01*
G01X115697D01*
G37*
G54D10*
G01X115697Y20200D02*
G01X115697Y19100D01*
G01X115997D01*
G01Y20200D01*
G01X115697D01*
G36*
G01X115497Y19100D02*
G01X115497Y20200D01*
G01X115197D01*
G01Y19100D01*
G01X115497D01*
G37*
G01X115497Y19100D02*
G01X115497Y20200D01*
G01X115197D01*
G01Y19100D01*
G01X115497D01*
G36*
G01X120597Y19100D02*
G01X120597Y20200D01*
G01X119997D01*
G01Y19100D01*
G01X120597D01*
G37*
G01X120597Y19100D02*
G01X120597Y20200D01*
G01X119997D01*
G01Y19100D01*
G01X120597D01*
G36*
G01X116197Y20200D02*
G01X116197Y19100D01*
G01X116497D01*
G01Y20200D01*
G01X116197D01*
G37*
G01X116197Y20200D02*
G01X116197Y19100D01*
G01X116497D01*
G01Y20200D01*
G01X116197D01*
G36*
G01X114997Y19100D02*
G01X114997Y20200D01*
G01X114397D01*
G01Y19100D01*
G01X114997D01*
G37*
G01X114997Y19100D02*
G01X114997Y20200D01*
G01X114397D01*
G01Y19100D01*
G01X114997D01*
G36*
G01X113597Y20200D02*
G01X113597Y19100D01*
G01X114197D01*
G01Y20200D01*
G01X113597D01*
G37*
G01X113597Y20200D02*
G01X113597Y19100D01*
G01X114197D01*
G01Y20200D01*
G01X113597D01*
G36*
G01X116697Y20200D02*
G01X116697Y19100D01*
G01X116997D01*
G01Y20200D01*
G01X116697D01*
G37*
G01X116697Y20200D02*
G01X116697Y19100D01*
G01X116997D01*
G01Y20200D01*
G01X116697D01*
G36*
G01X117197Y20200D02*
G01X117197Y19100D01*
G01X117497D01*
G01Y20200D01*
G01X117197D01*
G37*
G01X117197Y20200D02*
G01X117197Y19100D01*
G01X117497D01*
G01Y20200D01*
G01X117197D01*
G36*
G01X119797Y19100D02*
G01X119797Y20200D01*
G01X119197D01*
G01Y19100D01*
G01X119797D01*
G37*
G01X119797Y19100D02*
G01X119797Y20200D01*
G01X119197D01*
G01Y19100D01*
G01X119797D01*
G36*
G01X117697Y20200D02*
G01X117697Y19100D01*
G01X117997D01*
G01Y20200D01*
G01X117697D01*
G37*
G01X117697Y20200D02*
G01X117697Y19100D01*
G01X117997D01*
G01Y20200D01*
G01X117697D01*
G36*
G01X118197Y20200D02*
G01X118197Y19100D01*
G01X118497D01*
G01Y20200D01*
G01X118197D01*
G37*
G01X118197Y20200D02*
G01X118197Y19100D01*
G01X118497D01*
G01Y20200D01*
G01X118197D01*
G36*
G01X118697Y20200D02*
G01X118697Y19100D01*
G01X118997D01*
G01Y20200D01*
G01X118697D01*
G37*
G01X118697Y20200D02*
G01X118697Y19100D01*
G01X118997D01*
G01Y20200D01*
G01X118697D01*
G36*
G01X112728Y19202D02*
G01X112757Y19201D01*
G01X112787D01*
G01X112817Y19202D01*
G01X112847Y19205D01*
G01X112877Y19209D01*
G01X112906Y19215D01*
G01X112935Y19223D01*
G01X112964Y19232D01*
G01X112992Y19242D01*
G01X113019Y19253D01*
G01X113046Y19266D01*
G01X113072Y19281D01*
G01X113098Y19296D01*
G01X113123Y19313D01*
G01X113147Y19331D01*
G01X113169Y19350D01*
G01X113191Y19371D01*
G01X113212Y19392D01*
G01X113232Y19415D01*
G01X113251Y19438D01*
G01X113268Y19462D01*
G01X113284Y19487D01*
G01X113299Y19513D01*
G01X113313Y19540D01*
G01X113325Y19567D01*
G01X113336Y19595D01*
G01X113346Y19623D01*
G01X113354Y19652D01*
G01X113361Y19681D01*
G01X113366Y19711D01*
G01X113369Y19741D01*
G01X113372Y19770D01*
G01Y19800D01*
G01Y20600D01*
G01Y20630D01*
G01X113369Y20660D01*
G01X113366Y20690D01*
G01X113361Y20719D01*
G01X113354Y20748D01*
G01X113346Y20777D01*
G01X113336Y20806D01*
G01X113325Y20833D01*
G01X113313Y20861D01*
G01X113299Y20887D01*
G01X113284Y20913D01*
G01X113268Y20938D01*
G01X113251Y20963D01*
G01X113232Y20986D01*
G01X113212Y21008D01*
G01X113191Y21030D01*
G01X113169Y21050D01*
G01X113147Y21069D01*
G01X113123Y21088D01*
G01X113098Y21104D01*
G01X113072Y21120D01*
G01X113046Y21134D01*
G01X113019Y21147D01*
G01X112992Y21159D01*
G01X112964Y21169D01*
G01X112935Y21178D01*
G01X112906Y21185D01*
G01X112877Y21191D01*
G01X112847Y21196D01*
G01X112817Y21199D01*
G01X112787Y21200D01*
G01X112757D01*
G01X112728Y21199D01*
G01X112698Y21196D01*
G01X112668Y21191D01*
G01X112639Y21185D01*
G01X112610Y21178D01*
G01X112581Y21169D01*
G01X112553Y21159D01*
G01X112526Y21147D01*
G01X112499Y21134D01*
G01X112472Y21120D01*
G01X112447Y21104D01*
G01X112422Y21088D01*
G01X112398Y21069D01*
G01X112375Y21050D01*
G01X112353Y21030D01*
G01X112333Y21008D01*
G01X112313Y20986D01*
G01X112294Y20963D01*
G01X112277Y20938D01*
G01X112260Y20913D01*
G01X112246Y20887D01*
G01X112232Y20861D01*
G01X112220Y20833D01*
G01X112209Y20806D01*
G01X112199Y20777D01*
G01X112191Y20748D01*
G01X112184Y20719D01*
G01X112179Y20690D01*
G01X112175Y20660D01*
G01X112173Y20630D01*
G01X112172Y20600D01*
G01Y19800D01*
G01X112173Y19770D01*
G01X112175Y19741D01*
G01X112179Y19711D01*
G01X112184Y19681D01*
G01X112191Y19652D01*
G01X112199Y19623D01*
G01X112209Y19595D01*
G01X112220Y19567D01*
G01X112232Y19540D01*
G01X112246Y19513D01*
G01X112260Y19487D01*
G01X112277Y19462D01*
G01X112294Y19438D01*
G01X112313Y19415D01*
G01X112333Y19392D01*
G01X112353Y19371D01*
G01X112375Y19350D01*
G01X112398Y19331D01*
G01X112422Y19313D01*
G01X112447Y19296D01*
G01X112472Y19281D01*
G01X112499Y19266D01*
G01X112526Y19253D01*
G01X112553Y19242D01*
G01X112581Y19232D01*
G01X112610Y19223D01*
G01X112639Y19215D01*
G01X112668Y19209D01*
G01X112698Y19205D01*
G01X112728Y19202D01*
G37*
G01X112728Y19202D02*
G01X112757Y19201D01*
G01X112787D01*
G01X112817Y19202D01*
G01X112847Y19205D01*
G01X112877Y19209D01*
G01X112906Y19215D01*
G01X112935Y19223D01*
G01X112964Y19232D01*
G01X112992Y19242D01*
G01X113019Y19253D01*
G01X113046Y19266D01*
G01X113072Y19281D01*
G01X113098Y19296D01*
G01X113123Y19313D01*
G01X113147Y19331D01*
G01X113169Y19350D01*
G01X113191Y19371D01*
G01X113212Y19392D01*
G01X113232Y19415D01*
G01X113251Y19438D01*
G01X113268Y19462D01*
G01X113284Y19487D01*
G01X113299Y19513D01*
G01X113313Y19540D01*
G01X113325Y19567D01*
G01X113336Y19595D01*
G01X113346Y19623D01*
G01X113354Y19652D01*
G01X113361Y19681D01*
G01X113366Y19711D01*
G01X113369Y19741D01*
G01X113372Y19770D01*
G01Y19800D01*
G01Y20600D01*
G01Y20630D01*
G01X113369Y20660D01*
G01X113366Y20690D01*
G01X113361Y20719D01*
G01X113354Y20748D01*
G01X113346Y20777D01*
G01X113336Y20806D01*
G01X113325Y20833D01*
G01X113313Y20861D01*
G01X113299Y20887D01*
G01X113284Y20913D01*
G01X113268Y20938D01*
G01X113251Y20963D01*
G01X113232Y20986D01*
G01X113212Y21008D01*
G01X113191Y21030D01*
G01X113169Y21050D01*
G01X113147Y21069D01*
G01X113123Y21088D01*
G01X113098Y21104D01*
G01X113072Y21120D01*
G01X113046Y21134D01*
G01X113019Y21147D01*
G01X112992Y21159D01*
G01X112964Y21169D01*
G01X112935Y21178D01*
G01X112906Y21185D01*
G01X112877Y21191D01*
G01X112847Y21196D01*
G01X112817Y21199D01*
G01X112787Y21200D01*
G01X112757D01*
G01X112728Y21199D01*
G01X112698Y21196D01*
G01X112668Y21191D01*
G01X112639Y21185D01*
G01X112610Y21178D01*
G01X112581Y21169D01*
G01X112553Y21159D01*
G01X112526Y21147D01*
G01X112499Y21134D01*
G01X112472Y21120D01*
G01X112447Y21104D01*
G01X112422Y21088D01*
G01X112398Y21069D01*
G01X112375Y21050D01*
G01X112353Y21030D01*
G01X112333Y21008D01*
G01X112313Y20986D01*
G01X112294Y20963D01*
G01X112277Y20938D01*
G01X112260Y20913D01*
G01X112246Y20887D01*
G01X112232Y20861D01*
G01X112220Y20833D01*
G01X112209Y20806D01*
G01X112199Y20777D01*
G01X112191Y20748D01*
G01X112184Y20719D01*
G01X112179Y20690D01*
G01X112175Y20660D01*
G01X112173Y20630D01*
G01X112172Y20600D01*
G01Y19800D01*
G01X112173Y19770D01*
G01X112175Y19741D01*
G01X112179Y19711D01*
G01X112184Y19681D01*
G01X112191Y19652D01*
G01X112199Y19623D01*
G01X112209Y19595D01*
G01X112220Y19567D01*
G01X112232Y19540D01*
G01X112246Y19513D01*
G01X112260Y19487D01*
G01X112277Y19462D01*
G01X112294Y19438D01*
G01X112313Y19415D01*
G01X112333Y19392D01*
G01X112353Y19371D01*
G01X112375Y19350D01*
G01X112398Y19331D01*
G01X112422Y19313D01*
G01X112447Y19296D01*
G01X112472Y19281D01*
G01X112499Y19266D01*
G01X112526Y19253D01*
G01X112553Y19242D01*
G01X112581Y19232D01*
G01X112610Y19223D01*
G01X112639Y19215D01*
G01X112668Y19209D01*
G01X112698Y19205D01*
G01X112728Y19202D01*
G36*
G01X121437Y19201D02*
G01X121467Y19202D01*
G01X121497Y19205D01*
G01X121527Y19209D01*
G01X121556Y19215D01*
G01X121585Y19223D01*
G01X121613Y19232D01*
G01X121642Y19242D01*
G01X121669Y19253D01*
G01X121696Y19266D01*
G01X121722Y19281D01*
G01X121748Y19296D01*
G01X121773Y19313D01*
G01X121796Y19331D01*
G01X121819Y19350D01*
G01X121841Y19371D01*
G01X121862Y19392D01*
G01X121882Y19415D01*
G01X121901Y19438D01*
G01X121918Y19462D01*
G01X121934Y19487D01*
G01X121949Y19513D01*
G01X121963Y19540D01*
G01X121975Y19567D01*
G01X121986Y19595D01*
G01X121996Y19623D01*
G01X122004Y19652D01*
G01X122011Y19681D01*
G01X122016Y19711D01*
G01X122019Y19741D01*
G01X122022Y19770D01*
G01Y19800D01*
G01Y20600D01*
G01Y20630D01*
G01X122019Y20660D01*
G01X122016Y20690D01*
G01X122011Y20719D01*
G01X122004Y20748D01*
G01X121996Y20777D01*
G01X121986Y20806D01*
G01X121975Y20833D01*
G01X121963Y20861D01*
G01X121949Y20887D01*
G01X121934Y20913D01*
G01X121918Y20938D01*
G01X121901Y20963D01*
G01X121882Y20986D01*
G01X121862Y21008D01*
G01X121841Y21030D01*
G01X121819Y21050D01*
G01X121796Y21069D01*
G01X121773Y21088D01*
G01X121748Y21104D01*
G01X121722Y21120D01*
G01X121696Y21134D01*
G01X121669Y21147D01*
G01X121642Y21159D01*
G01X121613Y21169D01*
G01X121585Y21178D01*
G01X121556Y21185D01*
G01X121527Y21191D01*
G01X121497Y21196D01*
G01X121467Y21199D01*
G01X121437Y21200D01*
G01X121407D01*
G01X121378Y21199D01*
G01X121348Y21196D01*
G01X121318Y21191D01*
G01X121289Y21185D01*
G01X121260Y21178D01*
G01X121231Y21169D01*
G01X121203Y21159D01*
G01X121176Y21147D01*
G01X121149Y21134D01*
G01X121122Y21120D01*
G01X121097Y21104D01*
G01X121072Y21088D01*
G01X121048Y21069D01*
G01X121025Y21050D01*
G01X121003Y21030D01*
G01X120983Y21008D01*
G01X120963Y20986D01*
G01X120944Y20963D01*
G01X120927Y20938D01*
G01X120910Y20913D01*
G01X120895Y20887D01*
G01X120882Y20861D01*
G01X120870Y20833D01*
G01X120859Y20806D01*
G01X120849Y20777D01*
G01X120841Y20748D01*
G01X120834Y20719D01*
G01X120829Y20690D01*
G01X120825Y20660D01*
G01X120823Y20630D01*
G01X120822Y20600D01*
G01Y19800D01*
G01X120823Y19770D01*
G01X120825Y19741D01*
G01X120829Y19711D01*
G01X120834Y19681D01*
G01X120841Y19652D01*
G01X120849Y19623D01*
G01X120859Y19595D01*
G01X120870Y19567D01*
G01X120882Y19540D01*
G01X120895Y19513D01*
G01X120910Y19487D01*
G01X120927Y19462D01*
G01X120944Y19438D01*
G01X120963Y19415D01*
G01X120983Y19392D01*
G01X121003Y19371D01*
G01X121025Y19350D01*
G01X121048Y19331D01*
G01X121072Y19313D01*
G01X121097Y19296D01*
G01X121122Y19281D01*
G01X121149Y19266D01*
G01X121176Y19253D01*
G01X121203Y19242D01*
G01X121231Y19232D01*
G01X121260Y19223D01*
G01X121289Y19215D01*
G01X121318Y19209D01*
G01X121348Y19205D01*
G01X121378Y19202D01*
G01X121407Y19201D01*
G01X121437D01*
G37*
G01X121437Y19201D02*
G01X121467Y19202D01*
G01X121497Y19205D01*
G01X121527Y19209D01*
G01X121556Y19215D01*
G01X121585Y19223D01*
G01X121613Y19232D01*
G01X121642Y19242D01*
G01X121669Y19253D01*
G01X121696Y19266D01*
G01X121722Y19281D01*
G01X121748Y19296D01*
G01X121773Y19313D01*
G01X121796Y19331D01*
G01X121819Y19350D01*
G01X121841Y19371D01*
G01X121862Y19392D01*
G01X121882Y19415D01*
G01X121901Y19438D01*
G01X121918Y19462D01*
G01X121934Y19487D01*
G01X121949Y19513D01*
G01X121963Y19540D01*
G01X121975Y19567D01*
G01X121986Y19595D01*
G01X121996Y19623D01*
G01X122004Y19652D01*
G01X122011Y19681D01*
G01X122016Y19711D01*
G01X122019Y19741D01*
G01X122022Y19770D01*
G01Y19800D01*
G01Y20600D01*
G01Y20630D01*
G01X122019Y20660D01*
G01X122016Y20690D01*
G01X122011Y20719D01*
G01X122004Y20748D01*
G01X121996Y20777D01*
G01X121986Y20806D01*
G01X121975Y20833D01*
G01X121963Y20861D01*
G01X121949Y20887D01*
G01X121934Y20913D01*
G01X121918Y20938D01*
G01X121901Y20963D01*
G01X121882Y20986D01*
G01X121862Y21008D01*
G01X121841Y21030D01*
G01X121819Y21050D01*
G01X121796Y21069D01*
G01X121773Y21088D01*
G01X121748Y21104D01*
G01X121722Y21120D01*
G01X121696Y21134D01*
G01X121669Y21147D01*
G01X121642Y21159D01*
G01X121613Y21169D01*
G01X121585Y21178D01*
G01X121556Y21185D01*
G01X121527Y21191D01*
G01X121497Y21196D01*
G01X121467Y21199D01*
G01X121437Y21200D01*
G01X121407D01*
G01X121378Y21199D01*
G01X121348Y21196D01*
G01X121318Y21191D01*
G01X121289Y21185D01*
G01X121260Y21178D01*
G01X121231Y21169D01*
G01X121203Y21159D01*
G01X121176Y21147D01*
G01X121149Y21134D01*
G01X121122Y21120D01*
G01X121097Y21104D01*
G01X121072Y21088D01*
G01X121048Y21069D01*
G01X121025Y21050D01*
G01X121003Y21030D01*
G01X120983Y21008D01*
G01X120963Y20986D01*
G01X120944Y20963D01*
G01X120927Y20938D01*
G01X120910Y20913D01*
G01X120895Y20887D01*
G01X120882Y20861D01*
G01X120870Y20833D01*
G01X120859Y20806D01*
G01X120849Y20777D01*
G01X120841Y20748D01*
G01X120834Y20719D01*
G01X120829Y20690D01*
G01X120825Y20660D01*
G01X120823Y20630D01*
G01X120822Y20600D01*
G01Y19800D01*
G01X120823Y19770D01*
G01X120825Y19741D01*
G01X120829Y19711D01*
G01X120834Y19681D01*
G01X120841Y19652D01*
G01X120849Y19623D01*
G01X120859Y19595D01*
G01X120870Y19567D01*
G01X120882Y19540D01*
G01X120895Y19513D01*
G01X120910Y19487D01*
G01X120927Y19462D01*
G01X120944Y19438D01*
G01X120963Y19415D01*
G01X120983Y19392D01*
G01X121003Y19371D01*
G01X121025Y19350D01*
G01X121048Y19331D01*
G01X121072Y19313D01*
G01X121097Y19296D01*
G01X121122Y19281D01*
G01X121149Y19266D01*
G01X121176Y19253D01*
G01X121203Y19242D01*
G01X121231Y19232D01*
G01X121260Y19223D01*
G01X121289Y19215D01*
G01X121318Y19209D01*
G01X121348Y19205D01*
G01X121378Y19202D01*
G01X121407Y19201D01*
G01X121437D01*
G36*
G01X121378Y23652D02*
G01X121407Y23651D01*
G01X121437D01*
G01X121467Y23652D01*
G01X121497Y23655D01*
G01X121527Y23660D01*
G01X121556Y23666D01*
G01X121585Y23673D01*
G01X121613Y23682D01*
G01X121642Y23692D01*
G01X121669Y23704D01*
G01X121696Y23717D01*
G01X121722Y23731D01*
G01X121748Y23746D01*
G01X121773Y23763D01*
G01X121796Y23781D01*
G01X121819Y23801D01*
G01X121841Y23821D01*
G01X121862Y23842D01*
G01X121882Y23865D01*
G01X121901Y23888D01*
G01X121918Y23912D01*
G01X121934Y23938D01*
G01X121949Y23964D01*
G01X121963Y23990D01*
G01X121975Y24017D01*
G01X121986Y24045D01*
G01X121996Y24074D01*
G01X122004Y24102D01*
G01X122011Y24132D01*
G01X122016Y24161D01*
G01X122019Y24191D01*
G01X122022Y24221D01*
G01Y24250D01*
G01Y24550D01*
G01Y24580D01*
G01X122019Y24610D01*
G01X122016Y24640D01*
G01X122011Y24669D01*
G01X122004Y24699D01*
G01X121996Y24727D01*
G01X121986Y24756D01*
G01X121975Y24784D01*
G01X121963Y24811D01*
G01X121949Y24837D01*
G01X121934Y24863D01*
G01X121918Y24888D01*
G01X121901Y24913D01*
G01X121882Y24936D01*
G01X121862Y24959D01*
G01X121841Y24980D01*
G01X121819Y25000D01*
G01X121796Y25020D01*
G01X121773Y25038D01*
G01X121748Y25055D01*
G01X121722Y25070D01*
G01X121696Y25084D01*
G01X121669Y25097D01*
G01X121642Y25109D01*
G01X121613Y25119D01*
G01X121585Y25128D01*
G01X121556Y25135D01*
G01X121527Y25141D01*
G01X121497Y25146D01*
G01X121467Y25149D01*
G01X121437Y25150D01*
G01X121407D01*
G01X121378Y25149D01*
G01X121348Y25146D01*
G01X121318Y25141D01*
G01X121289Y25135D01*
G01X121260Y25128D01*
G01X121231Y25119D01*
G01X121203Y25109D01*
G01X121176Y25097D01*
G01X121149Y25084D01*
G01X121122Y25070D01*
G01X121097Y25055D01*
G01X121072Y25038D01*
G01X121048Y25020D01*
G01X121025Y25000D01*
G01X121003Y24980D01*
G01X120983Y24959D01*
G01X120963Y24936D01*
G01X120944Y24913D01*
G01X120927Y24888D01*
G01X120910Y24863D01*
G01X120895Y24837D01*
G01X120882Y24811D01*
G01X120870Y24784D01*
G01X120859Y24756D01*
G01X120849Y24727D01*
G01X120841Y24699D01*
G01X120834Y24669D01*
G01X120829Y24640D01*
G01X120825Y24610D01*
G01X120823Y24580D01*
G01X120822Y24550D01*
G01Y24250D01*
G01X120823Y24221D01*
G01X120825Y24191D01*
G01X120829Y24161D01*
G01X120834Y24132D01*
G01X120841Y24102D01*
G01X120849Y24074D01*
G01X120859Y24045D01*
G01X120870Y24017D01*
G01X120882Y23990D01*
G01X120895Y23964D01*
G01X120910Y23938D01*
G01X120927Y23912D01*
G01X120944Y23888D01*
G01X120963Y23865D01*
G01X120983Y23842D01*
G01X121003Y23821D01*
G01X121025Y23801D01*
G01X121048Y23781D01*
G01X121072Y23763D01*
G01X121097Y23746D01*
G01X121122Y23731D01*
G01X121149Y23717D01*
G01X121176Y23704D01*
G01X121203Y23692D01*
G01X121231Y23682D01*
G01X121260Y23673D01*
G01X121289Y23666D01*
G01X121318Y23660D01*
G01X121348Y23655D01*
G01X121378Y23652D01*
G37*
G01X121378Y23652D02*
G01X121407Y23651D01*
G01X121437D01*
G01X121467Y23652D01*
G01X121497Y23655D01*
G01X121527Y23660D01*
G01X121556Y23666D01*
G01X121585Y23673D01*
G01X121613Y23682D01*
G01X121642Y23692D01*
G01X121669Y23704D01*
G01X121696Y23717D01*
G01X121722Y23731D01*
G01X121748Y23746D01*
G01X121773Y23763D01*
G01X121796Y23781D01*
G01X121819Y23801D01*
G01X121841Y23821D01*
G01X121862Y23842D01*
G01X121882Y23865D01*
G01X121901Y23888D01*
G01X121918Y23912D01*
G01X121934Y23938D01*
G01X121949Y23964D01*
G01X121963Y23990D01*
G01X121975Y24017D01*
G01X121986Y24045D01*
G01X121996Y24074D01*
G01X122004Y24102D01*
G01X122011Y24132D01*
G01X122016Y24161D01*
G01X122019Y24191D01*
G01X122022Y24221D01*
G01Y24250D01*
G01Y24550D01*
G01Y24580D01*
G01X122019Y24610D01*
G01X122016Y24640D01*
G01X122011Y24669D01*
G01X122004Y24699D01*
G01X121996Y24727D01*
G01X121986Y24756D01*
G01X121975Y24784D01*
G01X121963Y24811D01*
G01X121949Y24837D01*
G01X121934Y24863D01*
G01X121918Y24888D01*
G01X121901Y24913D01*
G01X121882Y24936D01*
G01X121862Y24959D01*
G01X121841Y24980D01*
G01X121819Y25000D01*
G01X121796Y25020D01*
G01X121773Y25038D01*
G01X121748Y25055D01*
G01X121722Y25070D01*
G01X121696Y25084D01*
G01X121669Y25097D01*
G01X121642Y25109D01*
G01X121613Y25119D01*
G01X121585Y25128D01*
G01X121556Y25135D01*
G01X121527Y25141D01*
G01X121497Y25146D01*
G01X121467Y25149D01*
G01X121437Y25150D01*
G01X121407D01*
G01X121378Y25149D01*
G01X121348Y25146D01*
G01X121318Y25141D01*
G01X121289Y25135D01*
G01X121260Y25128D01*
G01X121231Y25119D01*
G01X121203Y25109D01*
G01X121176Y25097D01*
G01X121149Y25084D01*
G01X121122Y25070D01*
G01X121097Y25055D01*
G01X121072Y25038D01*
G01X121048Y25020D01*
G01X121025Y25000D01*
G01X121003Y24980D01*
G01X120983Y24959D01*
G01X120963Y24936D01*
G01X120944Y24913D01*
G01X120927Y24888D01*
G01X120910Y24863D01*
G01X120895Y24837D01*
G01X120882Y24811D01*
G01X120870Y24784D01*
G01X120859Y24756D01*
G01X120849Y24727D01*
G01X120841Y24699D01*
G01X120834Y24669D01*
G01X120829Y24640D01*
G01X120825Y24610D01*
G01X120823Y24580D01*
G01X120822Y24550D01*
G01Y24250D01*
G01X120823Y24221D01*
G01X120825Y24191D01*
G01X120829Y24161D01*
G01X120834Y24132D01*
G01X120841Y24102D01*
G01X120849Y24074D01*
G01X120859Y24045D01*
G01X120870Y24017D01*
G01X120882Y23990D01*
G01X120895Y23964D01*
G01X120910Y23938D01*
G01X120927Y23912D01*
G01X120944Y23888D01*
G01X120963Y23865D01*
G01X120983Y23842D01*
G01X121003Y23821D01*
G01X121025Y23801D01*
G01X121048Y23781D01*
G01X121072Y23763D01*
G01X121097Y23746D01*
G01X121122Y23731D01*
G01X121149Y23717D01*
G01X121176Y23704D01*
G01X121203Y23692D01*
G01X121231Y23682D01*
G01X121260Y23673D01*
G01X121289Y23666D01*
G01X121318Y23660D01*
G01X121348Y23655D01*
G01X121378Y23652D01*
G36*
G01X112787Y23651D02*
G01X112817Y23652D01*
G01X112847Y23655D01*
G01X112877Y23660D01*
G01X112906Y23666D01*
G01X112935Y23673D01*
G01X112964Y23682D01*
G01X112992Y23692D01*
G01X113019Y23704D01*
G01X113046Y23717D01*
G01X113072Y23731D01*
G01X113098Y23746D01*
G01X113123Y23763D01*
G01X113147Y23781D01*
G01X113169Y23801D01*
G01X113191Y23821D01*
G01X113212Y23842D01*
G01X113232Y23865D01*
G01X113251Y23888D01*
G01X113268Y23912D01*
G01X113284Y23938D01*
G01X113299Y23964D01*
G01X113313Y23990D01*
G01X113325Y24017D01*
G01X113336Y24045D01*
G01X113346Y24074D01*
G01X113354Y24102D01*
G01X113361Y24132D01*
G01X113366Y24161D01*
G01X113369Y24191D01*
G01X113372Y24221D01*
G01Y24250D01*
G01Y24550D01*
G01Y24580D01*
G01X113369Y24610D01*
G01X113366Y24640D01*
G01X113361Y24669D01*
G01X113354Y24699D01*
G01X113346Y24727D01*
G01X113336Y24756D01*
G01X113325Y24784D01*
G01X113313Y24811D01*
G01X113299Y24837D01*
G01X113284Y24863D01*
G01X113268Y24888D01*
G01X113251Y24913D01*
G01X113232Y24936D01*
G01X113212Y24959D01*
G01X113191Y24980D01*
G01X113169Y25000D01*
G01X113147Y25020D01*
G01X113123Y25038D01*
G01X113098Y25055D01*
G01X113072Y25070D01*
G01X113046Y25084D01*
G01X113019Y25097D01*
G01X112992Y25109D01*
G01X112964Y25119D01*
G01X112935Y25128D01*
G01X112906Y25135D01*
G01X112877Y25141D01*
G01X112847Y25146D01*
G01X112817Y25149D01*
G01X112787Y25150D01*
G01X112757D01*
G01X112728Y25149D01*
G01X112698Y25146D01*
G01X112668Y25141D01*
G01X112639Y25135D01*
G01X112610Y25128D01*
G01X112581Y25119D01*
G01X112553Y25109D01*
G01X112526Y25097D01*
G01X112499Y25084D01*
G01X112472Y25070D01*
G01X112447Y25055D01*
G01X112422Y25038D01*
G01X112398Y25020D01*
G01X112375Y25000D01*
G01X112353Y24980D01*
G01X112333Y24959D01*
G01X112313Y24936D01*
G01X112294Y24913D01*
G01X112277Y24888D01*
G01X112260Y24863D01*
G01X112246Y24837D01*
G01X112232Y24811D01*
G01X112220Y24784D01*
G01X112209Y24756D01*
G01X112199Y24727D01*
G01X112191Y24699D01*
G01X112184Y24669D01*
G01X112179Y24640D01*
G01X112175Y24610D01*
G01X112173Y24580D01*
G01X112172Y24550D01*
G01Y24250D01*
G01X112173Y24221D01*
G01X112175Y24191D01*
G01X112179Y24161D01*
G01X112184Y24132D01*
G01X112191Y24102D01*
G01X112199Y24074D01*
G01X112209Y24045D01*
G01X112220Y24017D01*
G01X112232Y23990D01*
G01X112246Y23964D01*
G01X112260Y23938D01*
G01X112277Y23912D01*
G01X112294Y23888D01*
G01X112313Y23865D01*
G01X112333Y23842D01*
G01X112353Y23821D01*
G01X112375Y23801D01*
G01X112398Y23781D01*
G01X112422Y23763D01*
G01X112447Y23746D01*
G01X112472Y23731D01*
G01X112499Y23717D01*
G01X112526Y23704D01*
G01X112553Y23692D01*
G01X112581Y23682D01*
G01X112610Y23673D01*
G01X112639Y23666D01*
G01X112668Y23660D01*
G01X112698Y23655D01*
G01X112728Y23652D01*
G01X112757Y23651D01*
G01X112787D01*
G37*
G01X112787Y23651D02*
G01X112817Y23652D01*
G01X112847Y23655D01*
G01X112877Y23660D01*
G01X112906Y23666D01*
G01X112935Y23673D01*
G01X112964Y23682D01*
G01X112992Y23692D01*
G01X113019Y23704D01*
G01X113046Y23717D01*
G01X113072Y23731D01*
G01X113098Y23746D01*
G01X113123Y23763D01*
G01X113147Y23781D01*
G01X113169Y23801D01*
G01X113191Y23821D01*
G01X113212Y23842D01*
G01X113232Y23865D01*
G01X113251Y23888D01*
G01X113268Y23912D01*
G01X113284Y23938D01*
G01X113299Y23964D01*
G01X113313Y23990D01*
G01X113325Y24017D01*
G01X113336Y24045D01*
G01X113346Y24074D01*
G01X113354Y24102D01*
G01X113361Y24132D01*
G01X113366Y24161D01*
G01X113369Y24191D01*
G01X113372Y24221D01*
G01Y24250D01*
G01Y24550D01*
G01Y24580D01*
G01X113369Y24610D01*
G01X113366Y24640D01*
G01X113361Y24669D01*
G01X113354Y24699D01*
G01X113346Y24727D01*
G01X113336Y24756D01*
G01X113325Y24784D01*
G01X113313Y24811D01*
G01X113299Y24837D01*
G01X113284Y24863D01*
G01X113268Y24888D01*
G01X113251Y24913D01*
G01X113232Y24936D01*
G01X113212Y24959D01*
G01X113191Y24980D01*
G01X113169Y25000D01*
G01X113147Y25020D01*
G01X113123Y25038D01*
G01X113098Y25055D01*
G01X113072Y25070D01*
G01X113046Y25084D01*
G01X113019Y25097D01*
G01X112992Y25109D01*
G01X112964Y25119D01*
G01X112935Y25128D01*
G01X112906Y25135D01*
G01X112877Y25141D01*
G01X112847Y25146D01*
G01X112817Y25149D01*
G01X112787Y25150D01*
G01X112757D01*
G01X112728Y25149D01*
G01X112698Y25146D01*
G01X112668Y25141D01*
G01X112639Y25135D01*
G01X112610Y25128D01*
G01X112581Y25119D01*
G01X112553Y25109D01*
G01X112526Y25097D01*
G01X112499Y25084D01*
G01X112472Y25070D01*
G01X112447Y25055D01*
G01X112422Y25038D01*
G01X112398Y25020D01*
G01X112375Y25000D01*
G01X112353Y24980D01*
G01X112333Y24959D01*
G01X112313Y24936D01*
G01X112294Y24913D01*
G01X112277Y24888D01*
G01X112260Y24863D01*
G01X112246Y24837D01*
G01X112232Y24811D01*
G01X112220Y24784D01*
G01X112209Y24756D01*
G01X112199Y24727D01*
G01X112191Y24699D01*
G01X112184Y24669D01*
G01X112179Y24640D01*
G01X112175Y24610D01*
G01X112173Y24580D01*
G01X112172Y24550D01*
G01Y24250D01*
G01X112173Y24221D01*
G01X112175Y24191D01*
G01X112179Y24161D01*
G01X112184Y24132D01*
G01X112191Y24102D01*
G01X112199Y24074D01*
G01X112209Y24045D01*
G01X112220Y24017D01*
G01X112232Y23990D01*
G01X112246Y23964D01*
G01X112260Y23938D01*
G01X112277Y23912D01*
G01X112294Y23888D01*
G01X112313Y23865D01*
G01X112333Y23842D01*
G01X112353Y23821D01*
G01X112375Y23801D01*
G01X112398Y23781D01*
G01X112422Y23763D01*
G01X112447Y23746D01*
G01X112472Y23731D01*
G01X112499Y23717D01*
G01X112526Y23704D01*
G01X112553Y23692D01*
G01X112581Y23682D01*
G01X112610Y23673D01*
G01X112639Y23666D01*
G01X112668Y23660D01*
G01X112698Y23655D01*
G01X112728Y23652D01*
G01X112757Y23651D01*
G01X112787D01*
G36*
G01X110890Y9880D02*
G01X111209Y10198D01*
G01X111279D01*
G01X111654Y9824D01*
G01Y9753D01*
G01X111336Y9435D01*
G01X111265D01*
G01X110890Y9810D01*
G01Y9880D01*
G37*
G01X110890Y9880D02*
G01X111209Y10198D01*
G01X111279D01*
G01X111654Y9824D01*
G01Y9753D01*
G01X111336Y9435D01*
G01X111265D01*
G01X110890Y9810D01*
G01Y9880D01*
G36*
G01X111619Y9152D02*
G01X111937Y9470D01*
G01X112008D01*
G01X112382Y9095D01*
G01Y9025D01*
G01X112064Y8706D01*
G01X111993D01*
G01X111619Y9081D01*
G01Y9152D01*
G37*
G01X111619Y9152D02*
G01X111937Y9470D01*
G01X112008D01*
G01X112382Y9095D01*
G01Y9025D01*
G01X112064Y8706D01*
G01X111993D01*
G01X111619Y9081D01*
G01Y9152D01*
G36*
G01X116340Y11138D02*
G01X116340Y10688D01*
G01X116290Y10638D01*
G01X115760D01*
G01X115710Y10688D01*
G01Y11138D01*
G01X115760Y11188D01*
G01X116290D01*
G01X116340Y11138D01*
G37*
G01X116340Y11138D02*
G01X116340Y10688D01*
G01X116290Y10638D01*
G01X115760D01*
G01X115710Y10688D01*
G01Y11138D01*
G01X115760Y11188D01*
G01X116290D01*
G01X116340Y11138D01*
G36*
G01X115310Y11138D02*
G01X115310Y10688D01*
G01X115260Y10638D01*
G01X114730D01*
G01X114680Y10688D01*
G01Y11138D01*
G01X114730Y11188D01*
G01X115260D01*
G01X115310Y11138D01*
G37*
G01X115310Y11138D02*
G01X115310Y10688D01*
G01X115260Y10638D01*
G01X114730D01*
G01X114680Y10688D01*
G01Y11138D01*
G01X114730Y11188D01*
G01X115260D01*
G01X115310Y11138D01*
G36*
G01X118230Y10688D02*
G01X118230Y11138D01*
G01X118300Y11188D01*
G01X118780D01*
G01X118830Y11138D01*
G01Y10688D01*
G01X118780Y10638D01*
G01X118300D01*
G01X118230Y10688D01*
G37*
G01X118230Y10688D02*
G01X118230Y11138D01*
G01X118300Y11188D01*
G01X118780D01*
G01X118830Y11138D01*
G01Y10688D01*
G01X118780Y10638D01*
G01X118300D01*
G01X118230Y10688D01*
G36*
G01X117270Y10688D02*
G01X117270Y11138D01*
G01X117320Y11188D01*
G01X117800D01*
G01X117870Y11138D01*
G01Y10688D01*
G01X117800Y10638D01*
G01X117320D01*
G01X117270Y10688D01*
G37*
G01X117270Y10688D02*
G01X117270Y11138D01*
G01X117320Y11188D01*
G01X117800D01*
G01X117870Y11138D01*
G01Y10688D01*
G01X117800Y10638D01*
G01X117320D01*
G01X117270Y10688D01*
G36*
G01X113644Y-5526D02*
G01X113184Y-5526D01*
G01X113144Y-5486D01*
G01Y-4985D01*
G01X113184Y-4945D01*
G01X113644D01*
G01X113684Y-4985D01*
G01Y-5486D01*
G01X113644Y-5526D01*
G37*
G01X113644Y-5526D02*
G01X113184Y-5526D01*
G01X113144Y-5486D01*
G01Y-4985D01*
G01X113184Y-4945D01*
G01X113644D01*
G01X113684Y-4985D01*
G01Y-5486D01*
G01X113644Y-5526D01*
G36*
G01X113644Y-5796D02*
G01X113184Y-5796D01*
G01X113144Y-5836D01*
G01Y-6336D01*
G01X113184Y-6376D01*
G01X113644D01*
G01X113684Y-6336D01*
G01Y-5836D01*
G01X113644Y-5796D01*
G37*
G01X113644Y-5796D02*
G01X113184Y-5796D01*
G01X113144Y-5836D01*
G01Y-6336D01*
G01X113184Y-6376D01*
G01X113644D01*
G01X113684Y-6336D01*
G01Y-5836D01*
G01X113644Y-5796D01*
G36*
G01X117765Y-11407D02*
G01X117447Y-11089D01*
G01X117461Y-11004D01*
G01X117800Y-10665D01*
G01X117871D01*
G01X118189Y-10983D01*
G01Y-11054D01*
G01X117850Y-11393D01*
G01X117765Y-11407D01*
G37*
G01X117765Y-11407D02*
G01X117447Y-11089D01*
G01X117461Y-11004D01*
G01X117800Y-10665D01*
G01X117871D01*
G01X118189Y-10983D01*
G01Y-11054D01*
G01X117850Y-11393D01*
G01X117765Y-11407D01*
G36*
G01X117086Y-12086D02*
G01X116768Y-11768D01*
G01Y-11697D01*
G01X117107Y-11358D01*
G01X117192Y-11344D01*
G01X117510Y-11662D01*
G01X117496Y-11747D01*
G01X117157Y-12086D01*
G01X117086D01*
G37*
G01X117086Y-12086D02*
G01X116768Y-11768D01*
G01Y-11697D01*
G01X117107Y-11358D01*
G01X117192Y-11344D01*
G01X117510Y-11662D01*
G01X117496Y-11747D01*
G01X117157Y-12086D01*
G01X117086D01*
G36*
G01X113441Y7699D02*
G01X113245Y7504D01*
G01X112844Y7490D01*
G01X112488Y7846D01*
G01Y7937D01*
G01X113008Y8457D01*
G01X113099D01*
G01X113455Y8101D01*
G01X113441Y7699D01*
G37*
G01X113441Y7699D02*
G01X113245Y7504D01*
G01X112844Y7490D01*
G01X112488Y7846D01*
G01Y7937D01*
G01X113008Y8457D01*
G01X113099D01*
G01X113455Y8101D01*
G01X113441Y7699D01*
G36*
G01X113813Y7343D02*
G01X113618Y7147D01*
G01X113604Y6746D01*
G01X113960Y6390D01*
G01X114050D01*
G01X114571Y6910D01*
G01Y7001D01*
G01X114215Y7357D01*
G01X113813Y7343D01*
G37*
G01X113813Y7343D02*
G01X113618Y7147D01*
G01X113604Y6746D01*
G01X113960Y6390D01*
G01X114050D01*
G01X114571Y6910D01*
G01Y7001D01*
G01X114215Y7357D01*
G01X113813Y7343D01*
G36*
G01X119887Y15514D02*
G01X119887Y15964D01*
G01X119937Y16014D01*
G01X120467D01*
G01X120517Y15964D01*
G01Y15514D01*
G01X120467Y15464D01*
G01X119937D01*
G01X119887Y15514D01*
G37*
G01X119887Y15514D02*
G01X119887Y15964D01*
G01X119937Y16014D01*
G01X120467D01*
G01X120517Y15964D01*
G01Y15514D01*
G01X120467Y15464D01*
G01X119937D01*
G01X119887Y15514D01*
G36*
G01X120917Y15514D02*
G01X120917Y15964D01*
G01X120967Y16014D01*
G01X121497D01*
G01X121547Y15964D01*
G01Y15514D01*
G01X121497Y15464D01*
G01X120967D01*
G01X120917Y15514D01*
G37*
G01X120917Y15514D02*
G01X120917Y15964D01*
G01X120967Y16014D01*
G01X121497D01*
G01X121547Y15964D01*
G01Y15514D01*
G01X121497Y15464D01*
G01X120967D01*
G01X120917Y15514D01*
G36*
G01X119760Y10688D02*
G01X119760Y11138D01*
G01X119810Y11188D01*
G01X120340D01*
G01X120390Y11138D01*
G01Y10688D01*
G01X120340Y10638D01*
G01X119810D01*
G01X119760Y10688D01*
G37*
G01X119760Y10688D02*
G01X119760Y11138D01*
G01X119810Y11188D01*
G01X120340D01*
G01X120390Y11138D01*
G01Y10688D01*
G01X120340Y10638D01*
G01X119810D01*
G01X119760Y10688D01*
G36*
G01X120790Y10688D02*
G01X120790Y11138D01*
G01X120840Y11188D01*
G01X121370D01*
G01X121420Y11138D01*
G01Y10688D01*
G01X121370Y10638D01*
G01X120840D01*
G01X120790Y10688D01*
G37*
G01X120790Y10688D02*
G01X120790Y11138D01*
G01X120840Y11188D01*
G01X121370D01*
G01X121420Y11138D01*
G01Y10688D01*
G01X121370Y10638D01*
G01X120840D01*
G01X120790Y10688D01*
G36*
G01X117737Y-13983D02*
G01X117411Y-13657D01*
G01Y-13601D01*
G01X117765Y-13247D01*
G01X117822D01*
G01X118147Y-13572D01*
G01Y-13629D01*
G01X117793Y-13983D01*
G01X117737D01*
G37*
G01X117737Y-13983D02*
G01X117411Y-13657D01*
G01Y-13601D01*
G01X117765Y-13247D01*
G01X117822D01*
G01X118147Y-13572D01*
G01Y-13629D01*
G01X117793Y-13983D01*
G01X117737D01*
G36*
G01X117546Y-14174D02*
G01X117220Y-13848D01*
G01X117164D01*
G01X116810Y-14202D01*
G01Y-14259D01*
G01X117135Y-14584D01*
G01X117192D01*
G01X117546Y-14230D01*
G01Y-14174D01*
G37*
G01X117546Y-14174D02*
G01X117220Y-13848D01*
G01X117164D01*
G01X116810Y-14202D01*
G01Y-14259D01*
G01X117135Y-14584D01*
G01X117192D01*
G01X117546Y-14230D01*
G01Y-14174D01*
G36*
G01X113546Y-15126D02*
G01X113220Y-14800D01*
G01Y-14744D01*
G01X113574Y-14390D01*
G01X113631D01*
G01X113956Y-14715D01*
G01Y-14772D01*
G01X113602Y-15126D01*
G01X113546D01*
G37*
G01X113546Y-15126D02*
G01X113220Y-14800D01*
G01Y-14744D01*
G01X113574Y-14390D01*
G01X113631D01*
G01X113956Y-14715D01*
G01Y-14772D01*
G01X113602Y-15126D01*
G01X113546D01*
G36*
G01X113355Y-15317D02*
G01X113029Y-14991D01*
G01X112973D01*
G01X112619Y-15345D01*
G01Y-15402D01*
G01X112944Y-15727D01*
G01X113001D01*
G01X113355Y-15373D01*
G01Y-15317D01*
G37*
G01X113355Y-15317D02*
G01X113029Y-14991D01*
G01X112973D01*
G01X112619Y-15345D01*
G01Y-15402D01*
G01X112944Y-15727D01*
G01X113001D01*
G01X113355Y-15373D01*
G01Y-15317D01*
G36*
G01X123312Y5872D02*
G01X123312Y5412D01*
G01X123272Y5372D01*
G01X122772D01*
G01X122732Y5412D01*
G01Y5872D01*
G01X122772Y5912D01*
G01X123272D01*
G01X123312Y5872D01*
G37*
G01X123312Y5872D02*
G01X123312Y5412D01*
G01X123272Y5372D01*
G01X122772D01*
G01X122732Y5412D01*
G01Y5872D01*
G01X122772Y5912D01*
G01X123272D01*
G01X123312Y5872D01*
G36*
G01X123582Y5872D02*
G01X123582Y5412D01*
G01X123622Y5372D01*
G01X124123D01*
G01X124163Y5412D01*
G01Y5872D01*
G01X124123Y5912D01*
G01X123622D01*
G01X123582Y5872D01*
G37*
G01X123582Y5872D02*
G01X123582Y5412D01*
G01X123622Y5372D01*
G01X124123D01*
G01X124163Y5412D01*
G01Y5872D01*
G01X124123Y5912D01*
G01X123622D01*
G01X123582Y5872D01*
G36*
G01X110688Y-4640D02*
G01X110362Y-4966D01*
G01X110306D01*
G01X109952Y-4612D01*
G01Y-4555D01*
G01X110277Y-4230D01*
G01X110334D01*
G01X110688Y-4584D01*
G01Y-4640D01*
G37*
G01X110688Y-4640D02*
G01X110362Y-4966D01*
G01X110306D01*
G01X109952Y-4612D01*
G01Y-4555D01*
G01X110277Y-4230D01*
G01X110334D01*
G01X110688Y-4584D01*
G01Y-4640D01*
G36*
G01X110879Y-4831D02*
G01X110553Y-5157D01*
G01Y-5213D01*
G01X110907Y-5567D01*
G01X110964D01*
G01X111289Y-5242D01*
G01Y-5185D01*
G01X110935Y-4831D01*
G01X110879D01*
G37*
G01X110879Y-4831D02*
G01X110553Y-5157D01*
G01Y-5213D01*
G01X110907Y-5567D01*
G01X110964D01*
G01X111289Y-5242D01*
G01Y-5185D01*
G01X110935Y-4831D01*
G01X110879D01*
G36*
G01X121915Y-15718D02*
G01X121915Y-16178D01*
G01X121875Y-16218D01*
G01X121375D01*
G01X121335Y-16178D01*
G01Y-15718D01*
G01X121375Y-15678D01*
G01X121875D01*
G01X121915Y-15718D01*
G37*
G01X121915Y-15718D02*
G01X121915Y-16178D01*
G01X121875Y-16218D01*
G01X121375D01*
G01X121335Y-16178D01*
G01Y-15718D01*
G01X121375Y-15678D01*
G01X121875D01*
G01X121915Y-15718D01*
G36*
G01X122185Y-15718D02*
G01X122185Y-16178D01*
G01X122225Y-16218D01*
G01X122726D01*
G01X122766Y-16178D01*
G01Y-15718D01*
G01X122726Y-15678D01*
G01X122225D01*
G01X122185Y-15718D01*
G37*
G01X122185Y-15718D02*
G01X122185Y-16178D01*
G01X122225Y-16218D01*
G01X122726D01*
G01X122766Y-16178D01*
G01Y-15718D01*
G01X122726Y-15678D01*
G01X122225D01*
G01X122185Y-15718D01*
G36*
G01X118137Y-5415D02*
G01X118597Y-5415D01*
G01X118637Y-5455D01*
G01Y-5955D01*
G01X118597Y-5995D01*
G01X118137D01*
G01X118097Y-5955D01*
G01Y-5455D01*
G01X118137Y-5415D01*
G37*
G01X118137Y-5415D02*
G01X118597Y-5415D01*
G01X118637Y-5455D01*
G01Y-5955D01*
G01X118597Y-5995D01*
G01X118137D01*
G01X118097Y-5955D01*
G01Y-5455D01*
G01X118137Y-5415D01*
G36*
G01X118137Y-5145D02*
G01X118597Y-5145D01*
G01X118637Y-5105D01*
G01Y-4604D01*
G01X118597Y-4564D01*
G01X118137D01*
G01X118097Y-4604D01*
G01Y-5105D01*
G01X118137Y-5145D01*
G37*
G01X118137Y-5145D02*
G01X118597Y-5145D01*
G01X118637Y-5105D01*
G01Y-4604D01*
G01X118597Y-4564D01*
G01X118137D01*
G01X118097Y-4604D01*
G01Y-5105D01*
G01X118137Y-5145D01*
G36*
G01X114961Y9223D02*
G01X114635Y8898D01*
G01X114579D01*
G01X114225Y9252D01*
G01Y9309D01*
G01X114550Y9634D01*
G01X114607D01*
G01X114961Y9280D01*
G01Y9223D01*
G37*
G01X114961Y9223D02*
G01X114635Y8898D01*
G01X114579D01*
G01X114225Y9252D01*
G01Y9309D01*
G01X114550Y9634D01*
G01X114607D01*
G01X114961Y9280D01*
G01Y9223D01*
G36*
G01X115151Y9032D02*
G01X114826Y8707D01*
G01Y8651D01*
G01X115180Y8297D01*
G01X115237D01*
G01X115562Y8622D01*
G01Y8678D01*
G01X115208Y9032D01*
G01X115151D01*
G37*
G01X115151Y9032D02*
G01X114826Y8707D01*
G01Y8651D01*
G01X115180Y8297D01*
G01X115237D01*
G01X115562Y8622D01*
G01Y8678D01*
G01X115208Y9032D01*
G01X115151D01*
G36*
G01X123931Y20942D02*
G01X123471Y20942D01*
G01X123431Y20982D01*
G01Y21483D01*
G01X123471Y21523D01*
G01X123931D01*
G01X123971Y21483D01*
G01Y20982D01*
G01X123931Y20942D01*
G37*
G01X123931Y20942D02*
G01X123471Y20942D01*
G01X123431Y20982D01*
G01Y21483D01*
G01X123471Y21523D01*
G01X123931D01*
G01X123971Y21483D01*
G01Y20982D01*
G01X123931Y20942D01*
G36*
G01X123931Y20672D02*
G01X123471Y20672D01*
G01X123431Y20632D01*
G01Y20132D01*
G01X123471Y20092D01*
G01X123931D01*
G01X123971Y20132D01*
G01Y20632D01*
G01X123931Y20672D01*
G37*
G01X123931Y20672D02*
G01X123471Y20672D01*
G01X123431Y20632D01*
G01Y20132D01*
G01X123471Y20092D01*
G01X123931D01*
G01X123971Y20132D01*
G01Y20632D01*
G01X123931Y20672D01*
G36*
G01X119007Y15964D02*
G01X119007Y15514D01*
G01X118957Y15464D01*
G01X118427D01*
G01X118377Y15514D01*
G01Y15964D01*
G01X118427Y16014D01*
G01X118957D01*
G01X119007Y15964D01*
G37*
G01X119007Y15964D02*
G01X119007Y15514D01*
G01X118957Y15464D01*
G01X118427D01*
G01X118377Y15514D01*
G01Y15964D01*
G01X118427Y16014D01*
G01X118957D01*
G01X119007Y15964D01*
G36*
G01X117977Y15964D02*
G01X117977Y15514D01*
G01X117927Y15464D01*
G01X117397D01*
G01X117347Y15514D01*
G01Y15964D01*
G01X117397Y16014D01*
G01X117927D01*
G01X117977Y15964D01*
G37*
G01X117977Y15964D02*
G01X117977Y15514D01*
G01X117927Y15464D01*
G01X117397D01*
G01X117347Y15514D01*
G01Y15964D01*
G01X117397Y16014D01*
G01X117927D01*
G01X117977Y15964D01*
G36*
G01X116086Y15964D02*
G01X116086Y15514D01*
G01X116036Y15464D01*
G01X115506D01*
G01X115456Y15514D01*
G01Y15964D01*
G01X115506Y16014D01*
G01X116036D01*
G01X116086Y15964D01*
G37*
G01X116086Y15964D02*
G01X116086Y15514D01*
G01X116036Y15464D01*
G01X115506D01*
G01X115456Y15514D01*
G01Y15964D01*
G01X115506Y16014D01*
G01X116036D01*
G01X116086Y15964D01*
G36*
G01X115056Y15964D02*
G01X115056Y15514D01*
G01X115006Y15464D01*
G01X114476D01*
G01X114426Y15514D01*
G01Y15964D01*
G01X114476Y16014D01*
G01X115006D01*
G01X115056Y15964D01*
G37*
G01X115056Y15964D02*
G01X115056Y15514D01*
G01X115006Y15464D01*
G01X114476D01*
G01X114426Y15514D01*
G01Y15964D01*
G01X114476Y16014D01*
G01X115006D01*
G01X115056Y15964D01*
G36*
G01X113126Y13775D02*
G01X113576Y13775D01*
G01X113626Y13725D01*
G01Y13195D01*
G01X113576Y13145D01*
G01X113126D01*
G01X113076Y13195D01*
G01Y13725D01*
G01X113126Y13775D01*
G37*
G01X113126Y13775D02*
G01X113576Y13775D01*
G01X113626Y13725D01*
G01Y13195D01*
G01X113576Y13145D01*
G01X113126D01*
G01X113076Y13195D01*
G01Y13725D01*
G01X113126Y13775D01*
G36*
G01X113126Y12745D02*
G01X113576Y12745D01*
G01X113626Y12695D01*
G01Y12165D01*
G01X113576Y12115D01*
G01X113126D01*
G01X113076Y12165D01*
G01Y12695D01*
G01X113126Y12745D01*
G37*
G01X113126Y12745D02*
G01X113576Y12745D01*
G01X113626Y12695D01*
G01Y12165D01*
G01X113576Y12115D01*
G01X113126D01*
G01X113076Y12165D01*
G01Y12695D01*
G01X113126Y12745D01*
G36*
G01X113576Y15665D02*
G01X113126Y15665D01*
G01X113076Y15735D01*
G01Y16215D01*
G01X113126Y16265D01*
G01X113576D01*
G01X113626Y16215D01*
G01Y15735D01*
G01X113576Y15665D01*
G37*
G01X113576Y15665D02*
G01X113126Y15665D01*
G01X113076Y15735D01*
G01Y16215D01*
G01X113126Y16265D01*
G01X113576D01*
G01X113626Y16215D01*
G01Y15735D01*
G01X113576Y15665D01*
G36*
G01X113576Y14705D02*
G01X113126Y14705D01*
G01X113076Y14755D01*
G01Y15235D01*
G01X113126Y15305D01*
G01X113576D01*
G01X113626Y15235D01*
G01Y14755D01*
G01X113576Y14705D01*
G37*
G01X113576Y14705D02*
G01X113126Y14705D01*
G01X113076Y14755D01*
G01Y15235D01*
G01X113126Y15305D01*
G01X113576D01*
G01X113626Y15235D01*
G01Y14755D01*
G01X113576Y14705D01*
G36*
G01X117293Y-6983D02*
G01X117293Y-6183D01*
G01X117243Y-6133D01*
G01X117015D01*
G01Y-6503D01*
G01X116685D01*
G01Y-6133D01*
G01X116443D01*
G01X116393Y-6183D01*
G01Y-6983D01*
G01X116443Y-7033D01*
G01X117243D01*
G01X117293Y-6983D01*
G37*
G01X117293Y-6983D02*
G01X117293Y-6183D01*
G01X117243Y-6133D01*
G01X117015D01*
G01Y-6503D01*
G01X116685D01*
G01Y-6133D01*
G01X116443D01*
G01X116393Y-6183D01*
G01Y-6983D01*
G01X116443Y-7033D01*
G01X117243D01*
G01X117293Y-6983D01*
G36*
G01X117243Y-5433D02*
G01X117015Y-5433D01*
G01Y-5053D01*
G01X116685D01*
G01Y-5433D01*
G01X116443D01*
G01X116393Y-5383D01*
G01Y-4593D01*
G01X116443Y-4543D01*
G01X117243D01*
G01X117293Y-4593D01*
G01Y-5383D01*
G01X117243Y-5433D01*
G37*
G01X117243Y-5433D02*
G01X117015Y-5433D01*
G01Y-5053D01*
G01X116685D01*
G01Y-5433D01*
G01X116443D01*
G01X116393Y-5383D01*
G01Y-4593D01*
G01X116443Y-4543D01*
G01X117243D01*
G01X117293Y-4593D01*
G01Y-5383D01*
G01X117243Y-5433D01*
G36*
G01X120591Y1519D02*
G01X119926Y1519D01*
G01Y1719D01*
G01X120591D01*
G01Y1519D01*
G37*
G01X120591Y1519D02*
G01X119926Y1519D01*
G01Y1719D01*
G01X120591D01*
G01Y1519D01*
G36*
G01X120591Y1120D02*
G01X119926Y1120D01*
G01Y1320D01*
G01X120591D01*
G01Y1120D01*
G37*
G01X120591Y1120D02*
G01X119926Y1120D01*
G01Y1320D01*
G01X120591D01*
G01Y1120D01*
G36*
G01X120591Y719D02*
G01X119926Y719D01*
G01Y919D01*
G01X120591D01*
G01Y719D01*
G37*
G01X120591Y719D02*
G01X119926Y719D01*
G01Y919D01*
G01X120591D01*
G01Y719D01*
G36*
G01X120591Y319D02*
G01X119926Y319D01*
G01Y519D01*
G01X120591D01*
G01Y319D01*
G37*
G01X120591Y319D02*
G01X119926Y319D01*
G01Y519D01*
G01X120591D01*
G01Y319D01*
G36*
G01X120591Y-81D02*
G01X119926Y-81D01*
G01Y119D01*
G01X120591D01*
G01Y-81D01*
G37*
G01X120591Y-81D02*
G01X119926Y-81D01*
G01Y119D01*
G01X120591D01*
G01Y-81D01*
G36*
G01X120591Y-481D02*
G01X119926Y-481D01*
G01Y-281D01*
G01X120591D01*
G01Y-481D01*
G37*
G01X120591Y-481D02*
G01X119926Y-481D01*
G01Y-281D01*
G01X120591D01*
G01Y-481D01*
G36*
G01X120591Y-880D02*
G01X119926Y-880D01*
G01Y-680D01*
G01X120591D01*
G01Y-880D01*
G37*
G01X120591Y-880D02*
G01X119926Y-880D01*
G01Y-680D01*
G01X120591D01*
G01Y-880D01*
G36*
G01X120591Y-1280D02*
G01X119926Y-1280D01*
G01Y-1080D01*
G01X120591D01*
G01Y-1280D01*
G37*
G01X120591Y-1280D02*
G01X119926Y-1280D01*
G01Y-1080D01*
G01X120591D01*
G01Y-1280D01*
G36*
G01X120591Y-1681D02*
G01X119926Y-1681D01*
G01Y-1481D01*
G01X120591D01*
G01Y-1681D01*
G37*
G01X120591Y-1681D02*
G01X119926Y-1681D01*
G01Y-1481D01*
G01X120591D01*
G01Y-1681D01*
G36*
G01X120591Y-2081D02*
G01X119926Y-2081D01*
G01Y-1881D01*
G01X120591D01*
G01Y-2081D01*
G37*
G01X120591Y-2081D02*
G01X119926Y-2081D01*
G01Y-1881D01*
G01X120591D01*
G01Y-2081D01*
G36*
G01X120591Y-2481D02*
G01X119926Y-2481D01*
G01Y-2281D01*
G01X120591D01*
G01Y-2481D01*
G37*
G01X120591Y-2481D02*
G01X119926Y-2481D01*
G01Y-2281D01*
G01X120591D01*
G01Y-2481D01*
G36*
G01X120591Y-2880D02*
G01X119926Y-2880D01*
G01Y-2680D01*
G01X120591D01*
G01Y-2880D01*
G37*
G01X120591Y-2880D02*
G01X119926Y-2880D01*
G01Y-2680D01*
G01X120591D01*
G01Y-2880D01*
G36*
G01X119651Y-3821D02*
G01X119451Y-3821D01*
G01Y-3156D01*
G01X119651D01*
G01Y-3821D01*
G37*
G01X119651Y-3821D02*
G01X119451Y-3821D01*
G01Y-3156D01*
G01X119651D01*
G01Y-3821D01*
G36*
G01X119252Y-3821D02*
G01X119052Y-3821D01*
G01Y-3156D01*
G01X119252D01*
G01Y-3821D01*
G37*
G01X119252Y-3821D02*
G01X119052Y-3821D01*
G01Y-3156D01*
G01X119252D01*
G01Y-3821D01*
G36*
G01X118851Y-3821D02*
G01X118651Y-3821D01*
G01Y-3156D01*
G01X118851D01*
G01Y-3821D01*
G37*
G01X118851Y-3821D02*
G01X118651Y-3821D01*
G01Y-3156D01*
G01X118851D01*
G01Y-3821D01*
G36*
G01X118451Y-3821D02*
G01X118251Y-3821D01*
G01Y-3156D01*
G01X118451D01*
G01Y-3821D01*
G37*
G01X118451Y-3821D02*
G01X118251Y-3821D01*
G01Y-3156D01*
G01X118451D01*
G01Y-3821D01*
G36*
G01X118051Y-3821D02*
G01X117851Y-3821D01*
G01Y-3156D01*
G01X118051D01*
G01Y-3821D01*
G37*
G01X118051Y-3821D02*
G01X117851Y-3821D01*
G01Y-3156D01*
G01X118051D01*
G01Y-3821D01*
G36*
G01X117651Y-3821D02*
G01X117451Y-3821D01*
G01Y-3156D01*
G01X117651D01*
G01Y-3821D01*
G37*
G01X117651Y-3821D02*
G01X117451Y-3821D01*
G01Y-3156D01*
G01X117651D01*
G01Y-3821D01*
G36*
G01X117252Y-3821D02*
G01X117052Y-3821D01*
G01Y-3156D01*
G01X117252D01*
G01Y-3821D01*
G37*
G01X117252Y-3821D02*
G01X117052Y-3821D01*
G01Y-3156D01*
G01X117252D01*
G01Y-3821D01*
G36*
G01X116851Y-3821D02*
G01X116651Y-3821D01*
G01Y-3156D01*
G01X116851D01*
G01Y-3821D01*
G37*
G01X116851Y-3821D02*
G01X116651Y-3821D01*
G01Y-3156D01*
G01X116851D01*
G01Y-3821D01*
G36*
G01X116451Y-3821D02*
G01X116251Y-3821D01*
G01Y-3156D01*
G01X116451D01*
G01Y-3821D01*
G37*
G01X116451Y-3821D02*
G01X116251Y-3821D01*
G01Y-3156D01*
G01X116451D01*
G01Y-3821D01*
G36*
G01X116051Y-3821D02*
G01X115851Y-3821D01*
G01Y-3156D01*
G01X116051D01*
G01Y-3821D01*
G37*
G01X116051Y-3821D02*
G01X115851Y-3821D01*
G01Y-3156D01*
G01X116051D01*
G01Y-3821D01*
G36*
G01X115651Y-3821D02*
G01X115451Y-3821D01*
G01Y-3156D01*
G01X115651D01*
G01Y-3821D01*
G37*
G01X115651Y-3821D02*
G01X115451Y-3821D01*
G01Y-3156D01*
G01X115651D01*
G01Y-3821D01*
G36*
G01X115252Y-3821D02*
G01X115052Y-3821D01*
G01Y-3156D01*
G01X115252D01*
G01Y-3821D01*
G37*
G01X115252Y-3821D02*
G01X115052Y-3821D01*
G01Y-3156D01*
G01X115252D01*
G01Y-3821D01*
G36*
G01X114776Y-2880D02*
G01X114111Y-2880D01*
G01Y-2680D01*
G01X114776D01*
G01Y-2880D01*
G37*
G01X114776Y-2880D02*
G01X114111Y-2880D01*
G01Y-2680D01*
G01X114776D01*
G01Y-2880D01*
G36*
G01X114776Y-2481D02*
G01X114111Y-2481D01*
G01Y-2281D01*
G01X114776D01*
G01Y-2481D01*
G37*
G01X114776Y-2481D02*
G01X114111Y-2481D01*
G01Y-2281D01*
G01X114776D01*
G01Y-2481D01*
G36*
G01X114776Y-2081D02*
G01X114111Y-2081D01*
G01Y-1881D01*
G01X114776D01*
G01Y-2081D01*
G37*
G01X114776Y-2081D02*
G01X114111Y-2081D01*
G01Y-1881D01*
G01X114776D01*
G01Y-2081D01*
G36*
G01X114776Y-1681D02*
G01X114111Y-1681D01*
G01Y-1481D01*
G01X114776D01*
G01Y-1681D01*
G37*
G01X114776Y-1681D02*
G01X114111Y-1681D01*
G01Y-1481D01*
G01X114776D01*
G01Y-1681D01*
G36*
G01X114776Y-1280D02*
G01X114111Y-1280D01*
G01Y-1080D01*
G01X114776D01*
G01Y-1280D01*
G37*
G01X114776Y-1280D02*
G01X114111Y-1280D01*
G01Y-1080D01*
G01X114776D01*
G01Y-1280D01*
G36*
G01X114776Y-880D02*
G01X114111Y-880D01*
G01Y-680D01*
G01X114776D01*
G01Y-880D01*
G37*
G01X114776Y-880D02*
G01X114111Y-880D01*
G01Y-680D01*
G01X114776D01*
G01Y-880D01*
G36*
G01X114776Y-481D02*
G01X114111Y-481D01*
G01Y-281D01*
G01X114776D01*
G01Y-481D01*
G37*
G01X114776Y-481D02*
G01X114111Y-481D01*
G01Y-281D01*
G01X114776D01*
G01Y-481D01*
G36*
G01X114776Y-81D02*
G01X114111Y-81D01*
G01Y119D01*
G01X114776D01*
G01Y-81D01*
G37*
G01X114776Y-81D02*
G01X114111Y-81D01*
G01Y119D01*
G01X114776D01*
G01Y-81D01*
G36*
G01X114776Y319D02*
G01X114111Y319D01*
G01Y519D01*
G01X114776D01*
G01Y319D01*
G37*
G01X114776Y319D02*
G01X114111Y319D01*
G01Y519D01*
G01X114776D01*
G01Y319D01*
G36*
G01X114776Y719D02*
G01X114111Y719D01*
G01Y919D01*
G01X114776D01*
G01Y719D01*
G37*
G01X114776Y719D02*
G01X114111Y719D01*
G01Y919D01*
G01X114776D01*
G01Y719D01*
G36*
G01X114776Y1120D02*
G01X114111Y1120D01*
G01Y1320D01*
G01X114776D01*
G01Y1120D01*
G37*
G01X114776Y1120D02*
G01X114111Y1120D01*
G01Y1320D01*
G01X114776D01*
G01Y1120D01*
G36*
G01X114776Y1519D02*
G01X114111Y1519D01*
G01Y1719D01*
G01X114776D01*
G01Y1519D01*
G37*
G01X114776Y1519D02*
G01X114111Y1519D01*
G01Y1719D01*
G01X114776D01*
G01Y1519D01*
G36*
G01X115252Y1995D02*
G01X115052Y1995D01*
G01Y2659D01*
G01X115252D01*
G01Y1995D01*
G37*
G01X115252Y1995D02*
G01X115052Y1995D01*
G01Y2659D01*
G01X115252D01*
G01Y1995D01*
G36*
G01X115651Y1995D02*
G01X115451Y1995D01*
G01Y2659D01*
G01X115651D01*
G01Y1995D01*
G37*
G01X115651Y1995D02*
G01X115451Y1995D01*
G01Y2659D01*
G01X115651D01*
G01Y1995D01*
G36*
G01X116051Y1995D02*
G01X115851Y1995D01*
G01Y2659D01*
G01X116051D01*
G01Y1995D01*
G37*
G01X116051Y1995D02*
G01X115851Y1995D01*
G01Y2659D01*
G01X116051D01*
G01Y1995D01*
G36*
G01X116451Y1995D02*
G01X116251Y1995D01*
G01Y2659D01*
G01X116451D01*
G01Y1995D01*
G37*
G01X116451Y1995D02*
G01X116251Y1995D01*
G01Y2659D01*
G01X116451D01*
G01Y1995D01*
G36*
G01X116851Y1995D02*
G01X116651Y1995D01*
G01Y2659D01*
G01X116851D01*
G01Y1995D01*
G37*
G01X116851Y1995D02*
G01X116651Y1995D01*
G01Y2659D01*
G01X116851D01*
G01Y1995D01*
G36*
G01X117252Y1995D02*
G01X117052Y1995D01*
G01Y2659D01*
G01X117252D01*
G01Y1995D01*
G37*
G01X117252Y1995D02*
G01X117052Y1995D01*
G01Y2659D01*
G01X117252D01*
G01Y1995D01*
G36*
G01X117651Y1995D02*
G01X117451Y1995D01*
G01Y2659D01*
G01X117651D01*
G01Y1995D01*
G37*
G01X117651Y1995D02*
G01X117451Y1995D01*
G01Y2659D01*
G01X117651D01*
G01Y1995D01*
G36*
G01X118051Y1995D02*
G01X117851Y1995D01*
G01Y2659D01*
G01X118051D01*
G01Y1995D01*
G37*
G01X118051Y1995D02*
G01X117851Y1995D01*
G01Y2659D01*
G01X118051D01*
G01Y1995D01*
G36*
G01X118451Y1995D02*
G01X118251Y1995D01*
G01Y2659D01*
G01X118451D01*
G01Y1995D01*
G37*
G01X118451Y1995D02*
G01X118251Y1995D01*
G01Y2659D01*
G01X118451D01*
G01Y1995D01*
G36*
G01X118851Y1995D02*
G01X118651Y1995D01*
G01Y2659D01*
G01X118851D01*
G01Y1995D01*
G37*
G01X118851Y1995D02*
G01X118651Y1995D01*
G01Y2659D01*
G01X118851D01*
G01Y1995D01*
G36*
G01X119252Y1995D02*
G01X119052Y1995D01*
G01Y2659D01*
G01X119252D01*
G01Y1995D01*
G37*
G01X119252Y1995D02*
G01X119052Y1995D01*
G01Y2659D01*
G01X119252D01*
G01Y1995D01*
G36*
G01X119651Y1995D02*
G01X119451Y1995D01*
G01Y2659D01*
G01X119651D01*
G01Y1995D01*
G37*
G01X119651Y1995D02*
G01X119451Y1995D01*
G01Y2659D01*
G01X119651D01*
G01Y1995D01*
G36*
G01X118871Y-2101D02*
G01X115831Y-2101D01*
G01Y939D01*
G01X118871D01*
G01Y-2101D01*
G37*
G01X118871Y-2101D02*
G01X115831Y-2101D01*
G01Y939D01*
G01X118871D01*
G01Y-2101D01*
G36*
G01X111358Y-7177D02*
G01X110898Y-7177D01*
G01X110858Y-7137D01*
G01Y-6636D01*
G01X110898Y-6596D01*
G01X111358D01*
G01X111398Y-6636D01*
G01Y-7137D01*
G01X111358Y-7177D01*
G37*
G01X111358Y-7177D02*
G01X110898Y-7177D01*
G01X110858Y-7137D01*
G01Y-6636D01*
G01X110898Y-6596D01*
G01X111358D01*
G01X111398Y-6636D01*
G01Y-7137D01*
G01X111358Y-7177D01*
G36*
G01X111358Y-7447D02*
G01X110898Y-7447D01*
G01X110858Y-7487D01*
G01Y-7987D01*
G01X110898Y-8027D01*
G01X111358D01*
G01X111398Y-7987D01*
G01Y-7487D01*
G01X111358Y-7447D01*
G37*
G01X111358Y-7447D02*
G01X110898Y-7447D01*
G01X110858Y-7487D01*
G01Y-7987D01*
G01X110898Y-8027D01*
G01X111358D01*
G01X111398Y-7987D01*
G01Y-7487D01*
G01X111358Y-7447D01*
G36*
G01X110850Y22033D02*
G01X110390Y22033D01*
G01X110350Y22073D01*
G01Y22574D01*
G01X110390Y22614D01*
G01X110850D01*
G01X110890Y22574D01*
G01Y22073D01*
G01X110850Y22033D01*
G37*
G01X110850Y22033D02*
G01X110390Y22033D01*
G01X110350Y22073D01*
G01Y22574D01*
G01X110390Y22614D01*
G01X110850D01*
G01X110890Y22574D01*
G01Y22073D01*
G01X110850Y22033D01*
G36*
G01X110850Y21763D02*
G01X110390Y21763D01*
G01X110350Y21723D01*
G01Y21223D01*
G01X110390Y21183D01*
G01X110850D01*
G01X110890Y21223D01*
G01Y21723D01*
G01X110850Y21763D01*
G37*
G01X110850Y21763D02*
G01X110390Y21763D01*
G01X110350Y21723D01*
G01Y21223D01*
G01X110390Y21183D01*
G01X110850D01*
G01X110890Y21223D01*
G01Y21723D01*
G01X110850Y21763D01*
G36*
G01X122653Y10754D02*
G01X122971Y10436D01*
G01X122957Y10351D01*
G01X122618Y10012D01*
G01X122547D01*
G01X122229Y10330D01*
G01Y10401D01*
G01X122568Y10740D01*
G01X122653Y10754D01*
G37*
G01X122653Y10754D02*
G01X122971Y10436D01*
G01X122957Y10351D01*
G01X122618Y10012D01*
G01X122547D01*
G01X122229Y10330D01*
G01Y10401D01*
G01X122568Y10740D01*
G01X122653Y10754D01*
G36*
G01X123332Y11433D02*
G01X123650Y11115D01*
G01Y11044D01*
G01X123311Y10705D01*
G01X123226Y10691D01*
G01X122908Y11009D01*
G01X122922Y11094D01*
G01X123261Y11433D01*
G01X123332D01*
G37*
G01X123332Y11433D02*
G01X123650Y11115D01*
G01Y11044D01*
G01X123311Y10705D01*
G01X123226Y10691D01*
G01X122908Y11009D01*
G01X122922Y11094D01*
G01X123261Y11433D01*
G01X123332D01*
G36*
G01X118356Y17128D02*
G01X118356Y18408D01*
G01X118406Y18458D01*
G01X119556D01*
G01X119606Y18408D01*
G01X119611Y17997D01*
G01X119161D01*
G01Y17548D01*
G01X119601D01*
G01X119606Y17128D01*
G01X119556Y17078D01*
G01X118406D01*
G01X118356Y17128D01*
G37*
G01X118356Y17128D02*
G01X118356Y18408D01*
G01X118406Y18458D01*
G01X119556D01*
G01X119606Y18408D01*
G01X119611Y17997D01*
G01X119161D01*
G01Y17548D01*
G01X119601D01*
G01X119606Y17128D01*
G01X119556Y17078D01*
G01X118406D01*
G01X118356Y17128D01*
G36*
G01X120506Y17128D02*
G01X120506Y17548D01*
G01X120951D01*
G01Y17997D01*
G01X120511D01*
G01X120506Y18408D01*
G01X120556Y18458D01*
G01X121706D01*
G01X121756Y18408D01*
G01Y17128D01*
G01X121706Y17078D01*
G01X120556D01*
G01X120506Y17128D01*
G37*
G01X120506Y17128D02*
G01X120506Y17548D01*
G01X120951D01*
G01Y17997D01*
G01X120511D01*
G01X120506Y18408D01*
G01X120556Y18458D01*
G01X121706D01*
G01X121756Y18408D01*
G01Y17128D01*
G01X121706Y17078D01*
G01X120556D01*
G01X120506Y17128D01*
G36*
G01X119176Y7277D02*
G01X119494Y6959D01*
G01Y6889D01*
G01X119120Y6514D01*
G01X119049D01*
G01X118731Y6832D01*
G01Y6903D01*
G01X119106Y7277D01*
G01X119176D01*
G37*
G01X119176Y7277D02*
G01X119494Y6959D01*
G01Y6889D01*
G01X119120Y6514D01*
G01X119049D01*
G01X118731Y6832D01*
G01Y6903D01*
G01X119106Y7277D01*
G01X119176D01*
G36*
G01X118448Y6549D02*
G01X118766Y6231D01*
G01Y6160D01*
G01X118391Y5785D01*
G01X118321D01*
G01X118002Y6104D01*
G01Y6174D01*
G01X118377Y6549D01*
G01X118448D01*
G37*
G01X118448Y6549D02*
G01X118766Y6231D01*
G01Y6160D01*
G01X118391Y5785D01*
G01X118321D01*
G01X118002Y6104D01*
G01Y6174D01*
G01X118377Y6549D01*
G01X118448D01*
G36*
G01X123312Y4221D02*
G01X123312Y3761D01*
G01X123272Y3721D01*
G01X122772D01*
G01X122732Y3761D01*
G01Y4221D01*
G01X122772Y4261D01*
G01X123272D01*
G01X123312Y4221D01*
G37*
G01X123312Y4221D02*
G01X123312Y3761D01*
G01X123272Y3721D01*
G01X122772D01*
G01X122732Y3761D01*
G01Y4221D01*
G01X122772Y4261D01*
G01X123272D01*
G01X123312Y4221D01*
G36*
G01X123582Y4221D02*
G01X123582Y3761D01*
G01X123622Y3721D01*
G01X124123D01*
G01X124163Y3761D01*
G01Y4221D01*
G01X124123Y4261D01*
G01X123622D01*
G01X123582Y4221D01*
G37*
G01X123582Y4221D02*
G01X123582Y3761D01*
G01X123622Y3721D01*
G01X124123D01*
G01X124163Y3761D01*
G01Y4221D01*
G01X124123Y4261D01*
G01X123622D01*
G01X123582Y4221D01*
G36*
G01X123471Y23795D02*
G01X123931Y23795D01*
G01X123971Y23755D01*
G01Y23255D01*
G01X123931Y23215D01*
G01X123471D01*
G01X123431Y23255D01*
G01Y23755D01*
G01X123471Y23795D01*
G37*
G01X123471Y23795D02*
G01X123931Y23795D01*
G01X123971Y23755D01*
G01Y23255D01*
G01X123931Y23215D01*
G01X123471D01*
G01X123431Y23255D01*
G01Y23755D01*
G01X123471Y23795D01*
G36*
G01X123471Y24065D02*
G01X123931Y24065D01*
G01X123971Y24105D01*
G01Y24606D01*
G01X123931Y24646D01*
G01X123471D01*
G01X123431Y24606D01*
G01Y24105D01*
G01X123471Y24065D01*
G37*
G01X123471Y24065D02*
G01X123931Y24065D01*
G01X123971Y24105D01*
G01Y24606D01*
G01X123931Y24646D01*
G01X123471D01*
G01X123431Y24606D01*
G01Y24105D01*
G01X123471Y24065D01*
G36*
G01X123672Y16109D02*
G01X123222Y16109D01*
G01X123172Y16179D01*
G01Y16659D01*
G01X123222Y16709D01*
G01X123672D01*
G01X123722Y16659D01*
G01Y16179D01*
G01X123672Y16109D01*
G37*
G01X123672Y16109D02*
G01X123222Y16109D01*
G01X123172Y16179D01*
G01Y16659D01*
G01X123222Y16709D01*
G01X123672D01*
G01X123722Y16659D01*
G01Y16179D01*
G01X123672Y16109D01*
G36*
G01X123672Y15149D02*
G01X123222Y15149D01*
G01X123172Y15199D01*
G01Y15679D01*
G01X123222Y15749D01*
G01X123672D01*
G01X123722Y15679D01*
G01Y15199D01*
G01X123672Y15149D01*
G37*
G01X123672Y15149D02*
G01X123222Y15149D01*
G01X123172Y15199D01*
G01Y15679D01*
G01X123222Y15749D01*
G01X123672D01*
G01X123722Y15679D01*
G01Y15199D01*
G01X123672Y15149D01*
G36*
G01X121700Y4216D02*
G01X121700Y3766D01*
G01X121650Y3716D01*
G01X121120D01*
G01X121070Y3766D01*
G01Y4216D01*
G01X121120Y4266D01*
G01X121650D01*
G01X121700Y4216D01*
G37*
G01X121700Y4216D02*
G01X121700Y3766D01*
G01X121650Y3716D01*
G01X121120D01*
G01X121070Y3766D01*
G01Y4216D01*
G01X121120Y4266D01*
G01X121650D01*
G01X121700Y4216D01*
G36*
G01X120670Y4216D02*
G01X120670Y3766D01*
G01X120620Y3716D01*
G01X120090D01*
G01X120040Y3766D01*
G01Y4216D01*
G01X120090Y4266D01*
G01X120620D01*
G01X120670Y4216D01*
G37*
G01X120670Y4216D02*
G01X120670Y3766D01*
G01X120620Y3716D01*
G01X120090D01*
G01X120040Y3766D01*
G01Y4216D01*
G01X120090Y4266D01*
G01X120620D01*
G01X120670Y4216D01*
G04 PolygonModel End*

G04 Pad Start*
G54D11*
G01X114266Y5424D03*
G54D12*
G01X112816Y3574D03*
G01X112816Y5424D03*
G01X114266Y3574D03*
G54D13*
G01X118782Y12503D03*
G01X118782Y14403D03*
G01X121382Y14403D03*
G01X121382Y13453D03*
G01X121382Y12503D03*
G54D14*
G01X114620Y12503D03*
G01X114620Y14403D03*
G01X117162Y14403D03*
G01X117162Y13453D03*
G01X117162Y12503D03*
G54D16*
G01X113922Y-8879D03*
G01X113922Y-11079D03*
G04 Pad End*

M02*
