G04 Layer: BottomSolderMaskLayer*
G04 EasyEDA Pro v1.9.26, 2023-01-09 17:51:20*
G04 Gerber Generator version 0.3*
G04 Scale: 100 percent, Rotated: No, Reflected: No*
G04 Dimensions in millimeters*
G04 Leading zeros omitted, absolute positions, 3 integers and 3 decimals*
%FSLAX33Y33*%
%MOMM*%
%AMOval*1,1,$1,$2,$3*1,1,$1,$4,$5*20,1,$1,$2,$3,$4,$5,0*%
%ADD10Oval,1.300023X0.0X-0.399999X0.0X0.399999*%
%ADD11Oval,1.300023X0.0X-0.299999X0.0X0.299999*%
%ADD12C,1.901596*%
%ADD13R,1.901596X1.901596*%
%ADD14R,1.701597X1.751609*%
%ADD15C,1.751609*%
%ADD16R,0.641604X0.667258*%
%ADD17R,0.965606X0.908075*%
%ADD18R,1.60274X1.50368*%
%ADD19R,0.901598X1.001598*%
%ADD20R,1.201598X0.901598*%
%ADD21Oval,0.38161X0.0X-0.670001X0.0X0.670001*%
%ADD22Oval,0.661594X0.0X-0.592506X0.0X0.592506*%
%ADD23R,0.701599X1.601597*%
%ADD24R,2.901594X2.501595*%
%ADD25Oval,0.4572X0.0X-0.729602X0.0X0.729602*%
%ADD26R,1.001598X0.901598*%
G75*


G04 Pad Start*
G54D10*
G01X121422Y20200D03*
G01X112772Y20200D03*
G54D11*
G01X121422Y24400D03*
G01X112772Y24400D03*
G54D12*
G01X112017Y-20139D03*
G01X112017Y-17599D03*
G01X114557Y-20139D03*
G01X114557Y-17599D03*
G01X117097Y-20139D03*
G01X117097Y-17599D03*
G01X119637Y-20139D03*
G01X119637Y-17599D03*
G01X122177Y-20139D03*
G54D13*
G01X122177Y-17599D03*
G54D14*
G01X108207Y22279D03*
G54D15*
G01X108207Y19739D03*
G01X108207Y17199D03*
G01X108207Y14659D03*
G01X108207Y12119D03*
G01X108207Y9579D03*
G01X108207Y7039D03*
G01X108207Y4499D03*
G01X108207Y1959D03*
G01X108207Y-581D03*
G01X108207Y-3121D03*
G01X108207Y-5661D03*
G01X108207Y-8201D03*
G01X108207Y-10741D03*
G01X108207Y-13281D03*
G01X108207Y-15821D03*
G01X108207Y-18361D03*
G01X108207Y-20901D03*
G54D16*
G01X114938Y-3323D03*
G01X114938Y-4188D03*
G54D17*
G01X114811Y-5542D03*
G01X114811Y-7049D03*
G54D18*
G01X111128Y-6550D03*
G01X111128Y-4449D03*
G54D19*
G01X122301Y14532D03*
G01X123701Y14532D03*
G54D20*
G01X123712Y17393D03*
G01X123712Y16243D03*
G01X121912Y16244D03*
G01X121912Y17394D03*
G54D14*
G01X125987Y22279D03*
G54D15*
G01X125987Y19739D03*
G01X125987Y17199D03*
G01X125987Y14659D03*
G01X125987Y12119D03*
G01X125987Y9579D03*
G01X125987Y7039D03*
G01X125987Y4499D03*
G01X125987Y1959D03*
G01X125987Y-581D03*
G01X125987Y-3121D03*
G01X125987Y-5661D03*
G01X125987Y-8201D03*
G01X125987Y-10741D03*
G01X125987Y-13281D03*
G01X125987Y-15821D03*
G01X125987Y-18361D03*
G01X125987Y-20901D03*
G54D21*
G01X123177Y-3834D03*
G01X122677Y-3834D03*
G01X122177Y-3834D03*
G01X121677Y-3834D03*
G01X121177Y-3834D03*
G01X123177Y386D03*
G01X122677Y386D03*
G01X122177Y386D03*
G01X121677Y386D03*
G01X121177Y386D03*
G54D22*
G01X120399Y-15137D03*
G01X119129Y-15137D03*
G01X117859Y-15137D03*
G01X116589Y-15137D03*
G01X115319Y-15137D03*
G01X114049Y-15137D03*
G01X112779Y-15137D03*
G01X111509Y-15137D03*
G01X120399Y-9392D03*
G01X119129Y-9392D03*
G01X117859Y-9392D03*
G01X116589Y-9392D03*
G01X115319Y-9392D03*
G01X114049Y-9392D03*
G01X112779Y-9392D03*
G01X111509Y-9392D03*
G54D23*
G01X118494Y8944D03*
G01X119494Y8944D03*
G01X120494Y8944D03*
G01X121494Y8944D03*
G01X122494Y8944D03*
G01X122494Y3445D03*
G01X121494Y3445D03*
G01X120494Y3445D03*
G01X119494Y3445D03*
G01X118494Y3445D03*
G54D24*
G01X120494Y6195D03*
G54D25*
G01X116145Y16933D03*
G01X116780Y16933D03*
G01X117415Y16933D03*
G01X118050Y16933D03*
G01X118685Y16933D03*
G01X119320Y16933D03*
G01X119955Y16933D03*
G01X120590Y16933D03*
G01X116145Y11624D03*
G01X116780Y11624D03*
G01X117415Y11624D03*
G01X118050Y11624D03*
G01X118685Y11624D03*
G01X119320Y11624D03*
G01X119955Y11624D03*
G01X120590Y11624D03*
G54D26*
G01X123320Y20566D03*
G01X123320Y19166D03*
G04 Pad End*

M02*
