G04 Layer: InnerLayer1*
G04 EasyEDA Pro v1.9.26, 2023-01-09 17:51:20*
G04 Gerber Generator version 0.3*
G04 Scale: 100 percent, Rotated: No, Reflected: No*
G04 Dimensions in millimeters*
G04 Leading zeros omitted, absolute positions, 3 integers and 3 decimals*
%FSLAX33Y33*%
%MOMM*%
%AMOval*1,1,$1,$2,$3*1,1,$1,$4,$5*20,1,$1,$2,$3,$4,$5,0*%
%ADD999C,0.2032*%
%ADD10C,0.254*%
%ADD11C,0.00508*%
%ADD12Oval,1.199998X0.0X-0.399999X0.0X0.399999*%
%ADD13Oval,1.199998X0.0X-0.299999X0.0X0.299999*%
%ADD14C,1.799996*%
%ADD15R,1.8053X1.799996*%
%ADD16R,1.799996X1.799996*%
%ADD17R,1.599997X1.650009*%
%ADD18C,1.650009*%
%ADD19C,0.610001*%
%ADD20C,0.450002*%
%ADD21C,0.499999*%
%ADD22C,0.599999*%
%ADD23C,0.6096*%
%ADD24C,0.508*%
%ADD25C,0.381*%
%ADD26C,0.762*%
%ADD27C,0.2*%
G75*


G04 Copper Start*
G36*
G01X107003Y-22988D02*
G02X105274Y-19143I3411J3845D01*
G01Y21483D01*
G02X110415Y26623I5140J0D01*
G01X123855D01*
G02X128996Y21483I0J-5140D01*
G01Y-19143D01*
G02X127267Y-22988I-5140J0D01*
G01X107003D01*
G37*
%LPC*%
G36*
G01X119637Y-21397D02*
G03X120896Y-20139I0J1258D01*
G03X119637Y-18880I-1258J0D01*
G03X119225Y-18950I0J-1258D01*
G01X118943Y-18668D01*
G01Y-18648D01*
G03X119637Y-18857I694J1049D01*
G03X120896Y-17599I0J1258D01*
G03X119637Y-16340I-1258J0D01*
G03X118980Y-16526I0J-1258D01*
G01Y-15701D01*
G03X119129Y-15720I149J564D01*
G03X119713Y-15137I0J583D01*
G03X119129Y-14554I-583J0D01*
G03X118980Y-14573I0J-583D01*
G01Y-6623D01*
G03X118820Y-6235I-549J0D01*
G01X118120Y-5535D01*
G01X117371Y-4786D01*
G03X116843Y-4451I-528J-248D01*
G03X116752Y-4458I0J-583D01*
G01Y5267D01*
G01X117088Y5603D01*
G03X117267Y6035I-433J433D01*
G01Y7655D01*
G01X117807Y7115D01*
G03X118240Y6936I433J433D01*
G01X120855D01*
G01X122582Y5210D01*
G03X123015Y5030I433J433D01*
G03X123122Y5040I0J612D01*
G01X122647Y4565D01*
G01X121494D01*
G03X120882Y3953I0J-612D01*
G03X121494Y3340I612J0D01*
G01X122901D01*
G03X123333Y3520I0J612D01*
G01X123432Y3618D01*
G03X123880Y3408I448J373D01*
G03X124463Y3991I0J583D01*
G03X124253Y4440I-583J0D01*
G01X124388Y4575D01*
G03X124568Y5007I-433J433D01*
G01Y6995D01*
G03X124388Y7428I-612J0D01*
G01X121214Y10603D01*
G01Y10933D01*
G01X121656Y11375D01*
G03X121835Y11808I-433J433D01*
G01Y12498D01*
G03X121223Y13110I-612J0D01*
G03X120611Y12498I0J-612D01*
G01Y12062D01*
G01X120169Y11619D01*
G03X119989Y11186I433J-433D01*
G01Y10349D01*
G03X120169Y9916I612J0D01*
G01X121096Y8989D01*
G03X120911Y8563I398J-426D01*
G03X121073Y8160I583J0D01*
G01X118493D01*
G01X117710Y8944D01*
G01Y9325D01*
G03X117097Y9938I-612J0D01*
G03X116665Y9758I0J-612D01*
G01X116222Y9316D01*
G03X116043Y8883I433J-433D01*
G01Y6289D01*
G01X115707Y5954D01*
G03X115528Y5521I433J-433D01*
G01Y-5838D01*
G03X115707Y-6270I612J0D01*
G01X116390Y-6953D01*
G01X115826D01*
G01X113986Y-5113D01*
G03X113414Y-4645I-572J-114D01*
G03X112831Y-5228I0J-583D01*
G03X113300Y-5800I583J0D01*
G01X115282Y-7782D01*
G03X115625Y-7924I343J343D01*
G01X117224D01*
G03X117567Y-7782I0J485D01*
G01X117883Y-7466D01*
G01Y-10407D01*
G01X117864D01*
G03X117281Y-10990I0J-583D01*
G03X117864Y-11573I583J0D01*
G01X117883D01*
G01Y-12825D01*
G01X117670Y-13038D01*
G03X117201Y-13610I114J-572D01*
G03X117784Y-14193I583J0D01*
G03X117883Y-14184I0J583D01*
G01Y-14681D01*
G01X117859D01*
G03X117276Y-15264I0J-583D01*
G03X117859Y-15847I583J0D01*
G01X117883D01*
G01Y-16616D01*
G03X117097Y-16340I-786J-983D01*
G03X115839Y-17599I0J-1258D01*
G03X117097Y-18857I1258J0D01*
G03X117846Y-18610I0J1258D01*
G01Y-18896D01*
G03X117942Y-19206I549J0D01*
G03X117097Y-18880I-845J-932D01*
G03X115839Y-20139I0J-1258D01*
G03X117097Y-21397I1258J0D01*
G03X118356Y-20139I0J1258D01*
G03X118095Y-19372I-1258J0D01*
G01X118449Y-19726D01*
G03X118379Y-20139I1189J-413D01*
G03X119637Y-21397I1258J0D01*
G37*
G36*
G01X107024Y-10741D02*
G03X108207Y-11924I1183J0D01*
G03X109391Y-10741I0J1183D01*
G03X109356Y-10457I-1183J0D01*
G01X110672Y-9141D01*
G03X110852Y-8709I-433J433D01*
G01Y-8258D01*
G03X111128Y-8328I277J513D01*
G03X111712Y-7744I0J583D01*
G03X111523Y-7315I-583J0D01*
G03X111712Y-6886I-395J429D01*
G03X111128Y-6303I-583J0D01*
G03X110852Y-6373I0J-583D01*
G01Y3986D01*
G01X111982Y5116D01*
G01Y3377D01*
G03X112687Y2672I705J0D01*
G01X114306D01*
G03X115011Y3377I0J705D01*
G01Y5606D01*
G03X114306Y6311I-705J0D01*
G01X113177D01*
G01X114983Y8118D01*
G03X115199Y8076I216J542D01*
G03X115783Y8659I0J583D01*
G03X115199Y9242I-583J0D01*
G01Y9271D01*
G03X115020Y9704I-612J0D01*
G01X114946Y9779D01*
G01Y10921D01*
G01X115052Y11028D01*
G03X115232Y11461I-433J433D01*
G01Y12503D01*
G03X114620Y13115I-612J0D01*
G03X114008Y12503I0J-612D01*
G01Y11714D01*
G01X113901Y11607D01*
G03X113721Y11174I433J-433D01*
G01Y9525D01*
G03X113901Y9092I612J0D01*
G01X113965Y9028D01*
G03X113956Y8921I603J-107D01*
G01Y8822D01*
G01X113448Y8314D01*
G03X113023Y8499I-426J-398D01*
G03X112439Y7915I0J-583D01*
G03X112624Y7490I583J0D01*
G01X109807Y4672D01*
G03X109627Y4239I433J-433D01*
G01Y-8455D01*
G01X108490Y-9592D01*
G03X108207Y-9557I-283J-1149D01*
G03X107024Y-10741I0J-1183D01*
G37*
G36*
G01X113351Y14328D02*
G03X113784Y14507I0J612D01*
G01X114818Y15541D01*
G03X114997Y15974I-433J433D01*
G01Y16773D01*
G01X116236Y18012D01*
G03X116720Y17772I484J368D01*
G03X117097Y17903I0J608D01*
G03X117474Y17772I377J477D01*
G03X118083Y18380I0J608D01*
G03X117474Y18989I-608J0D01*
G03X117097Y18858I0J-608D01*
G01X117088Y18865D01*
G01X117520Y19296D01*
G01X118109D01*
G03X118542Y19475I0J612D01*
G01X118912Y19845D01*
G03X118950Y19888I-433J433D01*
G01X119395Y20332D01*
G03X119987Y20012I592J388D01*
G03X120464Y20197I0J708D01*
G01Y19800D01*
G03X121422Y18842I958J0D01*
G03X122381Y19800I0J958D01*
G01Y20600D01*
G03X121422Y21558I-958J0D01*
G03X120595Y21084I0J-958D01*
G03X120376Y21313I-608J-363D01*
G01X120730Y21667D01*
G01X124829D01*
G01Y21454D01*
G03X125187Y21096I358J0D01*
G01X126787D01*
G03X127146Y21454I0J358D01*
G01Y23104D01*
G03X126787Y23463I-358J0D01*
G01X125187D01*
G03X124829Y23104I0J-358D01*
G01Y22892D01*
G01X120476D01*
G03X120044Y22712I0J-612D01*
G01X118271Y20940D01*
G03X118250Y20961I-424J-400D01*
G03X117351Y21595I-899J-321D01*
G03X116448Y20965I0J-962D01*
G03X116264Y20539I399J-425D01*
G03X116538Y20045I583J0D01*
G01X113952Y17460D01*
G03X113773Y17027I433J-433D01*
G01Y16227D01*
G01X112918Y15373D01*
G03X112739Y14940I433J-433D01*
G03X113351Y14328I612J0D01*
G37*
G36*
G01X112772Y18842D02*
G03X113731Y19800I0J958D01*
G01Y20197D01*
G03X114207Y20012I477J524D01*
G03X114915Y20721I0J708D01*
G03X114207Y21429I-708J0D01*
G03X113600Y21084I0J-708D01*
G03X113512Y21210I-827J-484D01*
G01Y23491D01*
G03X113731Y24100I-739J610D01*
G01Y24700D01*
G03X112772Y25659I-958J0D01*
G03X111814Y24700I0J-958D01*
G01Y24100D01*
G03X112033Y23491I958J0D01*
G01Y21210D01*
G03X111814Y20600I739J-610D01*
G01Y19800D01*
G03X112772Y18842I958J0D01*
G37*
G36*
G01X121006Y16107D02*
G03X121669Y15444I663J0D01*
G01X124032D01*
G03X124695Y16107I0J663D01*
G01Y17530D01*
G03X124032Y18193I-663J0D01*
G01X121680D01*
G03X121097Y18773I-583J-3D01*
G03X120514Y18189I0J-583D01*
G03X121012Y17613I583J0D01*
G03X121006Y17530I658J-83D01*
G01Y16107D01*
G37*
G36*
G01X125987Y-9384D02*
G03X127171Y-8201I0J1183D01*
G03X125987Y-7017I-1183J0D01*
G03X125298Y-7239I0J-1183D01*
G03X125301Y-7185I-581J54D01*
G03X124717Y-6601I-583J0D01*
G03X124134Y-7185I0J-583D01*
G03X124717Y-7768I583J0D01*
G03X124898Y-7739I0J583D01*
G03X124804Y-8201I1089J-462D01*
G03X125987Y-9384I1183J0D01*
G37*
G36*
G01X122177Y-21397D02*
G03X123436Y-20139I0J1258D01*
G03X122177Y-18880I-1258J0D01*
G03X120919Y-20139I0J-1258D01*
G03X122177Y-21397I1258J0D01*
G37*
G36*
G01X114557Y-18857D02*
G03X115816Y-17599I0J1258D01*
G03X114557Y-16340I-1258J0D01*
G03X113299Y-17599I0J-1258D01*
G03X114557Y-18857I1258J0D01*
G37*
G36*
G01X110759Y-20139D02*
G03X112017Y-21397I1258J0D01*
G03X113276Y-20139I0J1258D01*
G03X112017Y-18880I-1258J0D01*
G03X110759Y-20139I0J-1258D01*
G37*
G36*
G01X114557Y-21397D02*
G03X115816Y-20139I0J1258D01*
G03X114557Y-18880I-1258J0D01*
G03X113299Y-20139I0J-1258D01*
G03X114557Y-21397I1258J0D01*
G37*
G36*
G01X120919Y-18499D02*
G03X121277Y-18857I358J0D01*
G01X123077D01*
G03X123436Y-18499I0J358D01*
G01Y-16699D01*
G03X123077Y-16340I-358J0D01*
G01X121277D01*
G03X120919Y-16699I0J-358D01*
G01Y-18499D01*
G37*
G36*
G01X112017Y-18857D02*
G03X113276Y-17599I0J1258D01*
G03X112017Y-16340I-1258J0D01*
G03X110759Y-17599I0J-1258D01*
G03X112017Y-18857I1258J0D01*
G37*
G36*
G01X124804Y-18361D02*
G03X125987Y-19544I1183J0D01*
G03X127171Y-18361I0J1183D01*
G03X125987Y-17177I-1183J0D01*
G03X124804Y-18361I0J-1183D01*
G37*
G36*
G01X124804Y9579D02*
G03X125987Y8396I1183J0D01*
G03X127171Y9579I0J1183D01*
G03X125987Y10763I-1183J0D01*
G03X124804Y9579I0J-1183D01*
G37*
G36*
G01X107024Y-18361D02*
G03X108207Y-19544I1183J0D01*
G03X109391Y-18361I0J1183D01*
G03X108207Y-17177I-1183J0D01*
G03X107024Y-18361I0J-1183D01*
G37*
G36*
G01X107024Y9579D02*
G03X108207Y8396I1183J0D01*
G03X109391Y9579I0J1183D01*
G03X108207Y10763I-1183J0D01*
G03X107024Y9579I0J-1183D01*
G37*
G36*
G01X107024Y-15821D02*
G03X108207Y-17004I1183J0D01*
G03X109391Y-15821I0J1183D01*
G03X108207Y-14637I-1183J0D01*
G03X107024Y-15821I0J-1183D01*
G37*
G36*
G01X107024Y12119D02*
G03X108207Y10936I1183J0D01*
G03X109391Y12119I0J1183D01*
G03X108207Y13303I-1183J0D01*
G03X107024Y12119I0J-1183D01*
G37*
G36*
G01X124804Y-15821D02*
G03X125987Y-17004I1183J0D01*
G03X127171Y-15821I0J1183D01*
G03X125987Y-14637I-1183J0D01*
G03X124804Y-15821I0J-1183D01*
G37*
G36*
G01X124804Y12119D02*
G03X125987Y10936I1183J0D01*
G03X127171Y12119I0J1183D01*
G03X125987Y13303I-1183J0D01*
G03X124804Y12119I0J-1183D01*
G37*
G36*
G01X108207Y-14464D02*
G03X109391Y-13281I0J1183D01*
G03X108207Y-12097I-1183J0D01*
G03X107024Y-13281I0J-1183D01*
G03X108207Y-14464I1183J0D01*
G37*
G36*
G01X107024Y14659D02*
G03X108207Y13476I1183J0D01*
G03X109391Y14659I0J1183D01*
G03X108207Y15843I-1183J0D01*
G03X107024Y14659I0J-1183D01*
G37*
G36*
G01X125987Y-14464D02*
G03X127171Y-13281I0J1183D01*
G03X125987Y-12097I-1183J0D01*
G03X124804Y-13281I0J-1183D01*
G03X125987Y-14464I1183J0D01*
G37*
G36*
G01X124804Y14659D02*
G03X125987Y13476I1183J0D01*
G03X127171Y14659I0J1183D01*
G03X125987Y15843I-1183J0D01*
G03X124804Y14659I0J-1183D01*
G37*
G36*
G01X125987Y-22084D02*
G03X127171Y-20901I0J1183D01*
G03X125987Y-19717I-1183J0D01*
G03X124804Y-20901I0J-1183D01*
G03X125987Y-22084I1183J0D01*
G37*
G36*
G01X124804Y19739D02*
G03X125987Y18556I1183J0D01*
G03X127171Y19739I0J1183D01*
G03X125987Y20923I-1183J0D01*
G03X124804Y19739I0J-1183D01*
G37*
G36*
G01X124804Y-10741D02*
G03X125987Y-11924I1183J0D01*
G03X127171Y-10741I0J1183D01*
G03X125987Y-9557I-1183J0D01*
G03X124804Y-10741I0J-1183D01*
G37*
G36*
G01X107024Y19739D02*
G03X108207Y18556I1183J0D01*
G03X109391Y19739I0J1183D01*
G03X108207Y20923I-1183J0D01*
G03X107024Y19739I0J-1183D01*
G37*
G36*
G01X107024Y-20901D02*
G03X108207Y-22084I1183J0D01*
G03X109391Y-20901I0J1183D01*
G03X108207Y-19717I-1183J0D01*
G03X107024Y-20901I0J-1183D01*
G37*
G36*
G01X108207Y16016D02*
G03X109391Y17199I0J1183D01*
G03X108207Y18383I-1183J0D01*
G03X107024Y17199I0J-1183D01*
G03X108207Y16016I1183J0D01*
G37*
G36*
G01X124804Y17199D02*
G03X125987Y16016I1183J0D01*
G03X127171Y17199I0J1183D01*
G03X125987Y18383I-1183J0D01*
G03X124804Y17199I0J-1183D01*
G37*
G36*
G01X107024Y-8201D02*
G03X108207Y-9384I1183J0D01*
G03X109391Y-8201I0J1183D01*
G03X108207Y-7017I-1183J0D01*
G03X107024Y-8201I0J-1183D01*
G37*
G36*
G01X107024Y7039D02*
G03X108207Y5856I1183J0D01*
G03X109391Y7039I0J1183D01*
G03X108207Y8223I-1183J0D01*
G03X107024Y7039I0J-1183D01*
G37*
G36*
G01X125987Y5856D02*
G03X127171Y7039I0J1183D01*
G03X125987Y8223I-1183J0D01*
G03X124804Y7039I0J-1183D01*
G03X125987Y5856I1183J0D01*
G37*
G36*
G01X125987Y-1764D02*
G03X127171Y-581I0J1183D01*
G03X125987Y603I-1183J0D01*
G03X124804Y-581I0J-1183D01*
G03X125987Y-1764I1183J0D01*
G37*
G36*
G01X108207Y-1764D02*
G03X109391Y-581I0J1183D01*
G03X108207Y603I-1183J0D01*
G03X107024Y-581I0J-1183D01*
G03X108207Y-1764I1183J0D01*
G37*
G36*
G01X108207Y-4304D02*
G03X109391Y-3121I0J1183D01*
G03X108207Y-1937I-1183J0D01*
G03X107024Y-3121I0J-1183D01*
G03X108207Y-4304I1183J0D01*
G37*
G36*
G01X125987Y3316D02*
G03X127171Y4499I0J1183D01*
G03X125987Y5683I-1183J0D01*
G03X124804Y4499I0J-1183D01*
G03X125987Y3316I1183J0D01*
G37*
G36*
G01X124804Y-3121D02*
G03X125987Y-4304I1183J0D01*
G03X127171Y-3121I0J1183D01*
G03X125987Y-1937I-1183J0D01*
G03X124804Y-3121I0J-1183D01*
G37*
G36*
G01X108207Y3316D02*
G03X109391Y4499I0J1183D01*
G03X108207Y5683I-1183J0D01*
G03X107024Y4499I0J-1183D01*
G03X108207Y3316I1183J0D01*
G37*
G36*
G01X125987Y-6844D02*
G03X127171Y-5661I0J1183D01*
G03X125987Y-4477I-1183J0D01*
G03X124804Y-5661I0J-1183D01*
G03X125987Y-6844I1183J0D01*
G37*
G36*
G01X107024Y-5661D02*
G03X108207Y-6844I1183J0D01*
G03X109391Y-5661I0J1183D01*
G03X108207Y-4477I-1183J0D01*
G03X107024Y-5661I0J-1183D01*
G37*
G36*
G01X124804Y1959D02*
G03X125987Y776I1183J0D01*
G03X127171Y1959I0J1183D01*
G03X125987Y3143I-1183J0D01*
G03X124804Y1959I0J-1183D01*
G37*
G36*
G01X108207Y776D02*
G03X109391Y1959I0J1183D01*
G03X108207Y3143I-1183J0D01*
G03X107024Y1959I0J-1183D01*
G03X108207Y776I1183J0D01*
G37*
G36*
G01X107049Y21454D02*
G03X107407Y21096I358J0D01*
G01X109007D01*
G03X109366Y21454I0J358D01*
G01Y23104D01*
G03X109007Y23463I-358J0D01*
G01X107407D01*
G03X107049Y23104I0J-358D01*
G01Y21454D01*
G37*
G36*
G01X120464Y24100D02*
G03X121422Y23142I958J0D01*
G03X122381Y24100I0J958D01*
G01Y24700D01*
G03X121422Y25659I-958J0D01*
G03X120464Y24700I0J-958D01*
G01Y24100D01*
G37*
G36*
G01X118126Y4065D02*
G03X118710Y4648I0J583D01*
G03X118619Y4960I-583J0D01*
G03X118702Y5259I-501J299D01*
G03X118611Y5572I-583J0D01*
G03X118819Y6019I-375J447D01*
G03X118236Y6602I-583J0D01*
G03X117653Y6019I0J-583D01*
G03X117744Y5706I583J0D01*
G03X117536Y5259I375J-447D01*
G03X117626Y4947I583J0D01*
G03X117543Y4648I501J-299D01*
G03X118126Y4065I583J0D01*
G37*
G36*
G01X117162Y13745D02*
G03X117821Y14403I0J658D01*
G03X117162Y15061I-658J0D01*
G03X116504Y14403I0J-658D01*
G03X117162Y13745I658J0D01*
G37*
G36*
G01X112743Y13490D02*
G03X113351Y12882I608J0D01*
G03X113959Y13490I0J608D01*
G03X113351Y14098I-608J0D01*
G03X112743Y13490I0J-608D01*
G37*
G36*
G01X112022Y8484D02*
G03X112605Y9067I0J583D01*
G03X112022Y9650I-583J0D01*
G03X111439Y9067I0J-583D01*
G03X112022Y8484I583J0D01*
G37*
G36*
G01X122742Y11108D02*
G03X123325Y10525I583J0D01*
G03X123908Y11108I0J583D01*
G03X123325Y11691I-583J0D01*
G03X122742Y11108I0J-583D01*
G37*
G36*
G01X121183Y13817D02*
G03X121766Y14400I0J583D01*
G03X121183Y14983I-583J0D01*
G03X120600Y14400I0J-583D01*
G03X121183Y13817I583J0D01*
G37*
G36*
G01X122864Y1175D02*
G03X123447Y592I583J0D01*
G03X124031Y1175I0J583D01*
G03X123447Y1758I-583J0D01*
G03X122864Y1175I0J-583D01*
G37*
G36*
G01X123118Y23498D02*
G03X123701Y22914I583J0D01*
G03X124285Y23498I0J583D01*
G03X123701Y24081I-583J0D01*
G03X123118Y23498I0J-583D01*
G37*
%LPD*%
G54D999*
G01X107003Y-22988D02*
G02X105274Y-19143I3411J3845D01*
G01Y21483D01*
G02X110415Y26623I5140J0D01*
G01X123855D01*
G02X128996Y21483I0J-5140D01*
G01Y-19143D01*
G02X127267Y-22988I-5140J0D01*
G01X107003D01*
G01X119637Y-21397D02*
G03X120896Y-20139I0J1258D01*
G03X119637Y-18880I-1258J0D01*
G03X119225Y-18950I0J-1258D01*
G01X118943Y-18668D01*
G01Y-18648D01*
G03X119637Y-18857I694J1049D01*
G03X120896Y-17599I0J1258D01*
G03X119637Y-16340I-1258J0D01*
G03X118980Y-16526I0J-1258D01*
G01Y-15701D01*
G03X119129Y-15720I149J564D01*
G03X119713Y-15137I0J583D01*
G03X119129Y-14554I-583J0D01*
G03X118980Y-14573I0J-583D01*
G01Y-6623D01*
G03X118820Y-6235I-549J0D01*
G01X118120Y-5535D01*
G01X117371Y-4786D01*
G03X116843Y-4451I-528J-248D01*
G03X116752Y-4458I0J-583D01*
G01Y5267D01*
G01X117088Y5603D01*
G03X117267Y6035I-433J433D01*
G01Y7655D01*
G01X117807Y7115D01*
G03X118240Y6936I433J433D01*
G01X120855D01*
G01X122582Y5210D01*
G03X123015Y5030I433J433D01*
G03X123122Y5040I0J612D01*
G01X122647Y4565D01*
G01X121494D01*
G03X120882Y3953I0J-612D01*
G03X121494Y3340I612J0D01*
G01X122901D01*
G03X123333Y3520I0J612D01*
G01X123432Y3618D01*
G03X123880Y3408I448J373D01*
G03X124463Y3991I0J583D01*
G03X124253Y4440I-583J0D01*
G01X124388Y4575D01*
G03X124568Y5007I-433J433D01*
G01Y6995D01*
G03X124388Y7428I-612J0D01*
G01X121214Y10603D01*
G01Y10933D01*
G01X121656Y11375D01*
G03X121835Y11808I-433J433D01*
G01Y12498D01*
G03X121223Y13110I-612J0D01*
G03X120611Y12498I0J-612D01*
G01Y12062D01*
G01X120169Y11619D01*
G03X119989Y11186I433J-433D01*
G01Y10349D01*
G03X120169Y9916I612J0D01*
G01X121096Y8989D01*
G03X120911Y8563I398J-426D01*
G03X121073Y8160I583J0D01*
G01X118493D01*
G01X117710Y8944D01*
G01Y9325D01*
G03X117097Y9938I-612J0D01*
G03X116665Y9758I0J-612D01*
G01X116222Y9316D01*
G03X116043Y8883I433J-433D01*
G01Y6289D01*
G01X115707Y5954D01*
G03X115528Y5521I433J-433D01*
G01Y-5838D01*
G03X115707Y-6270I612J0D01*
G01X116390Y-6953D01*
G01X115826D01*
G01X113986Y-5113D01*
G03X113414Y-4645I-572J-114D01*
G03X112831Y-5228I0J-583D01*
G03X113300Y-5800I583J0D01*
G01X115282Y-7782D01*
G03X115625Y-7924I343J343D01*
G01X117224D01*
G03X117567Y-7782I0J485D01*
G01X117883Y-7466D01*
G01Y-10407D01*
G01X117864D01*
G03X117281Y-10990I0J-583D01*
G03X117864Y-11573I583J0D01*
G01X117883D01*
G01Y-12825D01*
G01X117670Y-13038D01*
G03X117201Y-13610I114J-572D01*
G03X117784Y-14193I583J0D01*
G03X117883Y-14184I0J583D01*
G01Y-14681D01*
G01X117859D01*
G03X117276Y-15264I0J-583D01*
G03X117859Y-15847I583J0D01*
G01X117883D01*
G01Y-16616D01*
G03X117097Y-16340I-786J-983D01*
G03X115839Y-17599I0J-1258D01*
G03X117097Y-18857I1258J0D01*
G03X117846Y-18610I0J1258D01*
G01Y-18896D01*
G03X117942Y-19206I549J0D01*
G03X117097Y-18880I-845J-932D01*
G03X115839Y-20139I0J-1258D01*
G03X117097Y-21397I1258J0D01*
G03X118356Y-20139I0J1258D01*
G03X118095Y-19372I-1258J0D01*
G01X118449Y-19726D01*
G03X118379Y-20139I1189J-413D01*
G03X119637Y-21397I1258J0D01*
G01X107024Y-10741D02*
G03X108207Y-11924I1183J0D01*
G03X109391Y-10741I0J1183D01*
G03X109356Y-10457I-1183J0D01*
G01X110672Y-9141D01*
G03X110852Y-8709I-433J433D01*
G01Y-8258D01*
G03X111128Y-8328I277J513D01*
G03X111712Y-7744I0J583D01*
G03X111523Y-7315I-583J0D01*
G03X111712Y-6886I-395J429D01*
G03X111128Y-6303I-583J0D01*
G03X110852Y-6373I0J-583D01*
G01Y3986D01*
G01X111982Y5116D01*
G01Y3377D01*
G03X112687Y2672I705J0D01*
G01X114306D01*
G03X115011Y3377I0J705D01*
G01Y5606D01*
G03X114306Y6311I-705J0D01*
G01X113177D01*
G01X114983Y8118D01*
G03X115199Y8076I216J542D01*
G03X115783Y8659I0J583D01*
G03X115199Y9242I-583J0D01*
G01Y9271D01*
G03X115020Y9704I-612J0D01*
G01X114946Y9779D01*
G01Y10921D01*
G01X115052Y11028D01*
G03X115232Y11461I-433J433D01*
G01Y12503D01*
G03X114620Y13115I-612J0D01*
G03X114008Y12503I0J-612D01*
G01Y11714D01*
G01X113901Y11607D01*
G03X113721Y11174I433J-433D01*
G01Y9525D01*
G03X113901Y9092I612J0D01*
G01X113965Y9028D01*
G03X113956Y8921I603J-107D01*
G01Y8822D01*
G01X113448Y8314D01*
G03X113023Y8499I-426J-398D01*
G03X112439Y7915I0J-583D01*
G03X112624Y7490I583J0D01*
G01X109807Y4672D01*
G03X109627Y4239I433J-433D01*
G01Y-8455D01*
G01X108490Y-9592D01*
G03X108207Y-9557I-283J-1149D01*
G03X107024Y-10741I0J-1183D01*
G01X113351Y14328D02*
G03X113784Y14507I0J612D01*
G01X114818Y15541D01*
G03X114997Y15974I-433J433D01*
G01Y16773D01*
G01X116236Y18012D01*
G03X116720Y17772I484J368D01*
G03X117097Y17903I0J608D01*
G03X117474Y17772I377J477D01*
G03X118083Y18380I0J608D01*
G03X117474Y18989I-608J0D01*
G03X117097Y18858I0J-608D01*
G01X117088Y18865D01*
G01X117520Y19296D01*
G01X118109D01*
G03X118542Y19475I0J612D01*
G01X118912Y19845D01*
G03X118950Y19888I-433J433D01*
G01X119395Y20332D01*
G03X119987Y20012I592J388D01*
G03X120464Y20197I0J708D01*
G01Y19800D01*
G03X121422Y18842I958J0D01*
G03X122381Y19800I0J958D01*
G01Y20600D01*
G03X121422Y21558I-958J0D01*
G03X120595Y21084I0J-958D01*
G03X120376Y21313I-608J-363D01*
G01X120730Y21667D01*
G01X124829D01*
G01Y21454D01*
G03X125187Y21096I358J0D01*
G01X126787D01*
G03X127146Y21454I0J358D01*
G01Y23104D01*
G03X126787Y23463I-358J0D01*
G01X125187D01*
G03X124829Y23104I0J-358D01*
G01Y22892D01*
G01X120476D01*
G03X120044Y22712I0J-612D01*
G01X118271Y20940D01*
G03X118250Y20961I-424J-400D01*
G03X117351Y21595I-899J-321D01*
G03X116448Y20965I0J-962D01*
G03X116264Y20539I399J-425D01*
G03X116538Y20045I583J0D01*
G01X113952Y17460D01*
G03X113773Y17027I433J-433D01*
G01Y16227D01*
G01X112918Y15373D01*
G03X112739Y14940I433J-433D01*
G03X113351Y14328I612J0D01*
G01X112772Y18842D02*
G03X113731Y19800I0J958D01*
G01Y20197D01*
G03X114207Y20012I477J524D01*
G03X114915Y20721I0J708D01*
G03X114207Y21429I-708J0D01*
G03X113600Y21084I0J-708D01*
G03X113512Y21210I-827J-484D01*
G01Y23491D01*
G03X113731Y24100I-739J610D01*
G01Y24700D01*
G03X112772Y25659I-958J0D01*
G03X111814Y24700I0J-958D01*
G01Y24100D01*
G03X112033Y23491I958J0D01*
G01Y21210D01*
G03X111814Y20600I739J-610D01*
G01Y19800D01*
G03X112772Y18842I958J0D01*
G01X121006Y16107D02*
G03X121669Y15444I663J0D01*
G01X124032D01*
G03X124695Y16107I0J663D01*
G01Y17530D01*
G03X124032Y18193I-663J0D01*
G01X121680D01*
G03X121097Y18773I-583J-3D01*
G03X120514Y18189I0J-583D01*
G03X121012Y17613I583J0D01*
G03X121006Y17530I658J-83D01*
G01Y16107D01*
G01X125987Y-9384D02*
G03X127171Y-8201I0J1183D01*
G03X125987Y-7017I-1183J0D01*
G03X125298Y-7239I0J-1183D01*
G03X125301Y-7185I-581J54D01*
G03X124717Y-6601I-583J0D01*
G03X124134Y-7185I0J-583D01*
G03X124717Y-7768I583J0D01*
G03X124898Y-7739I0J583D01*
G03X124804Y-8201I1089J-462D01*
G03X125987Y-9384I1183J0D01*
G01X122177Y-21397D02*
G03X123436Y-20139I0J1258D01*
G03X122177Y-18880I-1258J0D01*
G03X120919Y-20139I0J-1258D01*
G03X122177Y-21397I1258J0D01*
G01X114557Y-18857D02*
G03X115816Y-17599I0J1258D01*
G03X114557Y-16340I-1258J0D01*
G03X113299Y-17599I0J-1258D01*
G03X114557Y-18857I1258J0D01*
G01X110759Y-20139D02*
G03X112017Y-21397I1258J0D01*
G03X113276Y-20139I0J1258D01*
G03X112017Y-18880I-1258J0D01*
G03X110759Y-20139I0J-1258D01*
G01X114557Y-21397D02*
G03X115816Y-20139I0J1258D01*
G03X114557Y-18880I-1258J0D01*
G03X113299Y-20139I0J-1258D01*
G03X114557Y-21397I1258J0D01*
G01X120919Y-18499D02*
G03X121277Y-18857I358J0D01*
G01X123077D01*
G03X123436Y-18499I0J358D01*
G01Y-16699D01*
G03X123077Y-16340I-358J0D01*
G01X121277D01*
G03X120919Y-16699I0J-358D01*
G01Y-18499D01*
G01X112017Y-18857D02*
G03X113276Y-17599I0J1258D01*
G03X112017Y-16340I-1258J0D01*
G03X110759Y-17599I0J-1258D01*
G03X112017Y-18857I1258J0D01*
G01X124804Y-18361D02*
G03X125987Y-19544I1183J0D01*
G03X127171Y-18361I0J1183D01*
G03X125987Y-17177I-1183J0D01*
G03X124804Y-18361I0J-1183D01*
G01X124804Y9579D02*
G03X125987Y8396I1183J0D01*
G03X127171Y9579I0J1183D01*
G03X125987Y10763I-1183J0D01*
G03X124804Y9579I0J-1183D01*
G01X107024Y-18361D02*
G03X108207Y-19544I1183J0D01*
G03X109391Y-18361I0J1183D01*
G03X108207Y-17177I-1183J0D01*
G03X107024Y-18361I0J-1183D01*
G01X107024Y9579D02*
G03X108207Y8396I1183J0D01*
G03X109391Y9579I0J1183D01*
G03X108207Y10763I-1183J0D01*
G03X107024Y9579I0J-1183D01*
G01X107024Y-15821D02*
G03X108207Y-17004I1183J0D01*
G03X109391Y-15821I0J1183D01*
G03X108207Y-14637I-1183J0D01*
G03X107024Y-15821I0J-1183D01*
G01X107024Y12119D02*
G03X108207Y10936I1183J0D01*
G03X109391Y12119I0J1183D01*
G03X108207Y13303I-1183J0D01*
G03X107024Y12119I0J-1183D01*
G01X124804Y-15821D02*
G03X125987Y-17004I1183J0D01*
G03X127171Y-15821I0J1183D01*
G03X125987Y-14637I-1183J0D01*
G03X124804Y-15821I0J-1183D01*
G01X124804Y12119D02*
G03X125987Y10936I1183J0D01*
G03X127171Y12119I0J1183D01*
G03X125987Y13303I-1183J0D01*
G03X124804Y12119I0J-1183D01*
G01X108207Y-14464D02*
G03X109391Y-13281I0J1183D01*
G03X108207Y-12097I-1183J0D01*
G03X107024Y-13281I0J-1183D01*
G03X108207Y-14464I1183J0D01*
G01X107024Y14659D02*
G03X108207Y13476I1183J0D01*
G03X109391Y14659I0J1183D01*
G03X108207Y15843I-1183J0D01*
G03X107024Y14659I0J-1183D01*
G01X125987Y-14464D02*
G03X127171Y-13281I0J1183D01*
G03X125987Y-12097I-1183J0D01*
G03X124804Y-13281I0J-1183D01*
G03X125987Y-14464I1183J0D01*
G01X124804Y14659D02*
G03X125987Y13476I1183J0D01*
G03X127171Y14659I0J1183D01*
G03X125987Y15843I-1183J0D01*
G03X124804Y14659I0J-1183D01*
G01X125987Y-22084D02*
G03X127171Y-20901I0J1183D01*
G03X125987Y-19717I-1183J0D01*
G03X124804Y-20901I0J-1183D01*
G03X125987Y-22084I1183J0D01*
G01X124804Y19739D02*
G03X125987Y18556I1183J0D01*
G03X127171Y19739I0J1183D01*
G03X125987Y20923I-1183J0D01*
G03X124804Y19739I0J-1183D01*
G01X124804Y-10741D02*
G03X125987Y-11924I1183J0D01*
G03X127171Y-10741I0J1183D01*
G03X125987Y-9557I-1183J0D01*
G03X124804Y-10741I0J-1183D01*
G01X107024Y19739D02*
G03X108207Y18556I1183J0D01*
G03X109391Y19739I0J1183D01*
G03X108207Y20923I-1183J0D01*
G03X107024Y19739I0J-1183D01*
G01X107024Y-20901D02*
G03X108207Y-22084I1183J0D01*
G03X109391Y-20901I0J1183D01*
G03X108207Y-19717I-1183J0D01*
G03X107024Y-20901I0J-1183D01*
G01X108207Y16016D02*
G03X109391Y17199I0J1183D01*
G03X108207Y18383I-1183J0D01*
G03X107024Y17199I0J-1183D01*
G03X108207Y16016I1183J0D01*
G01X124804Y17199D02*
G03X125987Y16016I1183J0D01*
G03X127171Y17199I0J1183D01*
G03X125987Y18383I-1183J0D01*
G03X124804Y17199I0J-1183D01*
G01X107024Y-8201D02*
G03X108207Y-9384I1183J0D01*
G03X109391Y-8201I0J1183D01*
G03X108207Y-7017I-1183J0D01*
G03X107024Y-8201I0J-1183D01*
G01X107024Y7039D02*
G03X108207Y5856I1183J0D01*
G03X109391Y7039I0J1183D01*
G03X108207Y8223I-1183J0D01*
G03X107024Y7039I0J-1183D01*
G01X125987Y5856D02*
G03X127171Y7039I0J1183D01*
G03X125987Y8223I-1183J0D01*
G03X124804Y7039I0J-1183D01*
G03X125987Y5856I1183J0D01*
G01X125987Y-1764D02*
G03X127171Y-581I0J1183D01*
G03X125987Y603I-1183J0D01*
G03X124804Y-581I0J-1183D01*
G03X125987Y-1764I1183J0D01*
G01X108207Y-1764D02*
G03X109391Y-581I0J1183D01*
G03X108207Y603I-1183J0D01*
G03X107024Y-581I0J-1183D01*
G03X108207Y-1764I1183J0D01*
G01X108207Y-4304D02*
G03X109391Y-3121I0J1183D01*
G03X108207Y-1937I-1183J0D01*
G03X107024Y-3121I0J-1183D01*
G03X108207Y-4304I1183J0D01*
G01X125987Y3316D02*
G03X127171Y4499I0J1183D01*
G03X125987Y5683I-1183J0D01*
G03X124804Y4499I0J-1183D01*
G03X125987Y3316I1183J0D01*
G01X124804Y-3121D02*
G03X125987Y-4304I1183J0D01*
G03X127171Y-3121I0J1183D01*
G03X125987Y-1937I-1183J0D01*
G03X124804Y-3121I0J-1183D01*
G01X108207Y3316D02*
G03X109391Y4499I0J1183D01*
G03X108207Y5683I-1183J0D01*
G03X107024Y4499I0J-1183D01*
G03X108207Y3316I1183J0D01*
G01X125987Y-6844D02*
G03X127171Y-5661I0J1183D01*
G03X125987Y-4477I-1183J0D01*
G03X124804Y-5661I0J-1183D01*
G03X125987Y-6844I1183J0D01*
G01X107024Y-5661D02*
G03X108207Y-6844I1183J0D01*
G03X109391Y-5661I0J1183D01*
G03X108207Y-4477I-1183J0D01*
G03X107024Y-5661I0J-1183D01*
G01X124804Y1959D02*
G03X125987Y776I1183J0D01*
G03X127171Y1959I0J1183D01*
G03X125987Y3143I-1183J0D01*
G03X124804Y1959I0J-1183D01*
G01X108207Y776D02*
G03X109391Y1959I0J1183D01*
G03X108207Y3143I-1183J0D01*
G03X107024Y1959I0J-1183D01*
G03X108207Y776I1183J0D01*
G01X107049Y21454D02*
G03X107407Y21096I358J0D01*
G01X109007D01*
G03X109366Y21454I0J358D01*
G01Y23104D01*
G03X109007Y23463I-358J0D01*
G01X107407D01*
G03X107049Y23104I0J-358D01*
G01Y21454D01*
G01X120464Y24100D02*
G03X121422Y23142I958J0D01*
G03X122381Y24100I0J958D01*
G01Y24700D01*
G03X121422Y25659I-958J0D01*
G03X120464Y24700I0J-958D01*
G01Y24100D01*
G01X118126Y4065D02*
G03X118710Y4648I0J583D01*
G03X118619Y4960I-583J0D01*
G03X118702Y5259I-501J299D01*
G03X118611Y5572I-583J0D01*
G03X118819Y6019I-375J447D01*
G03X118236Y6602I-583J0D01*
G03X117653Y6019I0J-583D01*
G03X117744Y5706I583J0D01*
G03X117536Y5259I375J-447D01*
G03X117626Y4947I583J0D01*
G03X117543Y4648I501J-299D01*
G03X118126Y4065I583J0D01*
G01X117162Y13745D02*
G03X117821Y14403I0J658D01*
G03X117162Y15061I-658J0D01*
G03X116504Y14403I0J-658D01*
G03X117162Y13745I658J0D01*
G01X112743Y13490D02*
G03X113351Y12882I608J0D01*
G03X113959Y13490I0J608D01*
G03X113351Y14098I-608J0D01*
G03X112743Y13490I0J-608D01*
G01X112022Y8484D02*
G03X112605Y9067I0J583D01*
G03X112022Y9650I-583J0D01*
G03X111439Y9067I0J-583D01*
G03X112022Y8484I583J0D01*
G01X122742Y11108D02*
G03X123325Y10525I583J0D01*
G03X123908Y11108I0J583D01*
G03X123325Y11691I-583J0D01*
G03X122742Y11108I0J-583D01*
G01X121183Y13817D02*
G03X121766Y14400I0J583D01*
G03X121183Y14983I-583J0D01*
G03X120600Y14400I0J-583D01*
G03X121183Y13817I583J0D01*
G01X122864Y1175D02*
G03X123447Y592I583J0D01*
G03X124031Y1175I0J583D01*
G03X123447Y1758I-583J0D01*
G03X122864Y1175I0J-583D01*
G01X123118Y23498D02*
G03X123701Y22914I583J0D01*
G03X124285Y23498I0J583D01*
G03X123701Y24081I-583J0D01*
G03X123118Y23498I0J-583D01*
G54D10*
G01X122177Y-20139D02*
G01X121018Y-20139D01*
G01X122177Y-20139D02*
G01X123336Y-20139D01*
G01X122177Y-20139D02*
G01X122177Y-18979D01*
G01X122177Y-20139D02*
G01X122177Y-21298D01*
G01X112017Y-20139D02*
G01X110858Y-20139D01*
G01X112017Y-20139D02*
G01X113176Y-20139D01*
G01X112017Y-20139D02*
G01X112017Y-18979D01*
G01X112017Y-20139D02*
G01X112017Y-21298D01*
G01X125987Y17199D02*
G01X125987Y18284D01*
G01X125987Y17199D02*
G01X125987Y16115D01*
G01X125987Y17199D02*
G01X127071Y17199D01*
G01X125987Y17199D02*
G01X124903Y17199D01*
G04 Copper End*

G04 Rect Start*
G36*
G01X121365Y17530D02*
G01X121365Y16107D01*
G03X121669Y15802I305J0D01*
G01X124032D01*
G03X124336Y16107I0J305D01*
G01Y17530D01*
G03X124032Y17834I-305J0D01*
G01X121669D01*
G03X121365Y17530I0J-305D01*
G37*
G54D11*
G01X121365Y17530D02*
G01X121365Y16107D01*
G03X121669Y15802I305J0D01*
G01X124032D01*
G03X124336Y16107I0J305D01*
G01Y17530D01*
G03X124032Y17834I-305J0D01*
G01X121669D01*
G03X121365Y17530I0J-305D01*
G36*
G01X112340Y5606D02*
G01X112340Y3377D01*
G03X112687Y3030I347J0D01*
G01X114306D01*
G03X114653Y3377I0J347D01*
G01Y5606D01*
G03X114306Y5953I-347J0D01*
G01X112687D01*
G03X112340Y5606I0J-347D01*
G37*
G01X112340Y5606D02*
G01X112340Y3377D01*
G03X112687Y3030I347J0D01*
G01X114306D01*
G03X114653Y3377I0J347D01*
G01Y5606D01*
G03X114306Y5953I-347J0D01*
G01X112687D01*
G03X112340Y5606I0J-347D01*
G04 Rect End*

G04 Pad Start*
G54D12*
G01X121422Y20200D03*
G01X112772Y20200D03*
G54D13*
G01X121422Y24400D03*
G01X112772Y24400D03*
G54D14*
G01X112017Y-20139D03*
G01X112017Y-17599D03*
G01X114557Y-20139D03*
G01X114557Y-17599D03*
G01X117097Y-20139D03*
G01X117097Y-17599D03*
G01X119637Y-20139D03*
G01X119637Y-17599D03*
G01X122177Y-20139D03*
G54D16*
G01X122177Y-17599D03*
G54D17*
G01X108207Y22279D03*
G54D18*
G01X108207Y19739D03*
G01X108207Y17199D03*
G01X108207Y14659D03*
G01X108207Y12119D03*
G01X108207Y9579D03*
G01X108207Y7039D03*
G01X108207Y4499D03*
G01X108207Y1959D03*
G01X108207Y-581D03*
G01X108207Y-3121D03*
G01X108207Y-5661D03*
G01X108207Y-8201D03*
G01X108207Y-10741D03*
G01X108207Y-13281D03*
G01X108207Y-15821D03*
G01X108207Y-18361D03*
G01X108207Y-20901D03*
G54D17*
G01X125987Y22279D03*
G54D18*
G01X125987Y19739D03*
G01X125987Y17199D03*
G01X125987Y14659D03*
G01X125987Y12119D03*
G01X125987Y9579D03*
G01X125987Y7039D03*
G01X125987Y4499D03*
G01X125987Y1959D03*
G01X125987Y-581D03*
G01X125987Y-3121D03*
G01X125987Y-5661D03*
G01X125987Y-8201D03*
G01X125987Y-10741D03*
G01X125987Y-13281D03*
G01X125987Y-15821D03*
G01X125987Y-18361D03*
G01X125987Y-20901D03*
G04 Pad End*

G04 Via Start*
G54D19*
G01X109625Y-10547D03*
G01X109625Y4693D03*
G01X109625Y7233D03*
G01X109625Y12313D03*
G01X127405Y-18167D03*
G01X127405Y-15627D03*
G54D20*
G01X120172Y15289D03*
G54D19*
G01X109625Y14853D03*
G54D20*
G01X121262Y10913D03*
G01X121223Y12498D03*
G01X121183Y14400D03*
G01X123325Y11108D03*
G54D21*
G01X122554Y10337D03*
G54D19*
G01X124865Y25013D03*
G54D20*
G01X123720Y20366D03*
G54D22*
G01X120297Y19650D03*
G54D20*
G01X121097Y18189D03*
G01X123701Y23498D03*
G01X122483Y-15948D03*
G01X119129Y-15137D03*
G01X117859Y-15264D03*
G01X124717Y-7185D03*
G01X117784Y-13610D03*
G01X119383Y-12773D03*
G54D19*
G01X119785Y25013D03*
G01X107085Y25013D03*
G01X109625Y25013D03*
G01X114705Y25013D03*
G01X109625Y17393D03*
G01X109625Y19933D03*
G01X109625Y22473D03*
G01X109625Y-20707D03*
G01X109625Y-15627D03*
G01X109625Y-13087D03*
G54D20*
G01X111128Y-6886D03*
G01X113414Y-5228D03*
G01X113287Y-7058D03*
G01X111128Y-7744D03*
G01X113414Y-11122D03*
G54D19*
G01X127405Y22473D03*
G01X127405Y-13087D03*
G01X127405Y-10547D03*
G01X127405Y-8007D03*
G01X127405Y-5467D03*
G01X127405Y7233D03*
G01X127405Y9773D03*
G01X127405Y12313D03*
G01X127405Y14853D03*
G01X127405Y17393D03*
G01X127405Y19933D03*
G01X127405Y-20707D03*
G54D20*
G01X118119Y5259D03*
G01X114620Y12503D03*
G01X116916Y5404D03*
G01X115199Y8659D03*
G01X114587Y9271D03*
G54D21*
G01X117097Y9325D03*
G54D20*
G01X116847Y20539D03*
G54D19*
G01X112165Y17393D03*
G54D21*
G01X116720Y18380D03*
G01X113351Y14940D03*
G54D20*
G01X113351Y16030D03*
G54D19*
G01X112165Y14853D03*
G54D20*
G01X113351Y12400D03*
G01X114965Y10913D03*
G01X111251Y9838D03*
G01X112022Y9067D03*
G01X113023Y7915D03*
G54D21*
G01X113351Y13490D03*
G54D20*
G01X118126Y4648D03*
G01X123880Y3991D03*
G01X121494Y3953D03*
G01X121494Y8563D03*
G01X118236Y6019D03*
G01X119134Y6917D03*
G54D21*
G01X123015Y5642D03*
G54D20*
G01X120494Y8563D03*
G01X117864Y-10990D03*
G01X117859Y-9392D03*
G01X116843Y-5034D03*
G01X116843Y-6541D03*
G01X120441Y-4153D03*
G01X123447Y1175D03*
G54D22*
G01X113910Y19638D03*
G54D20*
G01X117847Y20539D03*
G54D21*
G01X117474Y18380D03*
G54D20*
G01X117162Y13453D03*
G54D22*
G01X117162Y14403D03*
G54D23*
G01X117851Y-1080D03*
G01X116851Y-1080D03*
G01X117851Y-80D03*
G01X116851Y-80D03*
G04 Via End*

G04 Track Start*
G54D24*
G01X110239Y-8709D02*
G01X108207Y-10741D01*
G01X110239Y4239D02*
G01X114568Y8568D01*
G54D25*
G01X118395Y-17084D02*
G01X118395Y-18896D01*
G01X119637Y-20139D01*
G54D24*
G01X110239Y4239D02*
G01X110239Y-8709D01*
G54D25*
G01X112847Y-4993D02*
G01X112847Y-10554D01*
G54D24*
G01X117097Y9325D02*
G01X117097Y8690D01*
G01X118240Y7548D01*
G01X117097Y9325D02*
G01X116655Y8883D01*
G01Y6035D01*
G01X116140Y5521D01*
G54D10*
G01X116916Y5404D02*
G01X117622Y4698D01*
G01Y-1334D01*
G54D24*
G01X122554Y10337D02*
G01X121978Y10913D01*
G01X121262D01*
G01X121223Y12498D02*
G01X121223Y11808D01*
G01X120602Y11186D01*
G01Y10349D01*
G54D25*
G01X118432Y-17046D02*
G01X118395Y-17084D01*
G01X118432Y-17046D02*
G01X118432Y-6623D01*
G54D24*
G01X120602Y10349D02*
G01X123955Y6995D01*
G01X125987Y22279D02*
G01X120476Y22279D01*
G01X118479Y20282D01*
G01Y20278D01*
G01X123015Y5642D02*
G01X121109Y7548D01*
G01X118240D01*
G01X123955Y6995D02*
G01X123955Y5007D01*
G01X122901Y3953D01*
G01X121494D01*
G01X118479Y20278D02*
G01X118109Y19908D01*
G01X117266D01*
G54D26*
G01X112772Y24400D02*
G01X112772Y20200D01*
G54D24*
G01X114385Y15974D02*
G01X113351Y14940D01*
G54D10*
G01X113351Y12400D02*
G01X113351Y11938D01*
G54D25*
G01X112847Y-10554D02*
G01X113414Y-11122D01*
G54D24*
G01X114333Y9525D02*
G01X114587Y9271D01*
G01Y8940D01*
G01X114568Y8921D01*
G01Y8568D01*
G01X116140Y-5838D02*
G01X116140Y5521D01*
G54D25*
G01X115767Y10110D02*
G01X115767Y8424D01*
G01X115065Y7722D01*
G01X115065Y-2774D02*
G01X112847Y-4993D01*
G01X115065Y7722D02*
G01X115065Y-2774D01*
G54D10*
G01X117732Y-5923D02*
G01X117732Y-6931D01*
G01X117224Y-7439D01*
G01X115625D01*
G01X113414Y-5228D01*
G01X118367Y-13027D02*
G01X117784Y-13610D01*
G54D25*
G01X113414Y-11122D02*
G01X116130Y-11122D01*
G01X117859Y-9392D01*
G01X116843Y-5034D02*
G01X117732Y-5923D01*
G01X118432Y-6623D01*
G54D24*
G01X116140Y-5838D02*
G01X116843Y-6541D01*
G54D25*
G01X114965Y10913D02*
G01X115767Y10110D01*
G54D27*
G01X116847Y20539D02*
G01X116847Y20632D01*
G54D24*
G01X114620Y12503D02*
G01X114620Y11461D01*
G01X114333Y11174D01*
G01Y9525D01*
G54D10*
G01X113351Y11938D02*
G01X111251Y9838D01*
G01X117622Y-1334D02*
G01X120441Y-4153D01*
G54D27*
G01X117847Y20641D02*
G01X117847Y20539D01*
G54D24*
G01X117266Y19908D02*
G01X114385Y17027D01*
G01Y15974D01*
G54D27*
G01X116847Y20632D02*
G02X117351Y21136I504J0D01*
G02X117847Y20641I0J-496D01*
G04 Track End*

M02*
