G04 Layer: TopSolderMaskLayer*
G04 EasyEDA Pro v1.9.26, 2023-01-09 17:51:20*
G04 Gerber Generator version 0.3*
G04 Scale: 100 percent, Rotated: No, Reflected: No*
G04 Dimensions in millimeters*
G04 Leading zeros omitted, absolute positions, 3 integers and 3 decimals*
%FSLAX33Y33*%
%MOMM*%
%AMOval*1,1,$1,$2,$3*1,1,$1,$4,$5*20,1,$1,$2,$3,$4,$5,0*%
%AMRect*21,1,$1,$2,0,0,$3*%
%ADD10R,0.700024X1.200023*%
%ADD11R,0.400025X1.200023*%
%ADD12Oval,1.300023X0.0X-0.399999X0.0X0.399999*%
%ADD13Oval,1.300023X0.0X-0.299999X0.0X0.299999*%
%ADD14C,1.901596*%
%ADD15R,1.901596X1.901596*%
%ADD16R,1.701597X1.751609*%
%ADD17C,1.751609*%
%ADD18Rect,0.891692X0.641604X135.0*%
%ADD19R,0.891692X0.641604*%
%ADD20R,0.891692X0.641604*%
%ADD21R,0.641604X0.667258*%
%ADD22Rect,0.891692X0.641604X-135.0*%
%ADD23Rect,0.901598X0.965606X135.0*%
%ADD24R,0.900024X1.000023*%
%ADD25R,0.900024X1.000023*%
%ADD26Rect,0.667258X0.641604X45.0*%
%ADD27R,0.667258X0.641604*%
%ADD28Rect,0.667258X0.641604X135.0*%
%ADD29R,0.641604X0.667258*%
%ADD30R,1.101598X0.701599*%
%ADD31R,0.641604X0.891692*%
%ADD32R,0.641604X0.891692*%
%ADD33R,0.965606X0.908075*%
%ADD34R,0.3016X0.766597*%
%ADD35R,0.766597X0.3016*%
%ADD36R,3.901592X3.901592*%
%ADD37Rect,0.891692X0.641604X45.0*%
%ADD38R,1.436599X1.601597*%
%ADD39R,1.101598X0.651612*%
%ADD40R,1.35161X1.101598*%
G75*


G04 Pad Start*
G54D10*
G01X120297Y19650D03*
G01X119497Y19650D03*
G54D11*
G01X118847Y19650D03*
G01X118347Y19650D03*
G01X117847Y19650D03*
G01X117347Y19650D03*
G01X116847Y19650D03*
G01X116347Y19650D03*
G01X115847Y19650D03*
G01X115347Y19650D03*
G54D10*
G01X114697Y19650D03*
G01X113897Y19650D03*
G54D12*
G01X121422Y20200D03*
G01X112772Y20200D03*
G54D13*
G01X121422Y24400D03*
G01X112772Y24400D03*
G54D14*
G01X112017Y-20139D03*
G01X112017Y-17599D03*
G01X114557Y-20139D03*
G01X114557Y-17599D03*
G01X117097Y-20139D03*
G01X117097Y-17599D03*
G01X119637Y-20139D03*
G01X119637Y-17599D03*
G01X122177Y-20139D03*
G54D15*
G01X122177Y-17599D03*
G54D16*
G01X108207Y22279D03*
G54D17*
G01X108207Y19739D03*
G01X108207Y17199D03*
G01X108207Y14659D03*
G01X108207Y12119D03*
G01X108207Y9579D03*
G01X108207Y7039D03*
G01X108207Y4499D03*
G01X108207Y1959D03*
G01X108207Y-581D03*
G01X108207Y-3121D03*
G01X108207Y-5661D03*
G01X108207Y-8201D03*
G01X108207Y-10741D03*
G01X108207Y-13281D03*
G01X108207Y-15821D03*
G01X108207Y-18361D03*
G01X108207Y-20901D03*
G54D18*
G01X111251Y9838D03*
G01X112022Y9067D03*
G54D19*
G01X116055Y10913D03*
G01X114965Y10913D03*
G54D20*
G01X117505Y10913D03*
G01X118595Y10913D03*
G54D21*
G01X113414Y-5228D03*
G01X113414Y-6093D03*
G54D22*
G01X117093Y-11761D03*
G01X117864Y-10990D03*
G54D23*
G01X113023Y7915D03*
G01X114013Y6925D03*
G54D24*
G01X114266Y5424D03*
G54D25*
G01X112816Y3574D03*
G01X112816Y5424D03*
G01X114266Y3574D03*
G54D20*
G01X120172Y15739D03*
G01X121262Y15739D03*
G01X120045Y10913D03*
G01X121135Y10913D03*
G54D26*
G01X117784Y-13610D03*
G01X117172Y-14222D03*
G01X113593Y-14753D03*
G01X112981Y-15365D03*
G54D27*
G01X123015Y5642D03*
G01X123880Y5642D03*
G54D28*
G01X110314Y-4593D03*
G01X110926Y-5205D03*
G54D27*
G01X121618Y-15948D03*
G01X122483Y-15948D03*
G54D29*
G01X118367Y-5712D03*
G01X118367Y-4847D03*
G54D28*
G01X114587Y9271D03*
G01X115199Y8659D03*
G54D21*
G01X123701Y21240D03*
G01X123701Y20374D03*
G54D30*
G01X118782Y12503D03*
G01X118782Y14403D03*
G01X121382Y14403D03*
G01X121382Y13453D03*
G01X121382Y12503D03*
G54D19*
G01X118722Y15739D03*
G01X117632Y15739D03*
G01X115801Y15739D03*
G01X114711Y15739D03*
G54D31*
G01X113351Y13490D03*
G01X113351Y12400D03*
G54D32*
G01X113351Y14940D03*
G01X113351Y16030D03*
G54D33*
G01X116843Y-6541D03*
G01X116843Y-5034D03*
G54D34*
G01X119551Y2327D03*
G01X119152Y2327D03*
G01X118751Y2327D03*
G01X118351Y2327D03*
G01X117951Y2327D03*
G01X117551Y2327D03*
G01X117152Y2327D03*
G01X116751Y2327D03*
G01X116351Y2327D03*
G01X115951Y2327D03*
G01X115551Y2327D03*
G01X115152Y2327D03*
G54D35*
G01X114444Y1619D03*
G01X114444Y1220D03*
G01X114444Y819D03*
G01X114444Y419D03*
G01X114444Y19D03*
G01X114444Y-381D03*
G01X114444Y-780D03*
G01X114444Y-1180D03*
G01X114444Y-1581D03*
G01X114444Y-1981D03*
G01X114444Y-2381D03*
G01X114444Y-2780D03*
G54D34*
G01X115152Y-3488D03*
G01X115551Y-3488D03*
G01X115951Y-3488D03*
G01X116351Y-3488D03*
G01X116751Y-3488D03*
G01X117152Y-3488D03*
G01X117551Y-3488D03*
G01X117951Y-3488D03*
G01X118351Y-3488D03*
G01X118751Y-3488D03*
G01X119152Y-3488D03*
G01X119551Y-3488D03*
G54D35*
G01X120259Y-2780D03*
G01X120259Y-2381D03*
G01X120259Y-1981D03*
G01X120259Y-1581D03*
G01X120259Y-1180D03*
G01X120259Y-780D03*
G01X120259Y-381D03*
G01X120259Y19D03*
G01X120259Y419D03*
G01X120259Y819D03*
G01X120259Y1220D03*
G01X120259Y1619D03*
G54D36*
G01X117351Y-581D03*
G54D16*
G01X125987Y22279D03*
G54D17*
G01X125987Y19739D03*
G01X125987Y17199D03*
G01X125987Y14659D03*
G01X125987Y12119D03*
G01X125987Y9579D03*
G01X125987Y7039D03*
G01X125987Y4499D03*
G01X125987Y1959D03*
G01X125987Y-581D03*
G01X125987Y-3121D03*
G01X125987Y-5661D03*
G01X125987Y-8201D03*
G01X125987Y-10741D03*
G01X125987Y-13281D03*
G01X125987Y-15821D03*
G01X125987Y-18361D03*
G01X125987Y-20901D03*
G54D21*
G01X111128Y-6879D03*
G01X111128Y-7744D03*
G01X110620Y22331D03*
G01X110620Y21466D03*
G54D37*
G01X123325Y11108D03*
G01X122554Y10337D03*
G54D38*
G01X121173Y17748D03*
G01X118888Y17748D03*
G54D37*
G01X119134Y6917D03*
G01X118363Y6146D03*
G54D39*
G01X114620Y12503D03*
G01X114620Y14403D03*
G01X117162Y14403D03*
G01X117162Y13453D03*
G01X117162Y12503D03*
G54D27*
G01X123015Y3991D03*
G01X123880Y3991D03*
G54D29*
G01X123701Y23498D03*
G01X123701Y24363D03*
G54D32*
G01X123447Y15384D03*
G01X123447Y16475D03*
G54D40*
G01X113922Y-8879D03*
G01X113922Y-11079D03*
G54D19*
G01X121415Y3991D03*
G01X120325Y3991D03*
G04 Pad End*

M02*
