G04 Layer: BottomSilkscreenLayer*
G04 EasyEDA Pro v1.9.26, 2023-01-09 17:51:20*
G04 Gerber Generator version 0.3*
G04 Scale: 100 percent, Rotated: No, Reflected: No*
G04 Dimensions in millimeters*
G04 Leading zeros omitted, absolute positions, 3 integers and 3 decimals*
%FSLAX33Y33*%
%MOMM*%
%ADD10C,0.2032*%
%ADD11C,0.15*%
%ADD12C,0.1524*%
%ADD13C,0.254*%
%ADD14C,0.299999*%
G75*


G04 Text Start*
G04 //text: 25*
G54D10*
G01X105793Y-20539D02*
G01X105752Y-20539D01*
G01X105671Y-20580D01*
G01X105630Y-20621D01*
G01X105590Y-20702D01*
G01Y-20864D01*
G01X105630Y-20946D01*
G01X105671Y-20984D01*
G01X105752Y-21024D01*
G01X105833D01*
G01X105915Y-20984D01*
G01X106037Y-20905D01*
G01X106441Y-20499D01*
G01Y-21065D01*
G01X105590Y-21949D02*
G01X105590Y-21545D01*
G01X105955Y-21504D01*
G01X105915Y-21545D01*
G01X105874Y-21667D01*
G01Y-21789D01*
G01X105915Y-21908D01*
G01X105996Y-21990D01*
G01X106118Y-22030D01*
G01X106199D01*
G01X106319Y-21990D01*
G01X106400Y-21908D01*
G01X106441Y-21789D01*
G01Y-21667D01*
G01X106400Y-21545D01*
G01X106359Y-21504D01*
G01X106278Y-21464D01*
G04 //text: 11*
G01X105743Y20161D02*
G01X105703Y20080D01*
G01X105581Y19958D01*
G01X106432D01*
G01X105743Y19562D02*
G01X105703Y19480D01*
G01X105581Y19359D01*
G01X106432D01*
G04 //text: V2*
G01X105581Y-7525D02*
G01X106432Y-7850D01*
G01X105581Y-8173D02*
G01X106432Y-7850D01*
G01X105784Y-8612D02*
G01X105743Y-8612D01*
G01X105662Y-8653D01*
G01X105621Y-8693D01*
G01X105581Y-8774D01*
G01Y-8935D01*
G01X105621Y-9016D01*
G01X105662Y-9056D01*
G01X105743Y-9097D01*
G01X105824D01*
G01X105906Y-9056D01*
G01X106028Y-8975D01*
G01X106432Y-8571D01*
G01Y-9138D01*
G04 //text: 19*
G01X105743Y-32D02*
G01X105703Y-113D01*
G01X105581Y-235D01*
G01X106432D01*
G01X105865Y-1160D02*
G01X105987Y-1119D01*
G01X106068Y-1038D01*
G01X106109Y-916D01*
G01Y-875D01*
G01X106068Y-753D01*
G01X105987Y-672D01*
G01X105865Y-631D01*
G01X105824D01*
G01X105703Y-672D01*
G01X105621Y-753D01*
G01X105581Y-875D01*
G01Y-916D01*
G01X105621Y-1038D01*
G01X105703Y-1119D01*
G01X105865Y-1160D01*
G01X106068D01*
G01X106269Y-1119D01*
G01X106391Y-1038D01*
G01X106432Y-916D01*
G01Y-834D01*
G01X106391Y-713D01*
G01X106310Y-672D01*
G04 //text: 12*
G01X105743Y17748D02*
G01X105703Y17667D01*
G01X105581Y17545D01*
G01X106432D01*
G01X105784Y17108D02*
G01X105743Y17108D01*
G01X105662Y17067D01*
G01X105621Y17027D01*
G01X105581Y16946D01*
G01Y16783D01*
G01X105621Y16702D01*
G01X105662Y16661D01*
G01X105743Y16620D01*
G01X105824D01*
G01X105906Y16661D01*
G01X106028Y16742D01*
G01X106432Y17149D01*
G01Y16580D01*
G04 //text: 13*
G01X105743Y15208D02*
G01X105703Y15127D01*
G01X105581Y15005D01*
G01X106432D01*
G01X105581Y14527D02*
G01X105581Y14080D01*
G01X105906Y14324D01*
G01Y14202D01*
G01X105946Y14121D01*
G01X105987Y14080D01*
G01X106109Y14040D01*
G01X106190D01*
G01X106310Y14080D01*
G01X106391Y14162D01*
G01X106432Y14284D01*
G01Y14406D01*
G01X106391Y14527D01*
G01X106350Y14568D01*
G01X106269Y14609D01*
G04 //text: 14*
G01X105743Y12795D02*
G01X105703Y12714D01*
G01X105581Y12592D01*
G01X106432D01*
G01X105581Y11789D02*
G01X106150Y12196D01*
G01Y11586D01*
G01X105581Y11789D02*
G01X106432Y11789D01*
G04 //text: 15*
G01X105743Y10128D02*
G01X105703Y10047D01*
G01X105581Y9925D01*
G01X106432D01*
G01X105581Y9041D02*
G01X105581Y9447D01*
G01X105946Y9488D01*
G01X105906Y9447D01*
G01X105865Y9326D01*
G01Y9204D01*
G01X105906Y9082D01*
G01X105987Y9000D01*
G01X106109Y8960D01*
G01X106190D01*
G01X106310Y9000D01*
G01X106391Y9082D01*
G01X106432Y9204D01*
G01Y9326D01*
G01X106391Y9447D01*
G01X106350Y9488D01*
G01X106269Y9529D01*
G04 //text: 16*
G01X105743Y7588D02*
G01X105703Y7507D01*
G01X105581Y7385D01*
G01X106432D01*
G01X105703Y6501D02*
G01X105621Y6542D01*
G01X105581Y6664D01*
G01Y6745D01*
G01X105621Y6867D01*
G01X105743Y6948D01*
G01X105946Y6989D01*
G01X106150D01*
G01X106310Y6948D01*
G01X106391Y6867D01*
G01X106432Y6745D01*
G01Y6704D01*
G01X106391Y6582D01*
G01X106310Y6501D01*
G01X106190Y6460D01*
G01X106150D01*
G01X106028Y6501D01*
G01X105946Y6582D01*
G01X105906Y6704D01*
G01Y6745D01*
G01X105946Y6867D01*
G01X106028Y6948D01*
G01X106150Y6989D01*
G04 //text: 17*
G01X105743Y5048D02*
G01X105703Y4967D01*
G01X105581Y4845D01*
G01X106432D01*
G01X105581Y3880D02*
G01X106432Y4286D01*
G01X105581Y4449D02*
G01X105581Y3880D01*
G04 //text: 18*
G01X105743Y2508D02*
G01X105703Y2427D01*
G01X105581Y2305D01*
G01X106432D01*
G01X105581Y1706D02*
G01X105621Y1827D01*
G01X105703Y1868D01*
G01X105784D01*
G01X105865Y1827D01*
G01X105906Y1746D01*
G01X105946Y1584D01*
G01X105987Y1462D01*
G01X106068Y1380D01*
G01X106150Y1340D01*
G01X106269D01*
G01X106350Y1380D01*
G01X106391Y1421D01*
G01X106432Y1543D01*
G01Y1706D01*
G01X106391Y1827D01*
G01X106350Y1868D01*
G01X106269Y1909D01*
G01X106150D01*
G01X106068Y1868D01*
G01X105987Y1787D01*
G01X105946Y1665D01*
G01X105906Y1502D01*
G01X105865Y1421D01*
G01X105784Y1380D01*
G01X105703D01*
G01X105621Y1421D01*
G01X105581Y1543D01*
G01Y1706D01*
G04 //text: 20*
G01X105784Y-2231D02*
G01X105743Y-2231D01*
G01X105662Y-2272D01*
G01X105621Y-2313D01*
G01X105581Y-2394D01*
G01Y-2557D01*
G01X105621Y-2638D01*
G01X105662Y-2676D01*
G01X105743Y-2717D01*
G01X105824D01*
G01X105906Y-2676D01*
G01X106028Y-2597D01*
G01X106432Y-2191D01*
G01Y-2757D01*
G01X105581Y-3400D02*
G01X105621Y-3278D01*
G01X105743Y-3197D01*
G01X105946Y-3156D01*
G01X106068D01*
G01X106269Y-3197D01*
G01X106391Y-3278D01*
G01X106432Y-3400D01*
G01Y-3481D01*
G01X106391Y-3601D01*
G01X106269Y-3682D01*
G01X106068Y-3722D01*
G01X105946D01*
G01X105743Y-3682D01*
G01X105621Y-3601D01*
G01X105581Y-3481D01*
G01Y-3400D01*
G04 //text: 3V3*
G01X105581Y-4304D02*
G01X105581Y-4749D01*
G01X105906Y-4507D01*
G01Y-4629D01*
G01X105946Y-4708D01*
G01X105987Y-4749D01*
G01X106109Y-4789D01*
G01X106190D01*
G01X106310Y-4749D01*
G01X106391Y-4670D01*
G01X106432Y-4548D01*
G01Y-4426D01*
G01X106391Y-4304D01*
G01X106350Y-4263D01*
G01X106269Y-4223D01*
G01X105581Y-5188D02*
G01X106432Y-5513D01*
G01X105581Y-5836D02*
G01X106432Y-5513D01*
G01X105581Y-6316D02*
G01X105581Y-6760D01*
G01X105906Y-6516D01*
G01Y-6638D01*
G01X105946Y-6720D01*
G01X105987Y-6760D01*
G01X106109Y-6801D01*
G01X106190D01*
G01X106310Y-6760D01*
G01X106391Y-6679D01*
G01X106432Y-6557D01*
G01Y-6438D01*
G01X106391Y-6316D01*
G01X106350Y-6275D01*
G01X106269Y-6234D01*
G04 //text: 23*
G01X105784Y-15058D02*
G01X105743Y-15058D01*
G01X105662Y-15099D01*
G01X105621Y-15140D01*
G01X105581Y-15221D01*
G01Y-15384D01*
G01X105621Y-15465D01*
G01X105662Y-15503D01*
G01X105743Y-15544D01*
G01X105824D01*
G01X105906Y-15503D01*
G01X106028Y-15424D01*
G01X106432Y-15018D01*
G01Y-15584D01*
G01X105581Y-16064D02*
G01X105581Y-16509D01*
G01X105906Y-16267D01*
G01Y-16387D01*
G01X105946Y-16468D01*
G01X105987Y-16509D01*
G01X106109Y-16549D01*
G01X106190D01*
G01X106310Y-16509D01*
G01X106391Y-16428D01*
G01X106432Y-16308D01*
G01Y-16186D01*
G01X106391Y-16064D01*
G01X106350Y-16024D01*
G01X106269Y-15983D01*
G04 //text: 22*
G01X105784Y-12772D02*
G01X105743Y-12772D01*
G01X105662Y-12813D01*
G01X105621Y-12854D01*
G01X105581Y-12935D01*
G01Y-13098D01*
G01X105621Y-13179D01*
G01X105662Y-13217D01*
G01X105743Y-13258D01*
G01X105824D01*
G01X105906Y-13217D01*
G01X106028Y-13138D01*
G01X106432Y-12732D01*
G01Y-13298D01*
G01X105784Y-13738D02*
G01X105743Y-13738D01*
G01X105662Y-13778D01*
G01X105621Y-13819D01*
G01X105581Y-13900D01*
G01Y-14063D01*
G01X105621Y-14142D01*
G01X105662Y-14182D01*
G01X105743Y-14223D01*
G01X105824D01*
G01X105906Y-14182D01*
G01X106028Y-14101D01*
G01X106432Y-13697D01*
G01Y-14263D01*
G04 //text: 1V2*
G01X105743Y-9811D02*
G01X105703Y-9892D01*
G01X105581Y-10014D01*
G01X106432D01*
G01X105581Y-10410D02*
G01X106432Y-10735D01*
G01X105581Y-11060D02*
G01X106432Y-10735D01*
G01X105784Y-11497D02*
G01X105743Y-11497D01*
G01X105662Y-11538D01*
G01X105621Y-11579D01*
G01X105581Y-11660D01*
G01Y-11822D01*
G01X105621Y-11904D01*
G01X105662Y-11944D01*
G01X105743Y-11985D01*
G01X105824D01*
G01X105906Y-11944D01*
G01X106028Y-11863D01*
G01X106432Y-11457D01*
G01Y-12026D01*
G04 //text: CDONE*
G54D11*
G01X105878Y-17421D02*
G01X105824Y-17395D01*
G01X105771Y-17342D01*
G01X105746Y-17289D01*
G01Y-17182D01*
G01X105771Y-17129D01*
G01X105824Y-17075D01*
G01X105878Y-17050D01*
G01X105957Y-17024D01*
G01X106091D01*
G01X106170Y-17050D01*
G01X106223Y-17075D01*
G01X106277Y-17129D01*
G01X106302Y-17182D01*
G01Y-17289D01*
G01X106277Y-17342D01*
G01X106223Y-17395D01*
G01X106170Y-17421D01*
G01X105746Y-17700D02*
G01X106302Y-17700D01*
G01X105746Y-17700D02*
G01X105746Y-17885D01*
G01X105771Y-17964D01*
G01X105824Y-18018D01*
G01X105878Y-18045D01*
G01X105957Y-18071D01*
G01X106091D01*
G01X106170Y-18045D01*
G01X106223Y-18018D01*
G01X106277Y-17964D01*
G01X106302Y-17885D01*
G01Y-17700D01*
G01X105746Y-18508D02*
G01X105771Y-18454D01*
G01X105824Y-18401D01*
G01X105878Y-18376D01*
G01X105957Y-18348D01*
G01X106091D01*
G01X106170Y-18376D01*
G01X106223Y-18401D01*
G01X106277Y-18454D01*
G01X106302Y-18508D01*
G01Y-18614D01*
G01X106277Y-18668D01*
G01X106223Y-18721D01*
G01X106170Y-18747D01*
G01X106091Y-18774D01*
G01X105957D01*
G01X105878Y-18747D01*
G01X105824Y-18721D01*
G01X105771Y-18668D01*
G01X105746Y-18614D01*
G01Y-18508D01*
G01X105746Y-19051D02*
G01X106302Y-19051D01*
G01X105746Y-19051D02*
G01X106302Y-19422D01*
G01X105746Y-19422D02*
G01X106302Y-19422D01*
G01X105746Y-19702D02*
G01X106302Y-19702D01*
G01X105746Y-19702D02*
G01X105746Y-20044D01*
G01X106010Y-19702D02*
G01X106010Y-19912D01*
G01X106302Y-19702D02*
G01X106302Y-20044D01*
G04 //text: 9*
G54D10*
G01X105992Y21671D02*
G01X106114Y21711D01*
G01X106195Y21790D01*
G01X106236Y21912D01*
G01Y21953D01*
G01X106195Y22075D01*
G01X106114Y22156D01*
G01X105992Y22197D01*
G01X105951D01*
G01X105830Y22156D01*
G01X105748Y22075D01*
G01X105708Y21953D01*
G01Y21912D01*
G01X105748Y21790D01*
G01X105830Y21711D01*
G01X105992Y21671D01*
G01X106195D01*
G01X106396Y21711D01*
G01X106518Y21790D01*
G01X106559Y21912D01*
G01Y21993D01*
G01X106518Y22115D01*
G01X106437Y22156D01*
G04 //text: 3V3*
G01X128674Y18433D02*
G01X128674Y18878D01*
G01X128349Y18637D01*
G01Y18758D01*
G01X128308Y18837D01*
G01X128268Y18878D01*
G01X128146Y18918D01*
G01X128064D01*
G01X127945Y18878D01*
G01X127864Y18799D01*
G01X127823Y18677D01*
G01Y18555D01*
G01X127864Y18433D01*
G01X127904Y18393D01*
G01X127986Y18352D01*
G01X128674Y19317D02*
G01X127823Y19642D01*
G01X128674Y19965D02*
G01X127823Y19642D01*
G01X128674Y20445D02*
G01X128674Y20890D01*
G01X128349Y20646D01*
G01Y20768D01*
G01X128308Y20849D01*
G01X128268Y20890D01*
G01X128146Y20930D01*
G01X128064D01*
G01X127945Y20890D01*
G01X127864Y20808D01*
G01X127823Y20686D01*
G01Y20567D01*
G01X127864Y20445D01*
G01X127904Y20404D01*
G01X127986Y20364D01*
G04 //text: 43*
G01X128618Y-16187D02*
G01X128049Y-16593D01*
G01Y-15986D01*
G01X128618Y-16187D02*
G01X127767Y-16187D01*
G01X128618Y-15506D02*
G01X128618Y-15062D01*
G01X128293Y-15303D01*
G01Y-15183D01*
G01X128252Y-15102D01*
G01X128212Y-15062D01*
G01X128090Y-15021D01*
G01X128008D01*
G01X127889Y-15062D01*
G01X127808Y-15143D01*
G01X127767Y-15262D01*
G01Y-15384D01*
G01X127808Y-15506D01*
G01X127848Y-15547D01*
G01X127930Y-15587D01*
G04 //text: 44*
G01X128618Y-13774D02*
G01X128049Y-14180D01*
G01Y-13573D01*
G01X128618Y-13774D02*
G01X127767Y-13774D01*
G01X128618Y-12770D02*
G01X128049Y-13174D01*
G01Y-12567D01*
G01X128618Y-12770D02*
G01X127767Y-12770D01*
G04 //text: 45*
G01X128618Y-11107D02*
G01X128049Y-11513D01*
G01Y-10906D01*
G01X128618Y-11107D02*
G01X127767Y-11107D01*
G01X128618Y-10022D02*
G01X128618Y-10426D01*
G01X128252Y-10467D01*
G01X128293Y-10426D01*
G01X128334Y-10304D01*
G01Y-10182D01*
G01X128293Y-10063D01*
G01X128212Y-9982D01*
G01X128090Y-9941D01*
G01X128008D01*
G01X127889Y-9982D01*
G01X127808Y-10063D01*
G01X127767Y-10182D01*
G01Y-10304D01*
G01X127808Y-10426D01*
G01X127848Y-10467D01*
G01X127930Y-10507D01*
G04 //text: 46*
G01X128618Y-8694D02*
G01X128049Y-9100D01*
G01Y-8493D01*
G01X128618Y-8694D02*
G01X127767Y-8694D01*
G01X128496Y-7609D02*
G01X128577Y-7650D01*
G01X128618Y-7769D01*
G01Y-7850D01*
G01X128577Y-7972D01*
G01X128456Y-8054D01*
G01X128252Y-8094D01*
G01X128049D01*
G01X127889Y-8054D01*
G01X127808Y-7972D01*
G01X127767Y-7850D01*
G01Y-7810D01*
G01X127808Y-7690D01*
G01X127889Y-7609D01*
G01X128008Y-7569D01*
G01X128049D01*
G01X128171Y-7609D01*
G01X128252Y-7690D01*
G01X128293Y-7810D01*
G01Y-7850D01*
G01X128252Y-7972D01*
G01X128171Y-8054D01*
G01X128049Y-8094D01*
G04 //text: 48*
G01X128618Y-3360D02*
G01X128049Y-3766D01*
G01Y-3159D01*
G01X128618Y-3360D02*
G01X127767Y-3360D01*
G01X128618Y-2557D02*
G01X128577Y-2679D01*
G01X128496Y-2720D01*
G01X128415D01*
G01X128334Y-2679D01*
G01X128293Y-2598D01*
G01X128252Y-2435D01*
G01X128212Y-2316D01*
G01X128130Y-2235D01*
G01X128049Y-2194D01*
G01X127930D01*
G01X127848Y-2235D01*
G01X127808Y-2275D01*
G01X127767Y-2397D01*
G01Y-2557D01*
G01X127808Y-2679D01*
G01X127848Y-2720D01*
G01X127930Y-2760D01*
G01X128049D01*
G01X128130Y-2720D01*
G01X128212Y-2638D01*
G01X128252Y-2516D01*
G01X128293Y-2356D01*
G01X128334Y-2275D01*
G01X128415Y-2235D01*
G01X128496D01*
G01X128577Y-2275D01*
G01X128618Y-2397D01*
G01Y-2557D01*
G04 //text: 1*
G01X128456Y-591D02*
G01X128496Y-510D01*
G01X128618Y-388D01*
G01X127767D01*
G04 //text: 2*
G01X128415Y1862D02*
G01X128456Y1862D01*
G01X128537Y1903D01*
G01X128577Y1944D01*
G01X128618Y2025D01*
G01Y2188D01*
G01X128577Y2269D01*
G01X128537Y2307D01*
G01X128456Y2348D01*
G01X128374D01*
G01X128293Y2307D01*
G01X128171Y2228D01*
G01X127767Y1822D01*
G01Y2388D01*
G04 //text: 4*
G01X128618Y7181D02*
G01X128049Y6775D01*
G01Y7382D01*
G01X128618Y7181D02*
G01X127767Y7181D01*
G04 //text: +5V*
G01X128369Y13618D02*
G01X127640Y13618D01*
G01X128003Y13252D02*
G01X128003Y13981D01*
G01X128491Y14865D02*
G01X128491Y14461D01*
G01X128125Y14420D01*
G01X128166Y14461D01*
G01X128207Y14583D01*
G01Y14702D01*
G01X128166Y14824D01*
G01X128085Y14905D01*
G01X127963Y14946D01*
G01X127881D01*
G01X127762Y14905D01*
G01X127681Y14824D01*
G01X127640Y14702D01*
G01Y14583D01*
G01X127681Y14461D01*
G01X127721Y14420D01*
G01X127803Y14380D01*
G01X128491Y15345D02*
G01X127640Y15667D01*
G01X128491Y15992D02*
G01X127640Y15667D01*
G04 //text: G*
G01X128415Y17542D02*
G01X128496Y17501D01*
G01X128577Y17420D01*
G01X128618Y17341D01*
G01Y17179D01*
G01X128577Y17097D01*
G01X128496Y17016D01*
G01X128415Y16975D01*
G01X128293Y16935D01*
G01X128090D01*
G01X127968Y16975D01*
G01X127889Y17016D01*
G01X127808Y17097D01*
G01X127767Y17179D01*
G01Y17341D01*
G01X127808Y17420D01*
G01X127889Y17501D01*
G01X127968Y17542D01*
G01X128090D01*
G01X128090Y17341D02*
G01X128090Y17542D01*
G04 //text: 42*
G01X128618Y-18600D02*
G01X128049Y-19006D01*
G01Y-18399D01*
G01X128618Y-18600D02*
G01X127767Y-18600D01*
G01X128415Y-17960D02*
G01X128456Y-17960D01*
G01X128537Y-17919D01*
G01X128577Y-17878D01*
G01X128618Y-17797D01*
G01Y-17637D01*
G01X128577Y-17556D01*
G01X128537Y-17515D01*
G01X128456Y-17475D01*
G01X128374D01*
G01X128293Y-17515D01*
G01X128171Y-17596D01*
G01X127767Y-18000D01*
G01Y-17434D01*
G04 //text: 41*
G01X128616Y-21013D02*
G01X128047Y-21419D01*
G01Y-20812D01*
G01X128616Y-21013D02*
G01X127765Y-21013D01*
G01X128453Y-20413D02*
G01X128494Y-20332D01*
G01X128616Y-20210D01*
G01X127765D01*
G04 //text: 3*
G01X128618Y4443D02*
G01X128618Y4888D01*
G01X128293Y4646D01*
G01Y4768D01*
G01X128252Y4847D01*
G01X128212Y4888D01*
G01X128090Y4928D01*
G01X128008D01*
G01X127889Y4888D01*
G01X127808Y4809D01*
G01X127767Y4687D01*
G01Y4565D01*
G01X127808Y4443D01*
G01X127848Y4402D01*
G01X127930Y4362D01*
G04 //text: 5*
G01X128646Y9752D02*
G01X128646Y9348D01*
G01X128280Y9307D01*
G01X128321Y9348D01*
G01X128362Y9470D01*
G01Y9592D01*
G01X128321Y9714D01*
G01X128240Y9792D01*
G01X128118Y9833D01*
G01X128036D01*
G01X127917Y9792D01*
G01X127836Y9714D01*
G01X127795Y9592D01*
G01Y9470D01*
G01X127836Y9348D01*
G01X127876Y9307D01*
G01X127958Y9267D01*
G04 //text: 6*
G01X128440Y12340D02*
G01X128522Y12302D01*
G01X128562Y12180D01*
G01Y12099D01*
G01X128522Y11977D01*
G01X128400Y11895D01*
G01X128196Y11855D01*
G01X127993D01*
G01X127833Y11895D01*
G01X127752Y11977D01*
G01X127711Y12099D01*
G01Y12139D01*
G01X127752Y12261D01*
G01X127833Y12340D01*
G01X127953Y12381D01*
G01X127993D01*
G01X128115Y12340D01*
G01X128196Y12261D01*
G01X128237Y12139D01*
G01Y12099D01*
G01X128196Y11977D01*
G01X128115Y11895D01*
G01X127993Y11855D01*
G04 //text: V0*
G01X128618Y-6433D02*
G01X127767Y-6108D01*
G01X128618Y-5785D02*
G01X127767Y-6108D01*
G01X128618Y-5143D02*
G01X128577Y-5265D01*
G01X128456Y-5346D01*
G01X128252Y-5387D01*
G01X128130D01*
G01X127930Y-5346D01*
G01X127808Y-5265D01*
G01X127767Y-5143D01*
G01Y-5064D01*
G01X127808Y-4942D01*
G01X127930Y-4861D01*
G01X128130Y-4820D01*
G01X128252D01*
G01X128456Y-4861D01*
G01X128577Y-4942D01*
G01X128618Y-5064D01*
G01Y-5143D01*
G04 //text: 1V2*
G01X128501Y21458D02*
G01X128541Y21539D01*
G01X128663Y21661D01*
G01X127812D01*
G01X128663Y22058D02*
G01X127812Y22383D01*
G01X128663Y22708D02*
G01X127812Y22383D01*
G01X128460Y23145D02*
G01X128501Y23145D01*
G01X128582Y23185D01*
G01X128623Y23226D01*
G01X128663Y23307D01*
G01Y23470D01*
G01X128623Y23551D01*
G01X128582Y23592D01*
G01X128501Y23632D01*
G01X128419D01*
G01X128338Y23592D01*
G01X128216Y23511D01*
G01X127812Y23104D01*
G01Y23673D01*
G04 //text: U2*
G54D12*
G01X120704Y-10814D02*
G01X120704Y-11279D01*
G01X120674Y-11370D01*
G01X120610Y-11434D01*
G01X120519Y-11464D01*
G01X120455D01*
G01X120364Y-11434D01*
G01X120303Y-11370D01*
G01X120270Y-11279D01*
G01Y-10814D01*
G01X119940Y-10969D02*
G01X119940Y-10939D01*
G01X119907Y-10875D01*
G01X119876Y-10845D01*
G01X119815Y-10814D01*
G01X119691D01*
G01X119630Y-10845D01*
G01X119599Y-10875D01*
G01X119566Y-10939D01*
G01Y-11000D01*
G01X119599Y-11061D01*
G01X119660Y-11155D01*
G01X119970Y-11464D01*
G01X119536D01*
G04 Text End*

G04 PolygonModel Start*
G54D13*
G01X106957Y21101D02*
G01X109457Y21101D01*
G01X106957Y23669D02*
G01X106957Y-22290D01*
G01X109457Y-22291D02*
G01X106957Y-22290D01*
G01X109457Y23669D02*
G01X106957Y23669D01*
G01X109457Y23669D02*
G01X109457Y-22291D01*
G54D12*
G01X114440Y-3982D02*
G01X114440Y-4700D01*
G01X114440Y-4700D02*
G01X115437Y-4700D01*
G01X115437Y-4700D02*
G01X115437Y-3982D01*
G01X114440Y-3529D02*
G01X114440Y-2811D01*
G01X114440Y-2811D02*
G01X115437Y-2811D01*
G01X115437Y-2811D02*
G01X115437Y-3529D01*
G01X114151Y-5869D02*
G01X114151Y-4910D01*
G01X114151Y-4910D02*
G01X115472Y-4910D01*
G01X115472Y-4910D02*
G01X115472Y-5869D01*
G01X114151Y-6722D02*
G01X114151Y-7681D01*
G01X114151Y-7681D02*
G01X115472Y-7681D01*
G01X115472Y-7681D02*
G01X115472Y-6722D01*
G54D13*
G01X112146Y-5942D02*
G01X112146Y-7492D01*
G01X112146Y-7492D02*
G01X110114Y-7492D01*
G01X110114Y-7492D02*
G01X110114Y-5942D01*
G01X112171Y-5155D02*
G01X112171Y-3682D01*
G01X112171Y-3682D02*
G01X111765Y-3275D01*
G01X111765Y-3275D02*
G01X110495Y-3275D01*
G01X110495Y-3275D02*
G01X110114Y-3656D01*
G01X110114Y-3656D02*
G01X110114Y-5180D01*
G01X111630Y-5716D02*
G01X110629Y-5716D01*
G01X110629Y-5716D02*
G01X111130Y-5216D01*
G01X111130Y-5216D02*
G01X111630Y-5716D01*
G01X111930Y-3517D02*
G01X110330Y-3517D01*
G01X121611Y14932D02*
G01X121611Y14132D01*
G01X122721Y15242D02*
G01X121921Y15242D01*
G01X122721Y13822D02*
G01X121921Y13822D01*
G01X123297Y15248D02*
G01X124097Y15248D01*
G01X124407Y14938D02*
G01X124407Y14138D01*
G01X123297Y13828D02*
G01X124097Y13828D01*
G01X124407Y14938D02*
G03X124097Y15248I-310J0D01*
G01X124097Y13828D02*
G03X124407Y14138I0J310D01*
G01X121921Y15242D02*
G03X121611Y14932I-0J-310D01*
G01X121611Y14132D02*
G03X121921Y13822I310J0D01*
G54D12*
G01X120996Y16918D02*
G01X120996Y18375D01*
G01X120996Y18375D02*
G01X122254Y18375D01*
G01X121283Y18147D02*
G01X121189Y18147D01*
G01X121189Y18147D02*
G01X121189Y15490D01*
G01X121189Y15490D02*
G01X124448Y15490D01*
G01X124448Y15490D02*
G01X124448Y18147D01*
G01X124448Y18147D02*
G01X121283Y18147D01*
G54D13*
G01X124737Y21101D02*
G01X127237Y21101D01*
G01X124737Y23669D02*
G01X124737Y-22290D01*
G01X127237Y-22291D02*
G01X124737Y-22290D01*
G01X127237Y23669D02*
G01X124737Y23669D01*
G01X127237Y23669D02*
G01X127237Y-22291D01*
G54D12*
G01X123754Y-2795D02*
G01X123754Y-652D01*
G01X123754Y-652D02*
G01X120601Y-652D01*
G01X120601Y-652D02*
G01X120601Y-2795D01*
G01X120601Y-2795D02*
G01X123754Y-2795D01*
G01X121031Y-14036D02*
G01X121031Y-10493D01*
G01X121031Y-10493D02*
G01X110878Y-10493D01*
G01X110878Y-10493D02*
G01X110878Y-14036D01*
G01X110878Y-14036D02*
G01X121031Y-14036D01*
G54D13*
G01X122994Y4195D02*
G01X122994Y8195D01*
G01X117994Y8081D02*
G01X117994Y6758D01*
G01X117994Y5675D02*
G01X117994Y4308D01*
G01X117994Y5675D02*
G03X117994Y6758I-4J541D01*
G54D12*
G01X120896Y12760D02*
G01X120896Y15797D01*
G01X120896Y15797D02*
G01X115839Y15797D01*
G01X115839Y15797D02*
G01X115839Y12760D01*
G01X115839Y12760D02*
G01X120896Y12760D01*
G54D13*
G01X123720Y21256D02*
G01X122920Y21256D01*
G01X124030Y20147D02*
G01X124030Y20947D01*
G01X122610Y20147D02*
G01X122610Y20947D01*
G01X124036Y19571D02*
G01X124036Y18771D01*
G01X123726Y18461D02*
G01X122926Y18461D01*
G01X122616Y19571D02*
G01X122616Y18771D01*
G01X123726Y18461D02*
G03X124036Y18771I0J310D01*
G01X122616Y18771D02*
G03X122926Y18461I310J-0D01*
G01X124030Y20947D02*
G03X123720Y21256I-310J0D01*
G01X122920Y21256D02*
G03X122610Y20947I0J-310D01*
G04 PolygonModel End*

G04 Circle Start*
G54D14*
G01X123027Y-2043D02*
G03X123328Y-2043I150J0D01*
G03X123027I-150J0D01*
G01X123620Y-3834D02*
G03X123920Y-3834I150J0D01*
G03X123620I-150J0D01*
G01X120249Y-13284D02*
G03X120550Y-13284I150J0D01*
G03X120249I-150J0D01*
G01X120982Y-15137D02*
G03X121282Y-15137I150J0D01*
G03X120982I-150J0D01*
G54D13*
G01X117553Y8985D02*
G03X117896Y8985I171J0D01*
G03X117553I-171J0D01*
G54D14*
G01X121070Y11624D02*
G03X121370Y11624I150J0D01*
G03X121070I-150J0D01*
G01X120262Y13182D02*
G03X120562Y13182I150J0D01*
G03X120262I-150J0D01*
G04 Circle End*

M02*
